<svg width="1600" height="1017" viewBox="0 0 1600 1017" fill="none" xmlns="http://www.w3.org/2000/svg">
<path opacity="0.1" fill-rule="evenodd" clip-rule="evenodd" d="M744.531 1.27574C743.56 2.44574 743.955 3.65574 746.574 7.52574C748.36 10.1647 750.44 12.9997 751.195 13.8247C755.339 18.3497 761.509 27.3177 761.119 28.2477C760.87 28.8397 759.687 31.7997 758.489 34.8247C757.292 37.8497 755.691 41.7727 754.932 43.5437L753.552 46.7617L744.878 42.7727C740.106 40.5787 734.083 37.2277 731.492 35.3257C728.901 33.4237 724.128 30.8637 720.885 29.6357C717.643 28.4077 714.498 26.7567 713.896 25.9667C712.597 24.2627 709.441 24.8877 704.761 27.7767C700.386 30.4767 701.395 32.4867 707.551 33.3327C710.796 33.7797 715.097 35.6077 720.226 38.7217C724.496 41.3137 729.452 44.1967 731.24 45.1297C733.028 46.0617 735.799 47.5117 737.398 48.3517C741.366 50.4357 757.648 67.6167 760.213 72.4267C761.357 74.5707 764.111 79.8087 766.335 84.0677C768.558 88.3257 771.461 93.2757 772.786 95.0677C774.111 96.8587 775.478 98.8307 775.824 99.4497C776.171 100.069 774.304 102.769 771.676 105.45C763.698 113.591 758.843 120.476 757.52 125.525C756.829 128.165 755.439 132.8 754.432 135.825C752.056 142.966 749.383 157.381 750.092 159.229C750.396 160.022 751.277 160.913 752.05 161.21C753.558 161.788 754.413 159.193 758.303 142.24C762.062 125.861 772.11 108.962 779.139 107.198C782.576 106.336 786.325 108.26 787.566 111.526C788.382 113.67 788.164 115.454 786.546 119.891C785.415 122.993 784.49 126.219 784.49 127.061C784.49 128.837 787.984 129.99 791.041 129.223C792.623 128.826 793.838 129.593 795.889 132.282C799.249 136.687 803.329 140.825 804.313 140.825C804.716 140.825 806.045 140.124 807.267 139.268C809.785 137.505 810.105 134.153 808.402 127.389C807.512 123.855 807.603 122.507 808.902 119.996C809.775 118.306 810.49 116.248 810.49 115.421C810.49 113.938 802.625 109.822 799.262 109.545C798.165 109.455 796.979 107.773 796.014 104.941C794.641 100.911 794.647 100.309 796.077 98.7287C797.556 97.0947 804.959 93.2767 817.17 87.8507L822.349 85.5487L828.296 88.6437C831.567 90.3457 834.512 91.4687 834.842 91.1387C835.172 90.8097 836.189 91.1597 837.103 91.9187C838.223 92.8477 841.409 93.2867 846.877 93.2637C853.815 93.2337 855.931 92.7847 861.49 90.1567C877.413 82.6287 887.009 66.1227 885.967 48.0547C885.51 40.1387 884.011 35.7787 879.304 28.6827C873.496 19.9257 864.147 12.8617 854.423 9.88274C850.066 8.54874 839.247 8.22574 834.49 9.28874C823.445 11.7577 810.584 23.5167 806.562 34.8247C801.098 50.1887 803.277 66.5877 811.871 74.7707C813.861 76.6667 815.49 78.7127 815.49 79.3177C815.49 81.5857 807.678 87.9317 802.431 89.9257C793.335 93.3827 793.747 93.4137 792.569 89.1717C791.982 87.0557 791.499 84.8127 791.496 84.1867C791.486 82.2237 775.895 60.2297 770.181 54.1187L767.183 50.9127L767.845 41.6187C768.21 36.5067 768.767 30.5247 769.084 28.3247C769.789 23.4327 767.599 19.9177 756.384 7.94474C748.705 -0.253257 746.724 -1.36726 744.531 1.27574ZM850.844 14.5117C851.222 14.8897 852.309 15.3027 853.26 15.4287C855.287 15.6987 861.439 17.9877 863.24 19.1417C865.501 20.5907 864.567 21.6577 858.24 24.8517C854.803 26.5877 851.09 28.8177 849.99 29.8077C847.756 31.8197 837.561 37.2867 837.137 36.7007C835.289 34.1407 829.382 24.5847 828.115 22.1057L826.47 18.8857L829.724 17.2037C831.513 16.2787 834.105 15.1787 835.484 14.7587C838.679 13.7867 849.938 13.6057 850.844 14.5117ZM823.717 25.5747C824.562 26.5377 825.593 28.4497 826.009 29.8247C826.424 31.1997 827.827 33.5967 829.127 35.1517C831.738 38.2747 832.152 41.0417 830.24 42.5967C827.109 45.1457 809.605 53.8197 809.133 53.0567C808.434 51.9247 809.237 46.6027 811.13 39.8247C813.308 32.0277 818.364 23.8247 820.99 23.8247C821.645 23.8247 822.872 24.6117 823.717 25.5747ZM386.101 30.8567L381.32 33.8887L374.89 31.7167C369.584 29.9247 367.02 29.6397 360.225 30.0877C351.282 30.6767 348.49 31.4127 348.49 33.1817C348.49 33.9437 351.242 34.3387 356.74 34.3657C364.168 34.4027 374.392 36.6337 376.716 38.7237C377.116 39.0837 375.653 42.0137 373.466 45.2357C367.823 53.5507 368.368 55.3147 374.719 49.2867C377.595 46.5577 380.107 43.9867 380.302 43.5747C382.788 38.3137 398.079 59.5137 400 70.8837C400.408 73.2967 401.213 74.8247 402.078 74.8247C404.589 74.8247 403.741 66.6967 400.341 58.1977C396.907 49.6107 394.656 45.8507 390.32 41.4557C388.764 39.8787 387.49 37.9807 387.49 37.2397C387.49 36.4977 389.065 34.3167 390.99 32.3917C392.915 30.4667 394.49 28.6517 394.49 28.3577C394.49 26.9187 390.381 28.1427 386.101 30.8567ZM872.083 28.5897C873.673 29.6587 878.49 39.6597 878.49 41.8927C878.49 43.8017 876.595 44.9937 859.184 54.0367L852.037 57.7477L849.764 55.6117C848.513 54.4377 847.49 53.1007 847.49 52.6417C847.49 52.1827 846.136 49.9387 844.481 47.6547C841.59 43.6627 841.541 43.4247 843.231 41.5537C844.199 40.4827 847.465 38.2677 850.49 36.6327C853.515 34.9967 858.24 32.3827 860.99 30.8237C865.965 28.0017 869.999 27.1897 872.083 28.5897ZM838.265 48.5747C839.316 50.0877 841.465 53.6517 843.041 56.4957L845.907 61.6667L843.452 63.6547C842.102 64.7477 836.577 67.9827 831.175 70.8437L821.353 76.0447L819.014 73.8477C817.728 72.6387 815.692 69.7767 814.491 67.4877C811.609 61.9947 812.782 58.7237 818.7 55.7527C821.059 54.5677 823.89 52.8017 824.99 51.8277C826.969 50.0747 834.355 45.9547 835.672 45.8687C836.047 45.8447 837.214 47.0617 838.265 48.5747ZM-1.68182 48.4537C-2.60182 49.4827 -4.92283 53.7237 -6.83983 57.8787C-9.54883 63.7507 -10.4788 67.3137 -11.0188 73.8787C-11.3998 78.5237 -11.9018 82.6367 -12.1348 83.0177C-12.5438 83.6877 -14.0528 97.6267 -16.9838 127.802C-17.7568 135.764 -18.1808 142.487 -17.9258 142.742C-16.3938 144.275 -14.5918 139.076 -13.6218 130.325C-11.3678 109.974 -7.70082 81.2787 -7.16782 79.8247C-6.86582 78.9997 -6.37983 74.5427 -6.08783 69.9217C-5.66683 63.2487 -5.14582 61.1337 -3.55682 59.6537C-1.59482 57.8257 -1.54483 57.8387 -0.920828 60.3217C-0.0518284 63.7867 -2.93383 95.1627 -4.96383 104.325C-5.20783 105.425 -5.67583 109.7 -6.00383 113.825C-6.33083 117.95 -7.02282 124.475 -7.53982 128.325C-9.52182 143.074 -9.62783 146.281 -8.19783 148.238C-6.14783 151.04 -4.50983 149.298 -4.50983 144.317C-4.50983 141.903 -3.86882 134.842 -3.08582 128.626C-2.30282 122.411 -1.39582 114.925 -1.06982 111.991C-0.744822 109.057 -0.0588264 103.699 0.453173 100.082C0.965172 96.4657 1.32918 93.2407 1.26218 92.9157C1.19518 92.5907 1.44317 89.3997 1.81317 85.8247C2.18317 82.2497 2.67218 77.1367 2.90018 74.4627C3.12818 71.7877 3.72717 69.1877 4.23117 68.6837C5.33817 67.5767 20.1462 74.7647 26.1812 79.3387C31.6742 83.5017 36.1522 89.2137 43.0252 100.825C46.1182 106.05 50.3662 113.205 52.4652 116.724C54.5652 120.244 56.6172 124.969 57.0262 127.224C57.4352 129.48 57.9192 132 58.1012 132.825C58.5602 134.905 58.5282 152.561 58.0582 156.825C57.8462 158.75 57.3632 165.05 56.9842 170.825C56.6062 176.6 55.9182 184.175 55.4572 187.659C54.9952 191.142 54.8622 194.63 55.1612 195.409C55.9322 197.42 58.4832 197.168 58.5282 195.075C58.5492 194.113 58.7742 191.75 59.0302 189.825C61.9062 168.139 62.7742 159.174 63.1922 146.825C63.4632 138.85 64.0532 131.935 64.5042 131.458C64.9562 130.98 66.3192 131.519 67.5452 132.662C69.5672 134.545 69.7492 135.572 69.5682 144.029C69.4582 149.142 68.7682 159.4 68.0342 166.825C66.2972 184.398 66.0392 202.428 67.5112 203.338C69.2452 204.41 69.9832 203.016 70.0752 198.492C70.1222 196.2 70.4852 189.825 70.8822 184.325C71.2792 178.825 71.8052 171.4 72.0502 167.825C72.9732 154.373 74.6092 136.279 75.0102 135.075C75.2402 134.388 76.1442 133.825 77.0212 133.825C79.1132 133.825 105.063 126.786 123.99 121.085C144.236 114.986 148.56 113.825 151.032 113.825C153.119 113.825 167.377 119.487 172.817 122.476C175.482 123.94 175.782 123.899 178.067 121.753C181.984 118.073 181.182 115.732 173.24 107.668C169.252 103.619 164.752 99.5127 163.24 98.5427C161.728 97.5727 160.49 96.3607 160.49 95.8497C160.49 94.5627 169.12 82.1687 173.349 77.3817C175.74 74.6757 176.419 73.3007 175.512 72.9987C174.785 72.7567 172.571 74.5287 170.59 76.9377C168.61 79.3467 164.247 84.2007 160.895 87.7257C153.677 95.3167 151.911 95.2547 152.944 87.4467C154.678 74.3447 163.353 64.0527 175.74 60.4027C178.18 59.6847 177.957 56.8247 175.461 56.8247C172.105 56.8247 161.697 62.6177 157.484 66.8307C152.082 72.2327 147.531 83.5237 147.502 91.5957C147.488 95.4887 146.734 95.8937 133.99 98.8597C110.697 104.281 103.13 105.75 95.1542 106.397C87.9202 106.984 86.1352 106.823 83.9372 105.382C79.9102 102.744 75.9132 98.0337 70.7342 89.8247C64.5222 79.9777 63.5102 78.7407 53.9632 69.3247C41.6202 57.1507 23.2442 48.3887 7.49018 47.1647C0.975176 46.6587 -0.229822 46.8277 -1.68182 48.4537ZM13.2852 50.8617C16.7472 51.4227 23.4332 53.6627 28.1422 55.8387C44.1492 63.2337 56.1762 74.0067 65.5292 89.3247C77.1472 108.352 80.7172 111.752 89.1302 111.797C96.1972 111.835 133.146 103.866 147.075 99.2997C152.767 97.4337 157.372 98.7177 163.72 103.943C170.771 109.746 176.49 115.572 176.49 116.951C176.49 118.561 171.656 117.409 163.636 113.889C152.316 108.921 150.332 108.764 137.937 111.865C126.765 114.661 124.569 115.318 104.49 121.879C94.4172 125.17 84.1872 128.29 76.6922 130.357C75.4282 130.705 73.8532 130.565 73.1922 130.046C72.5312 129.526 70.7112 128.795 69.1472 128.42C64.7902 127.378 60.2482 122.287 53.4332 110.81C44.5132 95.7877 35.9182 83.2527 31.5272 78.8617C27.1202 74.4547 18.8322 69.4557 9.30518 65.4597C2.68118 62.6807 2.60918 62.6087 1.55518 57.6907C0.138178 51.0867 0.148174 51.0297 2.74018 50.5307C6.53118 49.8007 6.79917 49.8087 13.2852 50.8617ZM879.294 56.7107C879.553 61.1547 879.07 62.8837 876.07 68.2487C872.35 74.8997 867.422 80.8247 865.609 80.8247C865.016 80.8247 863.557 78.9127 862.366 76.5747C861.176 74.2367 859.057 70.8217 857.658 68.9837C854.349 64.6377 855.13 63.4427 864.626 58.3247C868.708 56.1247 873.152 53.5347 874.5 52.5687C878.038 50.0347 878.952 50.8247 879.294 56.7107ZM855.09 75.3247C861.711 86.0667 861.408 86.5727 847.76 87.5377C839.931 88.0907 839.209 87.9607 832.954 84.8817C828.588 82.7317 826.481 81.1337 826.684 80.1247C827.072 78.1957 846.351 67.7257 848.883 68.0687C850.007 68.2207 852.527 71.1667 855.09 75.3247ZM-5.00983 78.8247C-5.34983 79.3747 -5.15082 79.8247 -4.56882 79.8247C-3.98682 79.8247 -3.50983 79.3747 -3.50983 78.8247C-3.50983 78.2747 -3.70783 77.8247 -3.95083 77.8247C-4.19383 77.8247 -4.66983 78.2747 -5.00983 78.8247ZM550.473 180.37C549.401 183.188 545.981 198.669 544.155 208.968L542.976 215.612L527.451 226.968C508.911 240.53 501.168 245.829 499.917 245.813C499.407 245.806 497.973 244.231 496.731 242.313C494.273 238.518 492.49 237.798 492.49 240.601C492.49 242.599 504.149 259.825 505.501 259.825C507.629 259.825 507.482 257.412 505.14 253.872C502.371 249.688 502.398 249.616 508.142 245.767C509.326 244.974 513.007 242.215 516.322 239.637C526.553 231.68 526.65 231.653 541.219 232.806C548.243 233.362 558.265 234.296 563.49 234.881C574.765 236.144 583.267 236.381 584.191 235.458C585.946 233.702 581.565 232.425 571.276 231.693C565.069 231.252 559.09 230.681 557.99 230.425C556.89 230.169 551.265 229.655 545.49 229.282C539.715 228.91 534.609 228.252 534.144 227.819C533.678 227.386 536.994 224.285 541.512 220.929L549.728 214.825L561.859 214.696C581.422 214.488 585.035 214.041 583.076 212.075C582.665 211.662 576.74 211.176 569.91 210.993C562.826 210.804 557.49 210.247 557.49 209.697C557.49 209.166 558.897 207.965 560.616 207.028C562.335 206.092 564.967 204.33 566.464 203.114C568.758 201.25 570.883 200.473 577.74 198.987C578.153 198.898 578.94 198.825 579.49 198.825C580.04 198.825 580.49 198.343 580.49 197.753C580.49 197.164 579.477 196.764 578.24 196.864C573.362 197.259 573.049 196.894 575.803 194.02C579.303 190.367 579.21 189.401 575.54 191.299C571.712 193.279 571.505 193.243 571.411 190.575C571.353 188.93 570.689 189.669 568.941 193.322C567.092 197.186 564.9 199.516 559.27 203.6C547.823 211.903 547.463 212.131 546.81 211.478C546.47 211.139 548.066 204.665 550.357 197.093C552.647 189.521 554.514 182.087 554.505 180.575C554.486 177.029 551.795 176.892 550.473 180.37ZM523.734 199.575C522.1 205.983 518.444 224.596 518.086 228.325C518.033 228.875 518.598 229.325 519.341 229.325C521.109 229.325 523.69 221.598 528.497 201.918C530.457 193.894 530.251 191.825 527.493 191.825C526.105 191.825 525.271 193.544 523.734 199.575ZM817.275 213.971C817.067 214.595 820.067 218.319 823.943 222.246C830.398 228.786 835.632 237.016 834.229 238.419C833.913 238.735 831.706 239.242 829.323 239.547C826.94 239.851 823.64 240.826 821.99 241.713C818.991 243.324 818.994 243.325 827.49 243.825L835.99 244.325L836.286 251.682C836.61 259.748 834.268 268.816 829.871 276.513C828.289 279.281 827.845 280.926 828.558 281.367C830.518 282.578 834.123 277.895 838.044 269.046C841.355 261.573 841.964 259.073 842.298 251.575C842.733 241.842 841.972 242.658 850.924 242.327C852.538 242.267 854.02 241.735 854.217 241.145C854.699 239.699 851.992 238.623 846.086 237.914C841.333 237.343 841.087 237.149 838.086 231.615C836.383 228.474 833.19 224.168 830.99 222.046C825.986 217.218 817.799 212.398 817.275 213.971ZM320.274 310.972C320.064 311.603 320.231 314.866 320.647 318.222C324.68 350.837 314.583 380.145 303.414 368.241C301.315 366.003 300.99 364.698 300.99 358.491C300.99 351.688 300.868 351.308 298.591 350.986C297.271 350.799 295.215 351.17 294.021 351.809C292.143 352.813 291.023 352.421 285.719 348.898C279.201 344.568 277.604 344.111 275.69 346.025C273.73 347.985 274.314 352.669 277.114 357.447C279.221 361.042 279.64 362.799 279.239 366.356C278.928 369.118 279.185 371.157 279.92 371.767C280.569 372.306 284.035 372.827 287.622 372.926C293.768 373.095 294.271 373.292 296.365 376.348C299.488 380.905 298.463 383.644 291.148 390.297C287.761 393.377 283.252 397.507 281.127 399.474C277.619 402.722 276.932 402.976 273.627 402.246C267.006 400.782 252.639 401.458 248.126 403.446C243 405.703 234.2 413.087 232.379 416.658C231.631 418.125 230.236 420.45 229.279 421.825C226.12 426.363 224.183 436.559 224.802 445.393C225.421 454.229 226.175 456.503 231.337 465.099C239.527 478.738 260.128 487.448 275.628 483.825C291.868 480.028 301.643 470.138 306.269 452.825C307.55 448.027 307.618 443.523 306.52 436.144C304.807 424.627 300.151 416.837 291.688 411.325C288.31 409.125 285.533 406.776 285.518 406.106C285.463 403.733 289.745 396.768 292.614 394.562C294.214 393.332 296.818 391.313 298.401 390.075C299.984 388.837 301.537 387.825 301.854 387.825C302.17 387.825 304.001 390.283 305.923 393.287C307.845 396.292 310.954 399.779 312.834 401.037C314.713 402.296 320.785 406.594 326.328 410.59C331.871 414.586 336.997 418.082 337.721 418.36C339.733 419.132 342.112 425.519 343.48 433.825C345.712 447.368 346.555 448.299 366.188 458.899C374.258 463.255 374.411 463.294 375.935 461.325C377.39 459.446 377.228 459.103 373.237 455.636C370.901 453.607 365.39 449.557 360.99 446.636L352.99 441.325L353.333 431.325C353.521 425.825 354.015 420.966 354.43 420.528C355.496 419.402 371.827 421.531 378.99 423.731C382.29 424.744 388.797 426.077 393.45 426.692L401.909 427.811L405.23 424.593C410.483 419.501 409.429 418.338 399.476 418.25C394.538 418.207 387.436 417.308 382.49 416.1C377.815 414.959 371.786 413.513 369.092 412.887C366.398 412.262 362.953 410.867 361.437 409.788C359.922 408.708 358.327 407.825 357.894 407.825C354.823 407.825 341.414 398.026 331.99 388.896C325.94 383.034 319.941 377.578 318.659 376.772L316.327 375.305L319.874 368.315C326.196 355.857 327.526 350.128 327.033 337.48C326.525 324.43 325.565 315.232 324.382 312.075C323.496 309.708 320.926 309.018 320.274 310.972ZM62.0682 323.075C61.8152 324.313 61.3252 329.375 60.9802 334.325C60.6352 339.275 60.1382 344.9 59.8762 346.825C59.6132 348.75 59.0822 354.789 58.6942 360.244C58.3072 365.7 57.5402 370.294 56.9902 370.453C56.4402 370.613 54.7732 369.074 53.2852 367.034C51.7972 364.994 49.2482 361.525 47.6222 359.325C44.6992 355.373 44.6572 355.129 44.0892 338.92C43.7722 329.897 43.2592 322.26 42.9472 321.949C41.4152 320.417 40.5192 325.393 40.5052 335.516C40.4972 341.671 40.0632 346.971 39.5412 347.294C37.9192 348.296 30.3732 335.772 29.1852 330.105C27.9922 324.417 26.4902 323.053 26.4902 327.658C26.4902 331.665 25.7272 331.971 22.8692 329.113C19.8422 326.086 18.7082 326.702 20.9642 330.146C22.5962 332.636 21.6562 334.664 19.4902 333.325C18.9402 332.985 18.4902 333.139 18.4902 333.667C18.4902 334.195 20.5092 335.459 22.9772 336.476C26.3832 337.879 28.6062 339.891 32.2032 344.825C34.8102 348.4 37.5192 351.923 38.2232 352.653C39.9202 354.414 41.7552 357.894 41.2512 358.397C41.0312 358.618 37.7322 357.893 33.9202 356.787C11.2742 350.215 7.49018 349.579 7.49018 352.35C7.49018 353.188 8.50618 354.261 9.74818 354.733C12.3012 355.703 37.4702 360.886 41.8482 361.343C45.2992 361.703 44.1602 360.499 56.0332 376.325C72.5802 398.38 76.8662 404.966 75.3362 405.985C74.5962 406.478 72.7522 407.641 71.2402 408.569C68.1442 410.468 67.7812 411.616 70.0042 412.469C70.9062 412.815 74.3012 411.02 78.4032 408.027C82.1902 405.264 86.2332 402.498 87.3892 401.879C89.9352 400.517 90.1702 397.816 87.7402 397.847C86.7772 397.859 84.8652 398.749 83.4902 399.825C80.0702 402.5 79.2182 402.335 77.0312 398.575C75.9912 396.787 74.8292 395.1 74.4482 394.825C72.9152 393.718 63.2512 380.327 62.4342 378.177C61.6612 376.144 62.6512 357.887 65.1252 328.575C65.6952 321.819 65.5702 320.825 64.1532 320.825C63.2592 320.825 62.3212 321.837 62.0682 323.075ZM22.7402 375.542C19.8632 376.577 21.5462 379.404 25.7402 380.581C33.2582 382.691 56.8212 386.912 58.1772 386.392C60.2202 385.608 59.7252 384.11 57.2402 383.561C56.0022 383.287 49.5902 381.495 42.9902 379.578C30.3382 375.904 24.8022 374.801 22.7402 375.542ZM675.49 405.757C675.49 406.951 678.835 410.542 684.24 415.153C693.754 423.269 700.104 429.561 699.422 430.198C699.184 430.42 694.94 430.91 689.99 431.287L680.99 431.972L670.99 426.762C665.49 423.897 659.796 420.714 658.336 419.689C655.009 417.353 654.49 417.358 654.49 419.723C654.49 420.99 657.141 423.366 662.46 426.867C670.548 432.189 671.529 433.811 666.681 433.842C665.201 433.852 659.944 434.71 654.999 435.75L646.007 437.641L638.999 434.829C635.144 433.282 630.482 431.45 628.639 430.758C626.796 430.065 623.759 428.461 621.89 427.193C618.709 425.034 615.49 424.904 615.49 426.935C615.49 427.428 619.653 429.809 624.74 432.228C629.827 434.646 634.803 437.245 635.797 438.003C637.465 439.275 637.31 439.481 633.797 440.672C631.703 441.381 627.323 443.117 624.063 444.529C618.364 446.997 617.624 447.072 604.9 446.453C597.62 446.099 590.215 445.52 588.443 445.166C585.938 444.665 585.326 444.833 585.687 445.923C586.021 446.928 589.304 447.609 597.273 448.327C603.39 448.878 608.886 449.821 609.488 450.423C610.28 451.215 609.535 452.306 606.786 454.374C599.457 459.889 593.62 465.227 594.089 465.986C594.35 466.407 597.217 464.734 600.46 462.268C605.749 458.245 618.326 451.425 627.568 447.567C632.338 445.576 638.49 444.521 638.49 445.694C638.49 446.222 636.007 449.932 632.973 453.937C629.938 457.943 627.604 461.666 627.785 462.21C628.674 464.877 630.87 463.291 636.121 456.192C641.75 448.58 647.975 441.825 649.361 441.825C649.746 441.825 655.152 440.895 661.375 439.758C667.598 438.622 672.867 437.869 673.083 438.085C673.3 438.301 672.268 440.919 670.79 443.902C667.444 450.656 666.827 461.045 669.736 461.623C670.952 461.865 671.307 461.511 670.903 460.459C669.77 457.507 672.499 448.27 675.623 444.48C680.148 438.991 686.47 436.212 696.152 435.457C707.533 434.569 708.396 435.08 703.907 440.048C698.55 445.978 695.511 453.216 695.5 460.075C695.493 464.263 695.86 465.825 696.851 465.825C697.784 465.825 698.379 463.984 698.742 459.977C699.849 447.773 712.016 435.825 723.336 435.825C727.348 435.825 739.531 441.562 746.224 446.603C750.347 449.707 753.49 454.779 753.49 458.327C753.49 462.075 751.381 468.876 750.406 468.273C749.973 468.006 748.523 465.392 747.183 462.465C743.006 453.341 735.238 449.895 729.982 454.833C726.332 458.261 726.546 463.727 730.483 467.664C740.726 477.908 735.093 490.325 715.708 500.232C704.18 506.124 683.706 507.735 670.99 503.752C667.14 502.546 662.64 501.507 660.99 501.442C659.34 501.378 657.54 500.777 656.99 500.108C656.44 499.439 653.515 498.211 650.49 497.38C647.465 496.549 641.165 494.662 636.49 493.186C620.436 488.12 600.558 490.012 590.619 497.553C588.712 499 586.152 502.506 584.725 505.624C580.839 514.11 580.761 521.311 584.321 542.825C586.004 553 587.676 563.35 588.036 565.825C588.396 568.3 588.831 571.225 589.002 572.325C589.173 573.425 589.855 578.15 590.518 582.825C591.758 591.566 592.991 595.251 594.387 594.389C595.213 593.878 594.677 590.246 592.016 578.325C591.156 574.475 590.258 570.425 590.019 569.325C589.385 566.411 588.499 559.196 587.93 552.325C587.657 549.025 586.977 543.442 586.418 539.919C585.859 536.396 585.784 533.131 586.251 532.664C586.899 532.016 595.73 534.147 597.255 535.318C598.04 535.921 600.503 547.763 601.937 557.825C605.298 581.405 608.688 597.825 610.195 597.825C611.089 597.825 611.429 597.169 611.103 596.075C610.667 594.612 608.201 581.553 606.997 574.325C606.813 573.225 605.187 564.305 603.383 554.504C600.759 540.247 600.363 536.522 601.401 535.88C604.024 534.259 621.223 531.511 628.99 531.472C636.698 531.434 637.319 531.611 645.99 536.307C656.419 541.956 661.833 545.497 669.49 551.68C676.083 557.003 676.215 557.18 677.625 562.592C679.088 568.212 680.624 569.039 679.973 563.857C679.391 559.22 679.85 558.846 686.503 558.53L690.843 558.325L692.053 564.325C692.718 567.625 694.456 575.725 695.914 582.325C698.675 594.822 699.291 597.778 699.416 599.134C699.457 599.579 699.929 599.672 700.465 599.341C701.79 598.522 700.568 589.726 698.853 587.744C698.101 586.874 697.716 585.932 697.997 585.651C698.452 585.196 696.139 573.045 693.589 562.489C692.519 558.062 692.724 557.787 702.079 551.099C705.33 548.775 714.422 540.351 722.282 532.381C744.382 509.973 746.036 508.914 761.177 507.464C764.374 507.158 771.04 506.821 775.99 506.716C786.603 506.492 790.879 505.017 792.24 501.113C794.243 495.367 791.589 492.83 775.49 485.103C770.815 482.858 765.19 480.47 762.99 479.796C753.075 476.755 753.258 477.144 757.024 467.139C761.243 455.93 761.795 455.678 776.025 458.474C783.915 460.025 784.693 460.019 788.966 458.387C791.467 457.432 793.994 455.752 794.582 454.652C795.945 452.106 795.177 451.281 793.244 453.214C789.738 456.72 780.801 456.599 771.99 452.925C770.321 452.229 767.437 451.935 765.49 452.263C763.565 452.586 761.29 452.958 760.434 453.088C759.577 453.218 756.856 450.857 754.387 447.842C749.034 441.305 743.937 437.587 736.49 434.785C731.158 432.78 730.837 432.439 725.99 423.618C717.76 408.642 717.043 407.483 715.74 407.062C713.743 406.417 714.276 409.182 717.36 415.472C720.875 422.641 722.904 428.744 722.054 429.594C721.026 430.622 714.376 429.896 708.99 428.167C704.684 426.784 698.812 422.924 694.265 418.488C691.518 415.808 676.672 403.825 676.098 403.825C675.764 403.825 675.49 404.694 675.49 405.757ZM269.297 406.961C271.878 407.586 274.401 408.469 274.903 408.924C276.059 409.971 258.698 427.835 256.559 427.798C254.105 427.756 241.016 415.402 241.903 413.966C242.553 412.914 251.922 408.128 256.49 406.513C259.085 405.596 264.43 405.783 269.297 406.961ZM290.109 418.094C292.879 421.155 293.394 422.375 292.852 424.594C292.2 427.266 277.087 444.825 275.439 444.825C273.932 444.825 262.49 433.644 262.49 432.172C262.49 431.382 266.561 426.527 271.536 421.384C280.454 412.166 280.626 412.05 283.64 413.179C285.322 413.809 288.233 416.021 290.109 418.094ZM245.063 426.503C248.598 429.625 251.484 432.663 251.477 433.253C251.457 434.98 233.725 453.088 232.684 452.445C231.076 451.451 229.392 442.885 230.042 439.005C231.573 429.864 235.14 420.825 237.215 420.825C237.997 420.825 241.528 423.38 245.063 426.503ZM300.613 432.899C301.757 436.993 301.473 450.055 300.129 455.153C298.721 460.491 296.998 462.167 294.365 460.758C291.677 459.319 281.49 449.339 281.49 448.143C281.49 446.481 297.644 429.71 298.856 430.114C299.449 430.311 300.24 431.565 300.613 432.899ZM266.266 444.919L271.358 449.512L269.539 452.419C266.658 457.019 251.933 471.476 249.472 472.119C247.741 472.572 246.036 471.563 241.866 467.619C238.909 464.823 236.49 461.665 236.49 460.603C236.49 459.489 240.911 454.206 246.918 448.141C258.7 436.244 256.97 436.532 266.266 444.919ZM286.505 461.637L292.99 467.63L289.99 470.808C284.669 476.445 276.521 479.177 265.308 479.083C255.397 479.001 254.376 477.788 259.74 472.467C261.528 470.695 266.057 465.775 269.805 461.534C277.646 452.662 276.788 452.657 286.505 461.637ZM738.292 456.223C742.289 458.29 744.166 460.798 745.479 465.825C746.435 469.487 750.965 478.825 751.786 478.825C753.914 478.825 773.582 486.861 779.952 490.333C790.126 495.879 791.762 498.032 788.342 501.374C786.136 503.531 784.979 503.707 769.715 504.204C746.057 504.976 742.466 506.757 721.909 527.925C706.501 543.79 703.69 546.401 697.605 550.491C693.101 553.519 691.12 554.19 685.501 554.592C679.124 555.048 678.506 554.893 673.386 551.544C670.418 549.604 666.306 546.474 664.248 544.589C659.684 540.41 638.561 528.873 634.169 528.161C632.42 527.877 624.465 528.655 616.49 529.889C608.515 531.123 600.216 532.047 598.048 531.941C593.103 531.699 585.68 528.483 584.804 526.202C583.588 523.032 586.452 510.567 589.798 504.469C592.975 498.68 593.18 498.519 601.012 495.725C611.563 491.961 619.969 491.872 631.541 495.403C636.188 496.821 642.915 498.686 646.49 499.547C650.065 500.409 657.074 502.372 662.066 503.91C678.05 508.834 686.557 509.586 701.891 507.433C712.349 505.965 728.49 497.969 728.49 494.257C728.49 493.469 729.077 492.825 729.794 492.825C731.638 492.825 737.165 486.862 738.429 483.51C740.21 478.784 739.637 475.421 736.256 470.772C734.477 468.326 732.691 466.18 732.287 466.002C731.884 465.825 731.261 464.119 730.903 462.212C730.418 459.629 730.704 458.246 732.026 456.785C734.138 454.451 734.759 454.396 738.292 456.223ZM757.99 487.825C758.33 488.375 759.031 488.825 759.549 488.825C760.067 488.825 760.49 488.375 760.49 487.825C760.49 487.275 759.788 486.825 758.931 486.825C758.074 486.825 757.65 487.275 757.99 487.825ZM679.606 570.499C679.542 571.694 679.939 574.844 680.489 577.499C682.357 586.527 686.404 609.312 686.763 612.824C687.009 615.231 687.687 616.432 688.933 616.672C691.065 617.082 691.248 618.534 686.047 593.825C684.02 584.2 681.964 575.425 681.478 574.325C680.991 573.225 680.397 571.425 680.158 570.325C679.755 568.479 679.713 568.492 679.606 570.499ZM75.4632 593.54C74.1032 594.483 72.1182 596.058 71.0512 597.04C68.7192 599.188 68.4582 599.195 61.4902 597.325C58.4652 596.513 53.7092 595.843 50.9222 595.837C44.5422 595.822 35.4902 598.432 35.4902 600.287C35.4902 601.392 36.9932 601.557 42.9632 601.106C50.8142 600.512 61.7142 602.186 63.4262 604.248C64.0692 605.022 63.4482 606.868 61.5392 609.863C58.3112 614.925 56.9032 618.825 58.3012 618.825C58.8212 618.825 61.3622 616.35 63.9462 613.325C66.5302 610.3 69.0592 607.825 69.5662 607.825C70.0732 607.825 72.9302 610.187 75.9142 613.075C81.4832 618.462 87.9452 629.492 89.0972 635.575C90.0042 640.363 92.4902 639.801 92.4902 634.809C92.4902 628.587 84.9322 613.458 78.7742 607.351L73.7582 602.378L76.2572 598.601C77.6312 596.524 79.1462 594.825 79.6232 594.825C80.1002 594.825 80.4902 594.15 80.4902 593.325C80.4902 591.341 78.5102 591.426 75.4632 593.54ZM701.284 608.684C702.047 612.887 702.705 616.888 702.747 617.575C702.832 618.966 704.108 619.252 704.853 618.046C705.118 617.618 704.672 614.356 703.862 610.796C703.053 607.237 702.338 603.782 702.273 603.118C702.209 602.454 701.648 601.716 701.027 601.478C700.221 601.168 700.294 603.231 701.284 608.684ZM363.49 676.295C363.49 677.104 364.84 678.763 366.49 679.983C368.14 681.203 369.49 682.728 369.49 683.373C369.49 684.894 356.145 704.923 353.592 707.233C352.516 708.206 350.141 709.387 348.313 709.857C346.485 710.326 337.34 712.768 327.99 715.283C318.64 717.798 308.74 720.352 305.99 720.957C303.24 721.563 300.428 722.511 299.74 723.064C297.391 724.954 298.469 726.038 302.24 725.578C305.871 725.134 343.178 715.649 346.886 714.226C348.452 713.626 348.614 713.875 347.99 715.924C347.589 717.244 346.473 719.225 345.51 720.325C344.548 721.425 342.555 724.424 341.081 726.989C338.55 731.392 337.859 731.857 328.695 735.309C308.459 742.932 306.49 743.791 306.49 744.994C306.49 746.543 309.962 745.858 320.749 742.179C326.666 740.16 331.76 738.761 332.068 739.07C333.348 740.35 323.192 752.401 318.912 754.681C316.48 755.977 314.49 757.44 314.49 757.931C314.49 759.024 314.303 759.026 318.247 757.895C320.03 757.383 321.49 757.103 321.49 757.273C321.49 757.442 320.809 759.211 319.977 761.203C318.334 765.133 319.176 766.035 321.49 762.825C323.206 760.444 325.49 760.192 325.49 762.384C325.49 763.241 325.94 763.665 326.49 763.325C327.04 762.985 327.49 760.658 327.49 758.153C327.49 754.201 328.367 752.292 334.135 743.682C337.79 738.227 341.165 733.526 341.635 733.235C342.105 732.945 342.545 734.871 342.613 737.516C342.79 744.436 343.264 752.265 344.01 760.575C344.571 766.824 344.925 767.825 346.575 767.825C348.835 767.825 349.012 764.72 347.432 752.825C346.884 748.7 346.204 743.3 345.919 740.825C345.635 738.35 344.941 734.872 344.376 733.096C343.395 730.011 343.832 729.143 354.197 713.596C365.756 696.258 373.223 685.825 374.075 685.825C374.361 685.825 376.243 686.944 378.256 688.312C382.141 690.952 384.955 690.295 382.489 687.324C380.826 685.32 365.645 674.825 364.41 674.825C363.904 674.825 363.49 675.487 363.49 676.295ZM360.405 708.575C360.13 710.99 360.681 721.913 361.601 732.325C362.356 740.858 363.099 744.666 364.174 745.506C367.316 747.963 368.092 746.134 367.341 738.051C366.48 728.797 363.603 709.816 362.884 708.653C362.245 707.62 360.519 707.566 360.405 708.575ZM512.269 720.802C506.061 724.956 501.482 731.981 498.639 741.713C496.847 747.848 492.08 767.088 490.931 772.825C490.655 774.2 489.766 778.475 488.954 782.325C485.872 796.946 485.29 803.678 485.699 820.013C486.104 836.238 486.183 836.758 488.553 838.73C489.893 839.846 491.756 840.773 492.693 840.792C493.63 840.81 495.522 841.338 496.898 841.965C498.807 842.835 500.121 842.806 502.445 841.844C506.013 840.366 506.231 838.665 503.864 830.757C501.072 821.426 501.705 807.094 505.209 800.302C505.771 799.215 507.231 796.075 508.454 793.325C511.475 786.533 516.591 779.894 518.833 779.856C520.459 779.829 520.612 780.44 520.139 785.075C519.626 790.098 516.599 809.339 514.829 818.825C513.792 824.384 514.235 841.035 515.553 846.002C516.609 849.986 521.515 854.825 524.499 854.825C528.04 854.825 530.488 849.672 530.511 842.171C530.546 830.745 535.829 791.413 537.596 789.421C538.391 788.525 542.437 791.196 547.59 796.018C552.148 800.284 564.793 810.248 570.825 814.328C577.802 819.047 578.921 820.837 577.921 825.68C576.894 830.656 576.971 830.257 573.971 846.179C572.506 853.959 570.216 865.558 568.883 871.955C567.551 878.351 566.74 884.314 567.082 885.205C569.225 890.788 579.983 881.071 582.815 870.996C583.692 867.877 584.932 862.85 585.572 859.825C587.069 852.743 593.112 836.9 595.193 834.601C599.005 830.388 601.007 834.061 599.35 842.229C598.132 848.234 595.243 861.858 593.391 870.325C592.67 873.625 591.994 877 591.891 877.825C591.787 878.65 591.226 881.35 590.645 883.825C589.016 890.765 591.792 893.589 598.658 891.982C599.493 891.786 602.927 881.153 604.522 873.825C608.164 857.094 613.541 845.896 618.722 844.251C621.982 843.217 627.085 849.151 630.459 857.9C633.508 865.807 639.085 886.039 639.663 891.293C639.923 893.656 640.641 894.447 643.184 895.172C644.94 895.672 647.105 895.803 647.995 895.462C650.272 894.588 656.507 880.614 661.446 865.313C663.751 858.17 666.269 850.869 667.041 849.09C668.465 845.804 676.996 838.866 685.49 834.084C705.964 822.56 705.532 819.525 683.754 821.896C677.284 822.6 669.976 823.21 667.514 823.251C663.062 823.325 663.034 823.303 662.314 819.325C661.916 817.125 661.316 810.389 660.98 804.355C660.382 793.598 659.554 790.825 656.939 790.825C654.551 790.825 652.975 793.428 650.071 802.167C648.489 806.929 646.866 810.825 646.465 810.825C645.24 810.825 643.907 808.524 642.701 804.325C635.633 779.723 633.619 774.709 627.363 766.143C617.301 752.367 606.846 745.558 573.24 730.897C570.628 729.758 566.577 727.983 564.24 726.953C556.707 723.636 547.24 720.912 536.49 718.967C521.778 716.307 518.631 716.545 512.269 720.802ZM865.586 761.775C865.511 765.236 865.223 765.958 864.29 765.025C862.927 763.662 861.49 763.445 861.49 764.602C861.49 765.03 862.86 766.879 864.534 768.712C867.023 771.437 867.943 773.869 869.587 782.069C872.874 798.467 872.749 798.539 860.49 787.257C848.604 776.319 846.018 774.38 844.534 775.298C842.719 776.419 843.396 778.6 846.24 780.796C847.753 781.964 853.538 786.448 859.098 790.761C864.657 795.074 870.114 799.089 871.224 799.683C872.894 800.576 873.797 803.662 876.449 817.544C879.765 834.904 882.442 850.443 882.473 852.514C882.482 853.168 880.459 854.007 877.978 854.379C873.01 855.124 871.62 856.239 873.997 857.569C874.925 858.088 879.647 857.791 885.765 856.828C894.147 855.509 896.047 854.889 896.337 853.381C896.651 851.75 896.162 851.602 892.017 852.069C887.908 852.532 887.245 852.338 886.533 850.46C885.753 848.404 883.313 835.918 881.959 827.051C881.18 821.952 881.367 821.562 897.811 793.97C908.077 776.745 910.564 770.967 907.233 772.077C906.677 772.263 903.695 776.694 900.606 781.926C886.654 805.556 880.941 814.819 880.319 814.822C879.951 814.824 879.362 813.363 879.012 811.575C878.662 809.787 877.711 805.535 876.899 802.126C875.227 795.107 875.264 794.979 884.983 774.488C892.519 758.596 888.071 760.454 879.984 776.575C875.726 785.062 873.521 787.771 873.47 784.575C873.459 783.888 873.011 780.288 872.475 776.577C871.703 771.239 871.808 768.94 872.98 765.577C874.7 760.638 874.795 759.825 873.651 759.825C873.189 759.825 872.298 760.95 871.672 762.325C870.127 765.717 869.28 765.472 867.336 761.07L865.682 757.325L865.586 761.775ZM72.9902 763.539C71.3402 763.767 67.2292 764.581 63.8542 765.348C46.5722 769.278 21.5152 786.318 28.8692 789.14C29.6352 789.434 31.7472 788.109 33.6192 786.158C36.7292 782.918 46.4442 775.825 47.7702 775.825C48.0862 775.825 51.6732 774.287 55.7412 772.408C74.7432 763.631 97.3612 764.995 118.99 776.222C126.646 780.196 127.97 781.452 126.902 783.728C126.008 785.636 125.846 785.627 118.49 783.263C112.255 781.258 108.921 780.85 98.7222 780.838C78.2662 780.816 65.7992 785.135 53.5282 796.496C46.7912 802.733 41.8162 809.817 43.2002 811.201C44.7262 812.727 46.3912 811.423 50.0592 805.83C52.2212 802.533 54.2432 799.833 54.5512 799.83C54.8602 799.827 56.0262 798.974 57.1432 797.934C61.2022 794.152 72.9822 788.647 82.3762 786.14C90.8792 783.871 93.1572 783.649 102.091 784.222C107.854 784.591 114.51 785.688 117.591 786.777L122.99 788.685L123.096 796.505C123.154 800.806 123.331 811.975 123.489 821.325C123.726 835.311 123.478 839.123 122.094 842.825C119.462 849.866 115.931 854.483 110.938 857.409C106.797 859.835 105.672 860.046 99.6032 859.538C93.1012 858.993 89.4042 858.03 69.9902 851.823C59.2782 848.399 50.3702 846.843 41.4222 846.833C34.6092 846.825 25.0982 849.071 22.4902 851.304C21.6652 852.01 19.9852 852.895 18.7562 853.269C16.3202 854.011 10.6202 860.552 8.24918 865.325C4.07718 873.722 3.69317 884.499 7.27117 892.736C9.07317 896.883 15.2382 902.473 19.0712 903.435C20.6192 903.823 22.2762 906 24.3842 910.412C26.0692 913.939 27.8322 916.825 28.3022 916.825C30.3102 916.825 30.2642 915.304 28.1242 910.953C25.7752 906.175 25.6862 902.825 27.9102 902.825C28.6102 902.825 30.6402 902.098 32.4212 901.21C36.1232 899.363 36.5512 899.666 38.9222 905.825C39.8752 908.3 41.2632 911.675 42.0082 913.325C42.7522 914.975 44.7832 919.475 46.5212 923.325C48.2592 927.175 51.8812 935.681 54.5702 942.227C61.1522 958.25 62.2682 959.886 65.3052 957.96C66.3382 957.306 65.9082 955.644 63.3052 950.226C61.4822 946.43 59.7182 943.1 59.3852 942.825C59.0522 942.55 58.2092 940.574 57.5102 938.433C56.3412 934.847 50.8742 922.898 48.3552 918.425C46.3292 914.825 40.4902 900.645 40.4902 899.323C40.4902 898.326 41.1692 898.222 43.2402 898.902C44.7522 899.399 52.5152 901.348 60.4902 903.234C68.4652 905.12 81.7402 908.268 89.9902 910.23C98.2402 912.191 109.342 914.685 114.66 915.772C119.979 916.858 125.518 918.045 126.968 918.409C129.121 918.949 130.488 920.929 134.414 929.198C137.059 934.768 139.549 940.37 139.947 941.647C140.345 942.925 142.367 947.425 144.44 951.647C146.513 955.87 148.757 961.013 149.427 963.075C150.391 966.041 151.151 966.825 153.068 966.825C156.121 966.825 156.098 966.166 152.849 960.351C151.396 957.752 150.145 954.883 150.068 953.975C149.991 953.068 148.619 949.85 147.019 946.825C145.419 943.8 143.995 940.658 143.854 939.843C143.714 939.028 143.124 938.203 142.544 938.01C141.965 937.817 141.49 937 141.49 936.196C141.49 935.392 140.365 932.62 138.99 930.037C137.615 927.454 136.49 924.55 136.49 923.583C136.49 922.616 136.082 921.825 135.584 921.825C133.471 921.825 136.082 917.409 139.777 914.732L143.781 911.832L144.955 914.078C147.637 919.21 155.905 933.435 157.014 934.825C157.671 935.65 159.553 938.813 161.195 941.854C165.017 948.934 172.418 960.895 174.143 962.782C175.171 963.907 175.747 963.968 176.663 963.052C177.579 962.136 177.546 961.298 176.519 959.379C175.787 958.012 174.843 957.107 174.421 957.368C173.998 957.629 173.355 956.485 172.99 954.825C172.625 953.165 171.919 952.06 171.42 952.368C170.921 952.677 170.763 952.277 171.069 951.481C171.374 950.684 170.755 949.423 169.692 948.679C168.629 947.934 167.693 946.875 167.612 946.325C167.192 943.451 166.199 941.825 164.864 941.825C164.043 941.825 163.628 941.411 163.94 940.906C164.253 940.4 163.942 939.377 163.249 938.632C162.557 937.887 161.851 936.645 161.68 935.871C161.51 935.098 160.385 933.093 159.18 931.416C156.505 927.692 155.381 925.758 152.152 919.325C150.772 916.575 148.708 913.331 147.566 912.117C145.118 909.513 145.047 908.993 146.86 906.904C149.876 903.43 153.254 895.941 154.968 888.933C157.265 879.535 156.63 867.343 152.931 849.825C148.821 830.365 148.718 829.781 147.986 821.792C147.203 813.249 148.477 806.921 151.837 802.664C153.743 800.25 158.815 796.408 175.679 784.606C182.004 780.18 183.42 775.136 179.127 772.323C176.694 770.729 176.766 770.726 153.49 773.383C143.489 774.524 140.797 775.017 136.478 776.5L131.966 778.049L125.434 774.458C109.543 765.723 88.6612 761.376 72.9902 763.539ZM174.158 776.403C174.491 777.271 173.883 779.161 172.806 780.603C171.088 782.905 167.67 785.534 152.49 796.228C145.177 801.38 144.163 803.225 143.69 812.237C143.161 822.322 144.701 834.76 148.284 849.325C150.593 858.713 150.97 862.253 150.851 873.481C150.693 888.531 149.463 893.462 143.613 902.514C135.06 915.746 133.213 916.348 114.844 911.886C79.3422 903.262 73.0322 901.832 70.2842 901.789C69.0232 901.769 62.8152 899.942 56.4902 897.729C40.7802 892.233 41.7962 892.323 34.1442 895.756C26.2012 899.32 21.9122 899.591 16.5762 896.869C12.6002 894.841 10.3492 890.923 8.98718 883.659C7.71618 876.887 12.3982 864.523 17.7902 860.41C25.4652 854.555 30.1182 852.859 40.2902 852.205C51.4802 851.486 61.2332 853.233 80.5152 859.412C89.9652 862.44 93.5782 863.11 100.99 863.207C114.03 863.378 119.699 860.078 124.411 849.572C127.658 842.334 129.879 827.823 127.74 827.826C127.328 827.827 127.132 819.839 127.306 810.076C127.692 788.366 128.649 785.28 136.158 781.526C142.474 778.37 144.865 777.799 157.99 776.321C173.118 774.618 173.474 774.62 174.158 776.403ZM844.944 804.899C844.124 806.226 847.355 809.738 853.958 814.697C867.01 824.497 874.391 829.825 874.915 829.825C878.646 829.825 867.22 817.965 853.3 807.389C848.48 803.727 846.106 803.019 844.944 804.899ZM385.275 948.971C385.067 949.595 388.067 953.319 391.943 957.246C398.398 963.786 403.632 972.016 402.229 973.419C401.913 973.735 399.706 974.242 397.323 974.547C394.94 974.851 391.64 975.826 389.99 976.713C386.991 978.324 386.994 978.325 395.49 978.825L403.99 979.325L404.286 986.682C404.61 994.748 402.268 1003.82 397.871 1011.51C396.289 1014.28 395.845 1015.93 396.558 1016.37C398.518 1017.58 402.123 1012.89 406.044 1004.05C409.355 996.573 409.964 994.073 410.298 986.575C410.733 976.842 409.972 977.658 418.924 977.327C420.538 977.267 422.02 976.735 422.217 976.145C422.699 974.699 419.992 973.623 414.086 972.914C409.333 972.343 409.087 972.149 406.086 966.615C404.383 963.474 401.19 959.168 398.99 957.046C393.986 952.218 385.799 947.398 385.275 948.971Z" fill="#1A5F4C"/>
<path opacity="0.1" fill-rule="evenodd" clip-rule="evenodd" d="M1710.53 1.27574C1709.56 2.44574 1709.96 3.65574 1712.57 7.52574C1714.36 10.1647 1716.44 12.9997 1717.2 13.8247C1721.34 18.3497 1727.51 27.3177 1727.12 28.2477C1726.87 28.8397 1725.69 31.7997 1724.49 34.8247C1723.29 37.8497 1721.69 41.7727 1720.93 43.5437L1719.55 46.7617L1710.88 42.7727C1706.11 40.5787 1700.08 37.2277 1697.49 35.3257C1694.9 33.4237 1690.13 30.8637 1686.89 29.6357C1683.64 28.4077 1680.5 26.7567 1679.9 25.9667C1678.6 24.2627 1675.44 24.8877 1670.76 27.7767C1666.39 30.4767 1667.4 32.4867 1673.55 33.3327C1676.8 33.7797 1681.1 35.6077 1686.23 38.7217C1690.5 41.3137 1695.45 44.1967 1697.24 45.1297C1699.03 46.0617 1701.8 47.5117 1703.4 48.3517C1707.37 50.4357 1723.65 67.6167 1726.21 72.4267C1727.36 74.5707 1730.11 79.8087 1732.34 84.0677C1734.56 88.3257 1737.46 93.2757 1738.79 95.0677C1740.11 96.8587 1741.48 98.8307 1741.82 99.4497C1742.17 100.069 1740.3 102.769 1737.68 105.45C1729.7 113.591 1724.84 120.476 1723.52 125.525C1722.83 128.165 1721.44 132.8 1720.43 135.825C1718.06 142.966 1715.38 157.381 1716.09 159.229C1716.4 160.022 1717.28 160.913 1718.05 161.21C1719.56 161.788 1720.41 159.193 1724.3 142.24C1728.06 125.861 1738.11 108.962 1745.14 107.198C1748.58 106.336 1752.33 108.26 1753.57 111.526C1754.38 113.67 1754.16 115.454 1752.55 119.891C1751.42 122.993 1750.49 126.219 1750.49 127.061C1750.49 128.837 1753.98 129.99 1757.04 129.223C1758.62 128.826 1759.84 129.593 1761.89 132.282C1765.25 136.687 1769.33 140.825 1770.31 140.825C1770.72 140.825 1772.05 140.124 1773.27 139.268C1775.79 137.505 1776.11 134.153 1774.4 127.389C1773.51 123.855 1773.6 122.507 1774.9 119.996C1775.78 118.306 1776.49 116.248 1776.49 115.421C1776.49 113.938 1768.63 109.822 1765.26 109.545C1764.17 109.455 1762.98 107.773 1762.01 104.941C1760.64 100.911 1760.65 100.309 1762.08 98.7287C1763.56 97.0947 1770.96 93.2767 1783.17 87.8507L1788.35 85.5487L1794.3 88.6437C1797.57 90.3457 1800.51 91.4687 1800.84 91.1387C1801.17 90.8097 1802.19 91.1597 1803.1 91.9187C1804.22 92.8477 1807.41 93.2867 1812.88 93.2637C1819.82 93.2337 1821.93 92.7847 1827.49 90.1567C1843.41 82.6287 1853.01 66.1227 1851.97 48.0547C1851.51 40.1387 1850.01 35.7787 1845.3 28.6827C1839.5 19.9257 1830.15 12.8617 1820.42 9.88274C1816.07 8.54874 1805.25 8.22574 1800.49 9.28874C1789.45 11.7577 1776.58 23.5167 1772.56 34.8247C1767.1 50.1887 1769.28 66.5877 1777.87 74.7707C1779.86 76.6667 1781.49 78.7127 1781.49 79.3177C1781.49 81.5857 1773.68 87.9317 1768.43 89.9257C1759.34 93.3827 1759.75 93.4137 1758.57 89.1717C1757.98 87.0557 1757.5 84.8127 1757.5 84.1867C1757.49 82.2237 1741.9 60.2297 1736.18 54.1187L1733.18 50.9127L1733.85 41.6187C1734.21 36.5067 1734.77 30.5247 1735.08 28.3247C1735.79 23.4327 1733.6 19.9177 1722.38 7.94474C1714.71 -0.253257 1712.72 -1.36726 1710.53 1.27574ZM1816.84 14.5117C1817.22 14.8897 1818.31 15.3027 1819.26 15.4287C1821.29 15.6987 1827.44 17.9877 1829.24 19.1417C1831.5 20.5907 1830.57 21.6577 1824.24 24.8517C1820.8 26.5877 1817.09 28.8177 1815.99 29.8077C1813.76 31.8197 1803.56 37.2867 1803.14 36.7007C1801.29 34.1407 1795.38 24.5847 1794.12 22.1057L1792.47 18.8857L1795.72 17.2037C1797.51 16.2787 1800.11 15.1787 1801.48 14.7587C1804.68 13.7867 1815.94 13.6057 1816.84 14.5117ZM1789.72 25.5747C1790.56 26.5377 1791.59 28.4497 1792.01 29.8247C1792.42 31.1997 1793.83 33.5967 1795.13 35.1517C1797.74 38.2747 1798.15 41.0417 1796.24 42.5967C1793.11 45.1457 1775.61 53.8197 1775.13 53.0567C1774.43 51.9247 1775.24 46.6027 1777.13 39.8247C1779.31 32.0277 1784.36 23.8247 1786.99 23.8247C1787.65 23.8247 1788.87 24.6117 1789.72 25.5747ZM1352.1 30.8567L1347.32 33.8887L1340.89 31.7167C1335.58 29.9247 1333.02 29.6397 1326.23 30.0877C1317.28 30.6767 1314.49 31.4127 1314.49 33.1817C1314.49 33.9437 1317.24 34.3387 1322.74 34.3657C1330.17 34.4027 1340.39 36.6337 1342.72 38.7237C1343.12 39.0837 1341.65 42.0137 1339.47 45.2357C1333.82 53.5507 1334.37 55.3147 1340.72 49.2867C1343.6 46.5577 1346.11 43.9867 1346.3 43.5747C1348.79 38.3137 1364.08 59.5137 1366 70.8837C1366.41 73.2967 1367.21 74.8247 1368.08 74.8247C1370.59 74.8247 1369.74 66.6967 1366.34 58.1977C1362.91 49.6107 1360.66 45.8507 1356.32 41.4557C1354.76 39.8787 1353.49 37.9807 1353.49 37.2397C1353.49 36.4977 1355.07 34.3167 1356.99 32.3917C1358.92 30.4667 1360.49 28.6517 1360.49 28.3577C1360.49 26.9187 1356.38 28.1427 1352.1 30.8567ZM1838.08 28.5897C1839.67 29.6587 1844.49 39.6597 1844.49 41.8927C1844.49 43.8017 1842.6 44.9937 1825.18 54.0367L1818.04 57.7477L1815.76 55.6117C1814.51 54.4377 1813.49 53.1007 1813.49 52.6417C1813.49 52.1827 1812.14 49.9387 1810.48 47.6547C1807.59 43.6627 1807.54 43.4247 1809.23 41.5537C1810.2 40.4827 1813.47 38.2677 1816.49 36.6327C1819.52 34.9967 1824.24 32.3827 1826.99 30.8237C1831.97 28.0017 1836 27.1897 1838.08 28.5897ZM1804.27 48.5747C1805.32 50.0877 1807.47 53.6517 1809.04 56.4957L1811.91 61.6667L1809.45 63.6547C1808.1 64.7477 1802.58 67.9827 1797.18 70.8437L1787.35 76.0447L1785.01 73.8477C1783.73 72.6387 1781.69 69.7767 1780.49 67.4877C1777.61 61.9947 1778.78 58.7237 1784.7 55.7527C1787.06 54.5677 1789.89 52.8017 1790.99 51.8277C1792.97 50.0747 1800.36 45.9547 1801.67 45.8687C1802.05 45.8447 1803.21 47.0617 1804.27 48.5747ZM964.318 48.4537C963.398 49.4827 961.077 53.7237 959.16 57.8787C956.451 63.7507 955.521 67.3137 954.981 73.8787C954.6 78.5237 954.098 82.6367 953.865 83.0177C953.456 83.6877 951.947 97.6267 949.016 127.802C948.243 135.764 947.819 142.487 948.074 142.742C949.606 144.275 951.408 139.076 952.378 130.325C954.632 109.974 958.299 81.2787 958.832 79.8247C959.134 78.9997 959.62 74.5427 959.912 69.9217C960.333 63.2487 960.854 61.1337 962.443 59.6537C964.405 57.8257 964.455 57.8387 965.079 60.3217C965.948 63.7867 963.066 95.1627 961.036 104.325C960.792 105.425 960.324 109.7 959.996 113.825C959.669 117.95 958.977 124.475 958.46 128.325C956.478 143.074 956.372 146.281 957.802 148.238C959.852 151.04 961.49 149.298 961.49 144.317C961.49 141.903 962.131 134.842 962.914 128.626C963.697 122.411 964.604 114.925 964.93 111.991C965.255 109.057 965.941 103.699 966.453 100.082C966.965 96.4657 967.329 93.2407 967.262 92.9157C967.195 92.5907 967.443 89.3997 967.813 85.8247C968.183 82.2497 968.672 77.1367 968.9 74.4627C969.128 71.7877 969.727 69.1877 970.231 68.6837C971.338 67.5767 986.146 74.7647 992.181 79.3387C997.674 83.5017 1002.15 89.2137 1009.03 100.825C1012.12 106.05 1016.37 113.205 1018.47 116.724C1020.57 120.244 1022.62 124.969 1023.03 127.224C1023.44 129.48 1023.92 132 1024.1 132.825C1024.56 134.905 1024.53 152.561 1024.06 156.825C1023.85 158.75 1023.36 165.05 1022.98 170.825C1022.61 176.6 1021.92 184.175 1021.46 187.659C1021 191.142 1020.86 194.63 1021.16 195.409C1021.93 197.42 1024.48 197.168 1024.53 195.075C1024.55 194.113 1024.77 191.75 1025.03 189.825C1027.91 168.139 1028.77 159.174 1029.19 146.825C1029.46 138.85 1030.05 131.935 1030.5 131.458C1030.96 130.98 1032.32 131.519 1033.55 132.662C1035.57 134.545 1035.75 135.572 1035.57 144.029C1035.46 149.142 1034.77 159.4 1034.03 166.825C1032.3 184.398 1032.04 202.428 1033.51 203.338C1035.25 204.41 1035.98 203.016 1036.08 198.492C1036.12 196.2 1036.49 189.825 1036.88 184.325C1037.28 178.825 1037.81 171.4 1038.05 167.825C1038.97 154.373 1040.61 136.279 1041.01 135.075C1041.24 134.388 1042.14 133.825 1043.02 133.825C1045.11 133.825 1071.06 126.786 1089.99 121.085C1110.24 114.986 1114.56 113.825 1117.03 113.825C1119.12 113.825 1133.38 119.487 1138.82 122.476C1141.48 123.94 1141.78 123.899 1144.07 121.753C1147.98 118.073 1147.18 115.732 1139.24 107.668C1135.25 103.619 1130.75 99.5127 1129.24 98.5427C1127.73 97.5727 1126.49 96.3607 1126.49 95.8497C1126.49 94.5627 1135.12 82.1687 1139.35 77.3817C1141.74 74.6757 1142.42 73.3007 1141.51 72.9987C1140.79 72.7567 1138.57 74.5287 1136.59 76.9377C1134.61 79.3467 1130.25 84.2007 1126.9 87.7257C1119.68 95.3167 1117.91 95.2547 1118.94 87.4467C1120.68 74.3447 1129.35 64.0527 1141.74 60.4027C1144.18 59.6847 1143.96 56.8247 1141.46 56.8247C1138.11 56.8247 1127.7 62.6177 1123.48 66.8307C1118.08 72.2327 1113.53 83.5237 1113.5 91.5957C1113.49 95.4887 1112.73 95.8937 1099.99 98.8597C1076.7 104.281 1069.13 105.75 1061.15 106.397C1053.92 106.984 1052.14 106.823 1049.94 105.382C1045.91 102.744 1041.91 98.0337 1036.73 89.8247C1030.52 79.9777 1029.51 78.7407 1019.96 69.3247C1007.62 57.1507 989.244 48.3887 973.49 47.1647C966.975 46.6587 965.77 46.8277 964.318 48.4537ZM979.285 50.8617C982.747 51.4227 989.433 53.6627 994.142 55.8387C1010.15 63.2337 1022.18 74.0067 1031.53 89.3247C1043.15 108.352 1046.72 111.752 1055.13 111.797C1062.2 111.835 1099.15 103.866 1113.08 99.2997C1118.77 97.4337 1123.37 98.7177 1129.72 103.943C1136.77 109.746 1142.49 115.572 1142.49 116.951C1142.49 118.561 1137.66 117.409 1129.64 113.889C1118.32 108.921 1116.33 108.764 1103.94 111.865C1092.77 114.661 1090.57 115.318 1070.49 121.879C1060.42 125.17 1050.19 128.29 1042.69 130.357C1041.43 130.705 1039.85 130.565 1039.19 130.046C1038.53 129.526 1036.71 128.795 1035.15 128.42C1030.79 127.378 1026.25 122.287 1019.43 110.81C1010.51 95.7877 1001.92 83.2527 997.527 78.8617C993.12 74.4547 984.832 69.4557 975.305 65.4597C968.681 62.6807 968.609 62.6087 967.555 57.6907C966.138 51.0867 966.148 51.0297 968.74 50.5307C972.531 49.8007 972.799 49.8087 979.285 50.8617ZM1845.29 56.7107C1845.55 61.1547 1845.07 62.8837 1842.07 68.2487C1838.35 74.8997 1833.42 80.8247 1831.61 80.8247C1831.02 80.8247 1829.56 78.9127 1828.37 76.5747C1827.18 74.2367 1825.06 70.8217 1823.66 68.9837C1820.35 64.6377 1821.13 63.4427 1830.63 58.3247C1834.71 56.1247 1839.15 53.5347 1840.5 52.5687C1844.04 50.0347 1844.95 50.8247 1845.29 56.7107ZM1821.09 75.3247C1827.71 86.0667 1827.41 86.5727 1813.76 87.5377C1805.93 88.0907 1805.21 87.9607 1798.95 84.8817C1794.59 82.7317 1792.48 81.1337 1792.68 80.1247C1793.07 78.1957 1812.35 67.7257 1814.88 68.0687C1816.01 68.2207 1818.53 71.1667 1821.09 75.3247ZM960.99 78.8247C960.65 79.3747 960.849 79.8247 961.431 79.8247C962.013 79.8247 962.49 79.3747 962.49 78.8247C962.49 78.2747 962.292 77.8247 962.049 77.8247C961.806 77.8247 961.33 78.2747 960.99 78.8247ZM1516.47 180.37C1515.4 183.188 1511.98 198.669 1510.16 208.968L1508.98 215.612L1493.45 226.968C1474.91 240.53 1467.17 245.829 1465.92 245.813C1465.41 245.806 1463.97 244.231 1462.73 242.313C1460.27 238.518 1458.49 237.798 1458.49 240.601C1458.49 242.599 1470.15 259.825 1471.5 259.825C1473.63 259.825 1473.48 257.412 1471.14 253.872C1468.37 249.688 1468.4 249.616 1474.14 245.767C1475.33 244.974 1479.01 242.215 1482.32 239.637C1492.55 231.68 1492.65 231.653 1507.22 232.806C1514.24 233.362 1524.27 234.296 1529.49 234.881C1540.77 236.144 1549.27 236.381 1550.19 235.458C1551.95 233.702 1547.57 232.425 1537.28 231.693C1531.07 231.252 1525.09 230.681 1523.99 230.425C1522.89 230.169 1517.27 229.655 1511.49 229.282C1505.72 228.91 1500.61 228.252 1500.14 227.819C1499.68 227.386 1502.99 224.285 1507.51 220.929L1515.73 214.825L1527.86 214.696C1547.42 214.488 1551.04 214.041 1549.08 212.075C1548.67 211.662 1542.74 211.176 1535.91 210.993C1528.83 210.804 1523.49 210.247 1523.49 209.697C1523.49 209.166 1524.9 207.965 1526.62 207.028C1528.34 206.092 1530.97 204.33 1532.46 203.114C1534.76 201.25 1536.88 200.473 1543.74 198.987C1544.15 198.898 1544.94 198.825 1545.49 198.825C1546.04 198.825 1546.49 198.343 1546.49 197.753C1546.49 197.164 1545.48 196.764 1544.24 196.864C1539.36 197.259 1539.05 196.894 1541.8 194.02C1545.3 190.367 1545.21 189.401 1541.54 191.299C1537.71 193.279 1537.51 193.243 1537.41 190.575C1537.35 188.93 1536.69 189.669 1534.94 193.322C1533.09 197.186 1530.9 199.516 1525.27 203.6C1513.82 211.903 1513.46 212.131 1512.81 211.478C1512.47 211.139 1514.07 204.665 1516.36 197.093C1518.65 189.521 1520.51 182.087 1520.51 180.575C1520.49 177.029 1517.8 176.892 1516.47 180.37ZM1489.73 199.575C1488.1 205.983 1484.44 224.596 1484.09 228.325C1484.03 228.875 1484.6 229.325 1485.34 229.325C1487.11 229.325 1489.69 221.598 1494.5 201.918C1496.46 193.894 1496.25 191.825 1493.49 191.825C1492.11 191.825 1491.27 193.544 1489.73 199.575ZM1783.28 213.971C1783.07 214.595 1786.07 218.319 1789.94 222.246C1796.4 228.786 1801.63 237.016 1800.23 238.419C1799.91 238.735 1797.71 239.242 1795.32 239.547C1792.94 239.851 1789.64 240.826 1787.99 241.713C1784.99 243.324 1784.99 243.325 1793.49 243.825L1801.99 244.325L1802.29 251.682C1802.61 259.748 1800.27 268.816 1795.87 276.513C1794.29 279.281 1793.85 280.926 1794.56 281.367C1796.52 282.578 1800.12 277.895 1804.04 269.046C1807.36 261.573 1807.96 259.073 1808.3 251.575C1808.73 241.842 1807.97 242.658 1816.92 242.327C1818.54 242.267 1820.02 241.735 1820.22 241.145C1820.7 239.699 1817.99 238.623 1812.09 237.914C1807.33 237.343 1807.09 237.149 1804.09 231.615C1802.38 228.474 1799.19 224.168 1796.99 222.046C1791.99 217.218 1783.8 212.398 1783.28 213.971ZM1286.27 310.972C1286.06 311.603 1286.23 314.866 1286.65 318.222C1290.68 350.837 1280.58 380.145 1269.41 368.241C1267.32 366.003 1266.99 364.698 1266.99 358.491C1266.99 351.688 1266.87 351.308 1264.59 350.986C1263.27 350.799 1261.22 351.17 1260.02 351.809C1258.14 352.813 1257.02 352.421 1251.72 348.898C1245.2 344.568 1243.6 344.111 1241.69 346.025C1239.73 347.985 1240.31 352.669 1243.11 357.447C1245.22 361.042 1245.64 362.799 1245.24 366.356C1244.93 369.118 1245.19 371.157 1245.92 371.767C1246.57 372.306 1250.04 372.827 1253.62 372.926C1259.77 373.095 1260.27 373.292 1262.37 376.348C1265.49 380.905 1264.46 383.644 1257.15 390.297C1253.76 393.377 1249.25 397.507 1247.13 399.474C1243.62 402.722 1242.93 402.976 1239.63 402.246C1233.01 400.782 1218.64 401.458 1214.13 403.446C1209 405.703 1200.2 413.087 1198.38 416.658C1197.63 418.125 1196.24 420.45 1195.28 421.825C1192.12 426.363 1190.18 436.559 1190.8 445.393C1191.42 454.229 1192.18 456.503 1197.34 465.099C1205.53 478.738 1226.13 487.448 1241.63 483.825C1257.87 480.028 1267.64 470.138 1272.27 452.825C1273.55 448.027 1273.62 443.523 1272.52 436.144C1270.81 424.627 1266.15 416.837 1257.69 411.325C1254.31 409.125 1251.53 406.776 1251.52 406.106C1251.46 403.733 1255.75 396.768 1258.61 394.562C1260.21 393.332 1262.82 391.313 1264.4 390.075C1265.98 388.837 1267.54 387.825 1267.85 387.825C1268.17 387.825 1270 390.283 1271.92 393.287C1273.85 396.292 1276.95 399.779 1278.83 401.037C1280.71 402.296 1286.79 406.594 1292.33 410.59C1297.87 414.586 1303 418.082 1303.72 418.36C1305.73 419.132 1308.11 425.519 1309.48 433.825C1311.71 447.368 1312.56 448.299 1332.19 458.899C1340.26 463.255 1340.41 463.294 1341.94 461.325C1343.39 459.446 1343.23 459.103 1339.24 455.636C1336.9 453.607 1331.39 449.557 1326.99 446.636L1318.99 441.325L1319.33 431.325C1319.52 425.825 1320.02 420.966 1320.43 420.528C1321.5 419.402 1337.83 421.531 1344.99 423.731C1348.29 424.744 1354.8 426.077 1359.45 426.692L1367.91 427.811L1371.23 424.593C1376.48 419.501 1375.43 418.338 1365.48 418.25C1360.54 418.207 1353.44 417.308 1348.49 416.1C1343.82 414.959 1337.79 413.513 1335.09 412.887C1332.4 412.262 1328.95 410.867 1327.44 409.788C1325.92 408.708 1324.33 407.825 1323.89 407.825C1320.82 407.825 1307.41 398.026 1297.99 388.896C1291.94 383.034 1285.94 377.578 1284.66 376.772L1282.33 375.305L1285.87 368.315C1292.2 355.857 1293.53 350.128 1293.03 337.48C1292.53 324.43 1291.57 315.232 1290.38 312.075C1289.5 309.708 1286.93 309.018 1286.27 310.972ZM1028.07 323.075C1027.82 324.313 1027.33 329.375 1026.98 334.325C1026.64 339.275 1026.14 344.9 1025.88 346.825C1025.61 348.75 1025.08 354.789 1024.69 360.244C1024.31 365.7 1023.54 370.294 1022.99 370.453C1022.44 370.613 1020.77 369.074 1019.29 367.034C1017.8 364.994 1015.25 361.525 1013.62 359.325C1010.7 355.373 1010.66 355.129 1010.09 338.92C1009.77 329.897 1009.26 322.26 1008.95 321.949C1007.42 320.417 1006.52 325.393 1006.51 335.516C1006.5 341.671 1006.06 346.971 1005.54 347.294C1003.92 348.296 996.373 335.772 995.185 330.105C993.992 324.417 992.49 323.053 992.49 327.658C992.49 331.665 991.727 331.971 988.869 329.113C985.842 326.086 984.708 326.702 986.964 330.146C988.596 332.636 987.656 334.664 985.49 333.325C984.94 332.985 984.49 333.139 984.49 333.667C984.49 334.195 986.509 335.459 988.977 336.476C992.383 337.879 994.606 339.891 998.203 344.825C1000.81 348.4 1003.52 351.923 1004.22 352.653C1005.92 354.414 1007.76 357.894 1007.25 358.397C1007.03 358.618 1003.73 357.893 999.92 356.787C977.274 350.215 973.49 349.579 973.49 352.35C973.49 353.188 974.506 354.261 975.748 354.733C978.301 355.703 1003.47 360.886 1007.85 361.343C1011.3 361.703 1010.16 360.499 1022.03 376.325C1038.58 398.38 1042.87 404.966 1041.34 405.985C1040.6 406.478 1038.75 407.641 1037.24 408.569C1034.14 410.468 1033.78 411.616 1036 412.469C1036.91 412.815 1040.3 411.02 1044.4 408.027C1048.19 405.264 1052.23 402.498 1053.39 401.879C1055.94 400.517 1056.17 397.816 1053.74 397.847C1052.78 397.859 1050.87 398.749 1049.49 399.825C1046.07 402.5 1045.22 402.335 1043.03 398.575C1041.99 396.787 1040.83 395.1 1040.45 394.825C1038.92 393.718 1029.25 380.327 1028.43 378.177C1027.66 376.144 1028.65 357.887 1031.13 328.575C1031.7 321.819 1031.57 320.825 1030.15 320.825C1029.26 320.825 1028.32 321.837 1028.07 323.075ZM988.74 375.542C985.863 376.577 987.546 379.404 991.74 380.581C999.258 382.691 1022.82 386.912 1024.18 386.392C1026.22 385.608 1025.73 384.11 1023.24 383.561C1022 383.287 1015.59 381.495 1008.99 379.578C996.338 375.904 990.802 374.801 988.74 375.542ZM1641.49 405.757C1641.49 406.951 1644.84 410.542 1650.24 415.153C1659.75 423.269 1666.1 429.561 1665.42 430.198C1665.18 430.42 1660.94 430.91 1655.99 431.287L1646.99 431.972L1636.99 426.762C1631.49 423.897 1625.8 420.714 1624.34 419.689C1621.01 417.353 1620.49 417.358 1620.49 419.723C1620.49 420.99 1623.14 423.366 1628.46 426.867C1636.55 432.189 1637.53 433.811 1632.68 433.842C1631.2 433.852 1625.94 434.71 1621 435.75L1612.01 437.641L1605 434.829C1601.14 433.282 1596.48 431.45 1594.64 430.758C1592.8 430.065 1589.76 428.461 1587.89 427.193C1584.71 425.034 1581.49 424.904 1581.49 426.935C1581.49 427.428 1585.65 429.809 1590.74 432.228C1595.83 434.646 1600.8 437.245 1601.8 438.003C1603.47 439.275 1603.31 439.481 1599.8 440.672C1597.7 441.381 1593.32 443.117 1590.06 444.529C1584.36 446.997 1583.62 447.072 1570.9 446.453C1563.62 446.099 1556.22 445.52 1554.44 445.166C1551.94 444.665 1551.33 444.833 1551.69 445.923C1552.02 446.928 1555.3 447.609 1563.27 448.327C1569.39 448.878 1574.89 449.821 1575.49 450.423C1576.28 451.215 1575.54 452.306 1572.79 454.374C1565.46 459.889 1559.62 465.227 1560.09 465.986C1560.35 466.407 1563.22 464.734 1566.46 462.268C1571.75 458.245 1584.33 451.425 1593.57 447.567C1598.34 445.576 1604.49 444.521 1604.49 445.694C1604.49 446.222 1602.01 449.932 1598.97 453.937C1595.94 457.943 1593.6 461.666 1593.79 462.21C1594.67 464.877 1596.87 463.291 1602.12 456.192C1607.75 448.58 1613.98 441.825 1615.36 441.825C1615.75 441.825 1621.15 440.895 1627.38 439.758C1633.6 438.622 1638.87 437.869 1639.08 438.085C1639.3 438.301 1638.27 440.919 1636.79 443.902C1633.44 450.656 1632.83 461.045 1635.74 461.623C1636.95 461.865 1637.31 461.511 1636.9 460.459C1635.77 457.507 1638.5 448.27 1641.62 444.48C1646.15 438.991 1652.47 436.212 1662.15 435.457C1673.53 434.569 1674.4 435.08 1669.91 440.048C1664.55 445.978 1661.51 453.216 1661.5 460.075C1661.49 464.263 1661.86 465.825 1662.85 465.825C1663.78 465.825 1664.38 463.984 1664.74 459.977C1665.85 447.773 1678.02 435.825 1689.34 435.825C1693.35 435.825 1705.53 441.562 1712.22 446.603C1716.35 449.707 1719.49 454.779 1719.49 458.327C1719.49 462.075 1717.38 468.876 1716.41 468.273C1715.97 468.006 1714.52 465.392 1713.18 462.465C1709.01 453.341 1701.24 449.895 1695.98 454.833C1692.33 458.261 1692.55 463.727 1696.48 467.664C1706.73 477.908 1701.09 490.325 1681.71 500.232C1670.18 506.124 1649.71 507.735 1636.99 503.752C1633.14 502.546 1628.64 501.507 1626.99 501.442C1625.34 501.378 1623.54 500.777 1622.99 500.108C1622.44 499.439 1619.52 498.211 1616.49 497.38C1613.47 496.549 1607.17 494.662 1602.49 493.186C1586.44 488.12 1566.56 490.012 1556.62 497.553C1554.71 499 1552.15 502.506 1550.73 505.624C1546.84 514.11 1546.76 521.311 1550.32 542.825C1552 553 1553.68 563.35 1554.04 565.825C1554.4 568.3 1554.83 571.225 1555 572.325C1555.17 573.425 1555.86 578.15 1556.52 582.825C1557.76 591.566 1558.99 595.251 1560.39 594.389C1561.21 593.878 1560.68 590.246 1558.02 578.325C1557.16 574.475 1556.26 570.425 1556.02 569.325C1555.39 566.411 1554.5 559.196 1553.93 552.325C1553.66 549.025 1552.98 543.442 1552.42 539.919C1551.86 536.396 1551.78 533.131 1552.25 532.664C1552.9 532.016 1561.73 534.147 1563.26 535.318C1564.04 535.921 1566.5 547.763 1567.94 557.825C1571.3 581.405 1574.69 597.825 1576.2 597.825C1577.09 597.825 1577.43 597.169 1577.1 596.075C1576.67 594.612 1574.2 581.553 1573 574.325C1572.81 573.225 1571.19 564.305 1569.38 554.504C1566.76 540.247 1566.36 536.522 1567.4 535.88C1570.02 534.259 1587.22 531.511 1594.99 531.472C1602.7 531.434 1603.32 531.611 1611.99 536.307C1622.42 541.956 1627.83 545.497 1635.49 551.68C1642.08 557.003 1642.22 557.18 1643.63 562.592C1645.09 568.212 1646.62 569.039 1645.97 563.857C1645.39 559.22 1645.85 558.846 1652.5 558.53L1656.84 558.325L1658.05 564.325C1658.72 567.625 1660.46 575.725 1661.91 582.325C1664.68 594.822 1665.29 597.778 1665.42 599.134C1665.46 599.579 1665.93 599.672 1666.47 599.341C1667.79 598.522 1666.57 589.726 1664.85 587.744C1664.1 586.874 1663.72 585.932 1664 585.651C1664.45 585.196 1662.14 573.045 1659.59 562.489C1658.52 558.062 1658.72 557.787 1668.08 551.099C1671.33 548.775 1680.42 540.351 1688.28 532.381C1710.38 509.973 1712.04 508.914 1727.18 507.464C1730.37 507.158 1737.04 506.821 1741.99 506.716C1752.6 506.492 1756.88 505.017 1758.24 501.113C1760.24 495.367 1757.59 492.83 1741.49 485.103C1736.82 482.858 1731.19 480.47 1728.99 479.796C1719.08 476.755 1719.26 477.144 1723.02 467.139C1727.24 455.93 1727.8 455.678 1742.03 458.474C1749.92 460.025 1750.69 460.019 1754.97 458.387C1757.47 457.432 1759.99 455.752 1760.58 454.652C1761.95 452.106 1761.18 451.281 1759.24 453.214C1755.74 456.72 1746.8 456.599 1737.99 452.925C1736.32 452.229 1733.44 451.935 1731.49 452.263C1729.57 452.586 1727.29 452.958 1726.43 453.088C1725.58 453.218 1722.86 450.857 1720.39 447.842C1715.03 441.305 1709.94 437.587 1702.49 434.785C1697.16 432.78 1696.84 432.439 1691.99 423.618C1683.76 408.642 1683.04 407.483 1681.74 407.062C1679.74 406.417 1680.28 409.182 1683.36 415.472C1686.88 422.641 1688.9 428.744 1688.05 429.594C1687.03 430.622 1680.38 429.896 1674.99 428.167C1670.68 426.784 1664.81 422.924 1660.27 418.488C1657.52 415.808 1642.67 403.825 1642.1 403.825C1641.76 403.825 1641.49 404.694 1641.49 405.757ZM1235.3 406.961C1237.88 407.586 1240.4 408.469 1240.9 408.924C1242.06 409.971 1224.7 427.835 1222.56 427.798C1220.11 427.756 1207.02 415.402 1207.9 413.966C1208.55 412.914 1217.92 408.128 1222.49 406.513C1225.09 405.596 1230.43 405.783 1235.3 406.961ZM1256.11 418.094C1258.88 421.155 1259.39 422.375 1258.85 424.594C1258.2 427.266 1243.09 444.825 1241.44 444.825C1239.93 444.825 1228.49 433.644 1228.49 432.172C1228.49 431.382 1232.56 426.527 1237.54 421.384C1246.45 412.166 1246.63 412.05 1249.64 413.179C1251.32 413.809 1254.23 416.021 1256.11 418.094ZM1211.06 426.503C1214.6 429.625 1217.48 432.663 1217.48 433.253C1217.46 434.98 1199.73 453.088 1198.68 452.445C1197.08 451.451 1195.39 442.885 1196.04 439.005C1197.57 429.864 1201.14 420.825 1203.22 420.825C1204 420.825 1207.53 423.38 1211.06 426.503ZM1266.61 432.899C1267.76 436.993 1267.47 450.055 1266.13 455.153C1264.72 460.491 1263 462.167 1260.37 460.758C1257.68 459.319 1247.49 449.339 1247.49 448.143C1247.49 446.481 1263.64 429.71 1264.86 430.114C1265.45 430.311 1266.24 431.565 1266.61 432.899ZM1232.27 444.919L1237.36 449.512L1235.54 452.419C1232.66 457.019 1217.93 471.476 1215.47 472.119C1213.74 472.572 1212.04 471.563 1207.87 467.619C1204.91 464.823 1202.49 461.665 1202.49 460.603C1202.49 459.489 1206.91 454.206 1212.92 448.141C1224.7 436.244 1222.97 436.532 1232.27 444.919ZM1252.51 461.637L1258.99 467.63L1255.99 470.808C1250.67 476.445 1242.52 479.177 1231.31 479.083C1221.4 479.001 1220.38 477.788 1225.74 472.467C1227.53 470.695 1232.06 465.775 1235.81 461.534C1243.65 452.662 1242.79 452.657 1252.51 461.637ZM1704.29 456.223C1708.29 458.29 1710.17 460.798 1711.48 465.825C1712.44 469.487 1716.97 478.825 1717.79 478.825C1719.91 478.825 1739.58 486.861 1745.95 490.333C1756.13 495.879 1757.76 498.032 1754.34 501.374C1752.14 503.531 1750.98 503.707 1735.72 504.204C1712.06 504.976 1708.47 506.757 1687.91 527.925C1672.5 543.79 1669.69 546.401 1663.61 550.491C1659.1 553.519 1657.12 554.19 1651.5 554.592C1645.12 555.048 1644.51 554.893 1639.39 551.544C1636.42 549.604 1632.31 546.474 1630.25 544.589C1625.68 540.41 1604.56 528.873 1600.17 528.161C1598.42 527.877 1590.47 528.655 1582.49 529.889C1574.52 531.123 1566.22 532.047 1564.05 531.941C1559.1 531.699 1551.68 528.483 1550.8 526.202C1549.59 523.032 1552.45 510.567 1555.8 504.469C1558.98 498.68 1559.18 498.519 1567.01 495.725C1577.56 491.961 1585.97 491.872 1597.54 495.403C1602.19 496.821 1608.92 498.686 1612.49 499.547C1616.07 500.409 1623.07 502.372 1628.07 503.91C1644.05 508.834 1652.56 509.586 1667.89 507.433C1678.35 505.965 1694.49 497.969 1694.49 494.257C1694.49 493.469 1695.08 492.825 1695.79 492.825C1697.64 492.825 1703.17 486.862 1704.43 483.51C1706.21 478.784 1705.64 475.421 1702.26 470.772C1700.48 468.326 1698.69 466.18 1698.29 466.002C1697.88 465.825 1697.26 464.119 1696.9 462.212C1696.42 459.629 1696.7 458.246 1698.03 456.785C1700.14 454.451 1700.76 454.396 1704.29 456.223ZM1723.99 487.825C1724.33 488.375 1725.03 488.825 1725.55 488.825C1726.07 488.825 1726.49 488.375 1726.49 487.825C1726.49 487.275 1725.79 486.825 1724.93 486.825C1724.07 486.825 1723.65 487.275 1723.99 487.825ZM1645.61 570.499C1645.54 571.694 1645.94 574.844 1646.49 577.499C1648.36 586.527 1652.4 609.312 1652.76 612.824C1653.01 615.231 1653.69 616.432 1654.93 616.672C1657.07 617.082 1657.25 618.534 1652.05 593.825C1650.02 584.2 1647.96 575.425 1647.48 574.325C1646.99 573.225 1646.4 571.425 1646.16 570.325C1645.76 568.479 1645.71 568.492 1645.61 570.499ZM1041.46 593.54C1040.1 594.483 1038.12 596.058 1037.05 597.04C1034.72 599.188 1034.46 599.195 1027.49 597.325C1024.47 596.513 1019.71 595.843 1016.92 595.837C1010.54 595.822 1001.49 598.432 1001.49 600.287C1001.49 601.392 1002.99 601.557 1008.96 601.106C1016.81 600.512 1027.71 602.186 1029.43 604.248C1030.07 605.022 1029.45 606.868 1027.54 609.863C1024.31 614.925 1022.9 618.825 1024.3 618.825C1024.82 618.825 1027.36 616.35 1029.95 613.325C1032.53 610.3 1035.06 607.825 1035.57 607.825C1036.07 607.825 1038.93 610.187 1041.91 613.075C1047.48 618.462 1053.95 629.492 1055.1 635.575C1056 640.363 1058.49 639.801 1058.49 634.809C1058.49 628.587 1050.93 613.458 1044.77 607.351L1039.76 602.378L1042.26 598.601C1043.63 596.524 1045.15 594.825 1045.62 594.825C1046.1 594.825 1046.49 594.15 1046.49 593.325C1046.49 591.341 1044.51 591.426 1041.46 593.54ZM1667.28 608.684C1668.05 612.887 1668.71 616.888 1668.75 617.575C1668.83 618.966 1670.11 619.252 1670.85 618.046C1671.12 617.618 1670.67 614.356 1669.86 610.796C1669.05 607.237 1668.34 603.782 1668.27 603.118C1668.21 602.454 1667.65 601.716 1667.03 601.478C1666.22 601.168 1666.29 603.231 1667.28 608.684ZM1329.49 676.295C1329.49 677.104 1330.84 678.763 1332.49 679.983C1334.14 681.203 1335.49 682.728 1335.49 683.373C1335.49 684.894 1322.15 704.923 1319.59 707.233C1318.52 708.206 1316.14 709.387 1314.31 709.857C1312.49 710.326 1303.34 712.768 1293.99 715.283C1284.64 717.798 1274.74 720.352 1271.99 720.957C1269.24 721.563 1266.43 722.511 1265.74 723.064C1263.39 724.954 1264.47 726.038 1268.24 725.578C1271.87 725.134 1309.18 715.649 1312.89 714.226C1314.45 713.626 1314.61 713.875 1313.99 715.924C1313.59 717.244 1312.47 719.225 1311.51 720.325C1310.55 721.425 1308.56 724.424 1307.08 726.989C1304.55 731.392 1303.86 731.857 1294.7 735.309C1274.46 742.932 1272.49 743.791 1272.49 744.994C1272.49 746.543 1275.96 745.858 1286.75 742.179C1292.67 740.16 1297.76 738.761 1298.07 739.07C1299.35 740.35 1289.19 752.401 1284.91 754.681C1282.48 755.977 1280.49 757.44 1280.49 757.931C1280.49 759.024 1280.3 759.026 1284.25 757.895C1286.03 757.383 1287.49 757.103 1287.49 757.273C1287.49 757.442 1286.81 759.211 1285.98 761.203C1284.33 765.133 1285.18 766.035 1287.49 762.825C1289.21 760.444 1291.49 760.192 1291.49 762.384C1291.49 763.241 1291.94 763.665 1292.49 763.325C1293.04 762.985 1293.49 760.658 1293.49 758.153C1293.49 754.201 1294.37 752.292 1300.14 743.682C1303.79 738.227 1307.17 733.526 1307.64 733.235C1308.11 732.945 1308.55 734.871 1308.61 737.516C1308.79 744.436 1309.26 752.265 1310.01 760.575C1310.57 766.824 1310.93 767.825 1312.58 767.825C1314.84 767.825 1315.01 764.72 1313.43 752.825C1312.88 748.7 1312.2 743.3 1311.92 740.825C1311.64 738.35 1310.94 734.872 1310.38 733.096C1309.4 730.011 1309.83 729.143 1320.2 713.596C1331.76 696.258 1339.22 685.825 1340.08 685.825C1340.36 685.825 1342.24 686.944 1344.26 688.312C1348.14 690.952 1350.96 690.295 1348.49 687.324C1346.83 685.32 1331.65 674.825 1330.41 674.825C1329.9 674.825 1329.49 675.487 1329.49 676.295ZM1326.41 708.575C1326.13 710.99 1326.68 721.913 1327.6 732.325C1328.36 740.858 1329.1 744.666 1330.17 745.506C1333.32 747.963 1334.09 746.134 1333.34 738.051C1332.48 728.797 1329.6 709.816 1328.88 708.653C1328.25 707.62 1326.52 707.566 1326.41 708.575ZM1478.27 720.802C1472.06 724.956 1467.48 731.981 1464.64 741.713C1462.85 747.848 1458.08 767.088 1456.93 772.825C1456.66 774.2 1455.77 778.475 1454.95 782.325C1451.87 796.946 1451.29 803.678 1451.7 820.013C1452.1 836.238 1452.18 836.758 1454.55 838.73C1455.89 839.846 1457.76 840.773 1458.69 840.792C1459.63 840.81 1461.52 841.338 1462.9 841.965C1464.81 842.835 1466.12 842.806 1468.45 841.844C1472.01 840.366 1472.23 838.665 1469.86 830.757C1467.07 821.426 1467.71 807.094 1471.21 800.302C1471.77 799.215 1473.23 796.075 1474.45 793.325C1477.48 786.533 1482.59 779.894 1484.83 779.856C1486.46 779.829 1486.61 780.44 1486.14 785.075C1485.63 790.098 1482.6 809.339 1480.83 818.825C1479.79 824.384 1480.24 841.035 1481.55 846.002C1482.61 849.986 1487.52 854.825 1490.5 854.825C1494.04 854.825 1496.49 849.672 1496.51 842.171C1496.55 830.745 1501.83 791.413 1503.6 789.421C1504.39 788.525 1508.44 791.196 1513.59 796.018C1518.15 800.284 1530.79 810.248 1536.83 814.328C1543.8 819.047 1544.92 820.837 1543.92 825.68C1542.89 830.656 1542.97 830.257 1539.97 846.179C1538.51 853.959 1536.22 865.558 1534.88 871.955C1533.55 878.351 1532.74 884.314 1533.08 885.205C1535.23 890.788 1545.98 881.071 1548.82 870.996C1549.69 867.877 1550.93 862.85 1551.57 859.825C1553.07 852.743 1559.11 836.9 1561.19 834.601C1565.01 830.388 1567.01 834.061 1565.35 842.229C1564.13 848.234 1561.24 861.858 1559.39 870.325C1558.67 873.625 1557.99 877 1557.89 877.825C1557.79 878.65 1557.23 881.35 1556.65 883.825C1555.02 890.765 1557.79 893.589 1564.66 891.982C1565.49 891.786 1568.93 881.153 1570.52 873.825C1574.16 857.094 1579.54 845.896 1584.72 844.251C1587.98 843.217 1593.09 849.151 1596.46 857.9C1599.51 865.807 1605.09 886.039 1605.66 891.293C1605.92 893.656 1606.64 894.447 1609.18 895.172C1610.94 895.672 1613.11 895.803 1614 895.462C1616.27 894.588 1622.51 880.614 1627.45 865.313C1629.75 858.17 1632.27 850.869 1633.04 849.09C1634.47 845.804 1643 838.866 1651.49 834.084C1671.96 822.56 1671.53 819.525 1649.75 821.896C1643.28 822.6 1635.98 823.21 1633.51 823.251C1629.06 823.325 1629.03 823.303 1628.31 819.325C1627.92 817.125 1627.32 810.389 1626.98 804.355C1626.38 793.598 1625.55 790.825 1622.94 790.825C1620.55 790.825 1618.98 793.428 1616.07 802.167C1614.49 806.929 1612.87 810.825 1612.47 810.825C1611.24 810.825 1609.91 808.524 1608.7 804.325C1601.63 779.723 1599.62 774.709 1593.36 766.143C1583.3 752.367 1572.85 745.558 1539.24 730.897C1536.63 729.758 1532.58 727.983 1530.24 726.953C1522.71 723.636 1513.24 720.912 1502.49 718.967C1487.78 716.307 1484.63 716.545 1478.27 720.802ZM1831.59 761.775C1831.51 765.236 1831.22 765.958 1830.29 765.025C1828.93 763.662 1827.49 763.445 1827.49 764.602C1827.49 765.03 1828.86 766.879 1830.53 768.712C1833.02 771.437 1833.94 773.869 1835.59 782.069C1838.87 798.467 1838.75 798.539 1826.49 787.257C1814.6 776.319 1812.02 774.38 1810.53 775.298C1808.72 776.419 1809.4 778.6 1812.24 780.796C1813.75 781.964 1819.54 786.448 1825.1 790.761C1830.66 795.074 1836.11 799.089 1837.22 799.683C1838.89 800.576 1839.8 803.662 1842.45 817.544C1845.77 834.904 1848.44 850.443 1848.47 852.514C1848.48 853.168 1846.46 854.007 1843.98 854.379C1839.01 855.124 1837.62 856.239 1840 857.569C1840.93 858.088 1845.65 857.791 1851.77 856.828C1860.15 855.509 1862.05 854.889 1862.34 853.381C1862.65 851.75 1862.16 851.602 1858.02 852.069C1853.91 852.532 1853.25 852.338 1852.53 850.46C1851.75 848.404 1849.31 835.918 1847.96 827.051C1847.18 821.952 1847.37 821.562 1863.81 793.97C1874.08 776.745 1876.56 770.967 1873.23 772.077C1872.68 772.263 1869.7 776.694 1866.61 781.926C1852.65 805.556 1846.94 814.819 1846.32 814.822C1845.95 814.824 1845.36 813.363 1845.01 811.575C1844.66 809.787 1843.71 805.535 1842.9 802.126C1841.23 795.107 1841.26 794.979 1850.98 774.488C1858.52 758.596 1854.07 760.454 1845.98 776.575C1841.73 785.062 1839.52 787.771 1839.47 784.575C1839.46 783.888 1839.01 780.288 1838.48 776.577C1837.7 771.239 1837.81 768.94 1838.98 765.577C1840.7 760.638 1840.8 759.825 1839.65 759.825C1839.19 759.825 1838.3 760.95 1837.67 762.325C1836.13 765.717 1835.28 765.472 1833.34 761.07L1831.68 757.325L1831.59 761.775ZM1038.99 763.539C1037.34 763.767 1033.23 764.581 1029.85 765.348C1012.57 769.278 987.515 786.318 994.869 789.14C995.635 789.434 997.747 788.109 999.619 786.158C1002.73 782.918 1012.44 775.825 1013.77 775.825C1014.09 775.825 1017.67 774.287 1021.74 772.408C1040.74 763.631 1063.36 764.995 1084.99 776.222C1092.65 780.196 1093.97 781.452 1092.9 783.728C1092.01 785.636 1091.85 785.627 1084.49 783.263C1078.26 781.258 1074.92 780.85 1064.72 780.838C1044.27 780.816 1031.8 785.135 1019.53 796.496C1012.79 802.733 1007.82 809.817 1009.2 811.201C1010.73 812.727 1012.39 811.423 1016.06 805.83C1018.22 802.533 1020.24 799.833 1020.55 799.83C1020.86 799.827 1022.03 798.974 1023.14 797.934C1027.2 794.152 1038.98 788.647 1048.38 786.14C1056.88 783.871 1059.16 783.649 1068.09 784.222C1073.85 784.591 1080.51 785.688 1083.59 786.777L1088.99 788.685L1089.1 796.505C1089.15 800.806 1089.33 811.975 1089.49 821.325C1089.73 835.311 1089.48 839.123 1088.09 842.825C1085.46 849.866 1081.93 854.483 1076.94 857.409C1072.8 859.835 1071.67 860.046 1065.6 859.538C1059.1 858.993 1055.4 858.03 1035.99 851.823C1025.28 848.399 1016.37 846.843 1007.42 846.833C1000.61 846.825 991.098 849.071 988.49 851.304C987.665 852.01 985.985 852.895 984.756 853.269C982.32 854.011 976.62 860.552 974.249 865.325C970.077 873.722 969.693 884.499 973.271 892.736C975.073 896.883 981.238 902.473 985.071 903.435C986.619 903.823 988.276 906 990.384 910.412C992.069 913.939 993.832 916.825 994.302 916.825C996.31 916.825 996.264 915.304 994.124 910.953C991.775 906.175 991.686 902.825 993.91 902.825C994.61 902.825 996.64 902.098 998.421 901.21C1002.12 899.363 1002.55 899.666 1004.92 905.825C1005.88 908.3 1007.26 911.675 1008.01 913.325C1008.75 914.975 1010.78 919.475 1012.52 923.325C1014.26 927.175 1017.88 935.681 1020.57 942.227C1027.15 958.25 1028.27 959.886 1031.31 957.96C1032.34 957.306 1031.91 955.644 1029.31 950.226C1027.48 946.43 1025.72 943.1 1025.39 942.825C1025.05 942.55 1024.21 940.574 1023.51 938.433C1022.34 934.847 1016.87 922.898 1014.36 918.425C1012.33 914.825 1006.49 900.645 1006.49 899.323C1006.49 898.326 1007.17 898.222 1009.24 898.902C1010.75 899.399 1018.52 901.348 1026.49 903.234C1034.47 905.12 1047.74 908.268 1055.99 910.23C1064.24 912.191 1075.34 914.685 1080.66 915.772C1085.98 916.858 1091.52 918.045 1092.97 918.409C1095.12 918.949 1096.49 920.929 1100.41 929.198C1103.06 934.768 1105.55 940.37 1105.95 941.647C1106.35 942.925 1108.37 947.425 1110.44 951.647C1112.51 955.87 1114.76 961.013 1115.43 963.075C1116.39 966.041 1117.15 966.825 1119.07 966.825C1122.12 966.825 1122.1 966.166 1118.85 960.351C1117.4 957.752 1116.15 954.883 1116.07 953.975C1115.99 953.068 1114.62 949.85 1113.02 946.825C1111.42 943.8 1110 940.658 1109.85 939.843C1109.71 939.028 1109.12 938.203 1108.54 938.01C1107.97 937.817 1107.49 937 1107.49 936.196C1107.49 935.392 1106.37 932.62 1104.99 930.037C1103.62 927.454 1102.49 924.55 1102.49 923.583C1102.49 922.616 1102.08 921.825 1101.58 921.825C1099.47 921.825 1102.08 917.409 1105.78 914.732L1109.78 911.832L1110.96 914.078C1113.64 919.21 1121.91 933.435 1123.01 934.825C1123.67 935.65 1125.55 938.813 1127.2 941.854C1131.02 948.934 1138.42 960.895 1140.14 962.782C1141.17 963.907 1141.75 963.968 1142.66 963.052C1143.58 962.136 1143.55 961.298 1142.52 959.379C1141.79 958.012 1140.84 957.107 1140.42 957.368C1140 957.629 1139.36 956.485 1138.99 954.825C1138.63 953.165 1137.92 952.06 1137.42 952.368C1136.92 952.677 1136.76 952.277 1137.07 951.481C1137.37 950.684 1136.76 949.423 1135.69 948.679C1134.63 947.934 1133.69 946.875 1133.61 946.325C1133.19 943.451 1132.2 941.825 1130.86 941.825C1130.04 941.825 1129.63 941.411 1129.94 940.906C1130.25 940.4 1129.94 939.377 1129.25 938.632C1128.56 937.887 1127.85 936.645 1127.68 935.871C1127.51 935.098 1126.39 933.093 1125.18 931.416C1122.51 927.692 1121.38 925.758 1118.15 919.325C1116.77 916.575 1114.71 913.331 1113.57 912.117C1111.12 909.513 1111.05 908.993 1112.86 906.904C1115.88 903.43 1119.25 895.941 1120.97 888.933C1123.27 879.535 1122.63 867.343 1118.93 849.825C1114.82 830.365 1114.72 829.781 1113.99 821.792C1113.2 813.249 1114.48 806.921 1117.84 802.664C1119.74 800.25 1124.82 796.408 1141.68 784.606C1148 780.18 1149.42 775.136 1145.13 772.323C1142.69 770.729 1142.77 770.726 1119.49 773.383C1109.49 774.524 1106.8 775.017 1102.48 776.5L1097.97 778.049L1091.43 774.458C1075.54 765.723 1054.66 761.376 1038.99 763.539ZM1140.16 776.403C1140.49 777.271 1139.88 779.161 1138.81 780.603C1137.09 782.905 1133.67 785.534 1118.49 796.228C1111.18 801.38 1110.16 803.225 1109.69 812.237C1109.16 822.322 1110.7 834.76 1114.28 849.325C1116.59 858.713 1116.97 862.253 1116.85 873.481C1116.69 888.531 1115.46 893.462 1109.61 902.514C1101.06 915.746 1099.21 916.348 1080.84 911.886C1045.34 903.262 1039.03 901.832 1036.28 901.789C1035.02 901.769 1028.82 899.942 1022.49 897.729C1006.78 892.233 1007.8 892.323 1000.14 895.756C992.201 899.32 987.912 899.591 982.576 896.869C978.6 894.841 976.349 890.923 974.987 883.659C973.716 876.887 978.398 864.523 983.79 860.41C991.465 854.555 996.118 852.859 1006.29 852.205C1017.48 851.486 1027.23 853.233 1046.52 859.412C1055.97 862.44 1059.58 863.11 1066.99 863.207C1080.03 863.378 1085.7 860.078 1090.41 849.572C1093.66 842.334 1095.88 827.823 1093.74 827.826C1093.33 827.827 1093.13 819.839 1093.31 810.076C1093.69 788.366 1094.65 785.28 1102.16 781.526C1108.47 778.37 1110.87 777.799 1123.99 776.321C1139.12 774.618 1139.47 774.62 1140.16 776.403ZM1810.94 804.899C1810.12 806.226 1813.36 809.738 1819.96 814.697C1833.01 824.497 1840.39 829.825 1840.92 829.825C1844.65 829.825 1833.22 817.965 1819.3 807.389C1814.48 803.727 1812.11 803.019 1810.94 804.899ZM1351.28 948.971C1351.07 949.595 1354.07 953.319 1357.94 957.246C1364.4 963.786 1369.63 972.016 1368.23 973.419C1367.91 973.735 1365.71 974.242 1363.32 974.547C1360.94 974.851 1357.64 975.826 1355.99 976.713C1352.99 978.324 1352.99 978.325 1361.49 978.825L1369.99 979.325L1370.29 986.682C1370.61 994.748 1368.27 1003.82 1363.87 1011.51C1362.29 1014.28 1361.85 1015.93 1362.56 1016.37C1364.52 1017.58 1368.12 1012.89 1372.04 1004.05C1375.36 996.573 1375.96 994.073 1376.3 986.575C1376.73 976.842 1375.97 977.658 1384.92 977.327C1386.54 977.267 1388.02 976.735 1388.22 976.145C1388.7 974.699 1385.99 973.623 1380.09 972.914C1375.33 972.343 1375.09 972.149 1372.09 966.615C1370.38 963.474 1367.19 959.168 1364.99 957.046C1359.99 952.218 1351.8 947.398 1351.28 948.971Z" fill="#1A5F4C"/>
</svg>
