<svg width="102" height="72" viewBox="0 0 102 72" fill="none" xmlns="http://www.w3.org/2000/svg">
<path fill-rule="evenodd" clip-rule="evenodd" d="M50.6862 0.41452C50.0004 1.37751 45.1917 7.70148 43.7432 9.54517C35.8053 19.6491 30.8238 25.1739 24.5865 30.7914C18.5649 36.2146 10.05 43.0973 1.80829 49.2033C0.830614 49.9276 0.0168911 50.5324 5.4948e-05 50.5473C-0.0167812 50.5623 3.83752 50.5718 8.56517 50.5687C14.0993 50.565 17.093 50.5382 16.9703 50.4935C16.8131 50.4363 16.6098 50.0813 15.8132 48.4725C14.864 46.5552 14.6628 46.0561 14.8394 46.0561C14.9858 46.0561 15.2559 46.3969 16.0606 47.5969C16.4869 48.2326 16.918 48.8062 17.0186 48.8716C17.1896 48.9827 17.2114 48.9815 17.3546 48.8532C17.5672 48.6627 17.8225 48.1411 18.0907 47.3487C18.3122 46.6944 18.3171 46.6511 18.2674 45.801C18.2393 45.3201 18.1364 44.2214 18.0388 43.3597C17.9411 42.4979 17.8608 41.5879 17.8603 41.3374C17.8595 40.9389 17.8768 40.8819 17.9984 40.8819C18.2608 40.8819 18.3866 41.4091 18.8562 44.477C18.9594 45.1516 19.0781 45.7911 19.12 45.898L19.1962 46.0925L19.6384 45.6188C20.2957 44.9147 20.7826 44.2446 20.9434 43.823C21.1465 43.2905 21.3183 41.9878 21.3678 40.6062C21.3912 39.9535 21.4356 39.404 21.4667 39.385C21.4977 39.366 21.6068 39.382 21.7091 39.4206C21.949 39.511 21.9776 39.67 22.0384 41.251L22.0868 42.5102L22.5198 42.1343C22.758 41.9275 23.3746 41.3201 23.8899 40.7845C24.754 39.8864 24.8337 39.7799 24.914 39.4171C25.3068 37.6401 25.5141 36.5198 25.5529 35.9628C25.6003 35.282 25.7015 35.0518 25.9531 35.0518C26.1765 35.0518 26.1834 35.3056 25.9918 36.4913C25.742 38.0381 25.6771 38.8414 25.8019 38.8414C25.8541 38.8414 26.1643 38.6499 26.4914 38.4159C26.8186 38.1819 27.3378 37.8234 27.6455 37.6191C27.953 37.4148 28.3335 37.1027 28.4909 36.9253C28.8071 36.5692 29.6581 35.1835 30.3611 33.8799C30.9289 32.8273 31.0553 32.6539 31.1715 32.7687C31.3122 32.9077 31.086 33.4382 30.3198 34.7653C29.6378 35.9466 29.5576 36.149 29.6899 36.3561C29.765 36.4735 29.9694 36.4308 30.8725 36.1085C31.9316 35.7307 32.9311 35.5317 32.9311 35.6987C32.9311 35.769 32.4377 35.9882 31.865 36.1724C30.98 36.4571 28.5654 37.8073 27.3886 38.6756C26.7121 39.1747 26.4941 39.4537 26.686 39.5744C26.7444 39.6111 27.3927 39.6349 28.1268 39.6273C29.4819 39.6133 29.6962 39.6503 29.6962 39.8981C29.6962 40.0995 29.4482 40.1457 27.9633 40.221C27.0748 40.2661 26.2304 40.3472 25.9793 40.4117C25.2516 40.5986 24.5845 41.1093 23.4641 42.3375C22.7916 43.0747 22.5687 43.3879 22.6552 43.4737C22.6777 43.496 22.9229 43.5452 23.2002 43.5831C24.1832 43.7175 25.3794 44.1314 25.675 44.4394C25.8938 44.6675 25.9976 44.996 25.8747 45.0713C25.8286 45.0995 25.664 45.0354 25.5088 44.9288C25.3536 44.8222 24.9834 44.6471 24.686 44.5398C24.2176 44.3706 24.0325 44.3445 23.2999 44.344C22.3424 44.3434 22.045 44.4377 21.3409 44.9646C20.8098 45.362 19.2588 47.3409 19.3562 47.4969C19.3783 47.5325 19.8391 47.5467 20.38 47.5285C21.4392 47.4929 22.1972 47.598 22.983 47.8894C23.4158 48.0499 24.0351 48.5721 24.0351 48.7765C24.0351 48.9392 23.9478 48.9303 23.5364 48.7262C23.3457 48.6316 22.9084 48.4595 22.5647 48.3438C22.055 48.1722 21.8245 48.1348 21.3148 48.1413C20.1898 48.1555 18.9029 48.6143 18.2656 49.2283C17.9355 49.5462 17.5675 50.1873 17.566 50.4469C17.5653 50.5682 19.2225 50.5744 51.3419 50.5744H85.1186L85.0446 50.3011C84.7955 49.3814 84.03 48.7523 82.6659 48.3465C81.7353 48.0697 80.9127 48.0694 80.0576 48.3454C79.7139 48.4564 79.2879 48.6262 79.1109 48.7227C78.5783 49.0133 78.4668 48.9519 78.7547 48.5265C78.9787 48.1955 79.8472 47.7703 80.609 47.6186C81.0106 47.5387 81.5119 47.5067 82.1897 47.5177C83.4541 47.5382 83.3893 47.5473 83.2902 47.3636C83.0912 46.9953 81.8456 45.4419 81.5027 45.1346C81.2942 44.9478 80.9086 44.6934 80.6457 44.5692C80.197 44.3573 80.1163 44.3435 79.3224 44.344C78.5897 44.3445 78.4047 44.3706 77.9362 44.5398C77.6389 44.6471 77.2654 44.8244 77.1064 44.9337C76.8949 45.0789 76.7953 45.1107 76.7358 45.0517C76.6203 44.9372 76.7869 44.5685 77.0552 44.3447C77.3653 44.086 78.6208 43.7056 79.7083 43.5406C79.9114 43.5099 79.984 43.4636 79.984 43.3652C79.984 43.0799 78.0278 41.0755 77.385 40.7023C76.8842 40.4113 76.299 40.3059 74.7351 40.2245C73.9221 40.1821 73.2021 40.1311 73.135 40.1111C72.9585 40.0583 72.9031 39.8532 73.0312 39.7262C73.1216 39.6367 73.4007 39.6157 74.5595 39.6116C75.9476 39.6066 75.9776 39.6034 75.9995 39.4516C76.0673 38.9802 72.4938 36.784 70.5001 36.0717C70.1564 35.9489 69.8268 35.8004 69.7674 35.7417C69.6728 35.6478 69.6861 35.6349 69.8777 35.6353C70.2103 35.6361 71.1872 35.886 72.0243 36.1846C72.4381 36.3322 72.8269 36.4338 72.8882 36.4105C73.1263 36.3199 73.0076 35.9292 72.4572 34.9918C71.7088 33.7172 71.4557 33.1987 71.4557 32.9405C71.4557 32.7082 71.5342 32.6583 71.6596 32.8109C71.7009 32.861 72.0242 33.4267 72.3781 34.068C73.0984 35.3732 73.8137 36.538 74.1266 36.9154C74.241 37.0534 74.7207 37.4295 75.1927 37.7512C75.6646 38.073 76.2115 38.4499 76.4079 38.5888C76.6045 38.7277 76.7996 38.8414 76.8416 38.8414C76.9467 38.8414 76.8589 37.6865 76.67 36.5837C76.484 35.4987 76.4988 35.0977 76.7258 35.0656C76.9524 35.0337 77.0464 35.2515 77.079 35.884C77.0943 36.1783 77.2459 37.0871 77.4161 37.9035C77.5864 38.72 77.7418 39.4817 77.7616 39.5964C77.7872 39.7451 78.1836 40.1938 79.1441 41.1612C79.8847 41.9071 80.5129 42.4953 80.5402 42.4683C80.5674 42.4413 80.6108 41.7915 80.6366 41.0243C80.6821 39.6671 80.6881 39.6256 80.8595 39.4881C80.9564 39.4103 81.0719 39.3586 81.1163 39.3731C81.1613 39.3878 81.2049 39.6071 81.2147 39.8674C81.2764 41.5135 81.5121 43.4214 81.7126 43.8969C81.8875 44.312 83.2794 46.0561 83.4356 46.0561C83.5299 46.0561 83.6326 45.5485 83.9516 43.5054C84.1112 42.4834 84.2851 41.5028 84.338 41.3264C84.4487 40.9575 84.6515 40.781 84.7647 40.9548C84.8432 41.0752 84.8393 41.1298 84.5774 43.5552C84.3198 45.9397 84.3114 46.6844 84.5343 47.3314C84.7502 47.9582 85.1501 48.7632 85.3115 48.8959C85.5123 49.0612 85.7649 48.8001 86.6009 47.5635C87.4142 46.3604 87.711 46.0069 87.8409 46.0865C87.9525 46.1549 87.7649 46.5973 86.7521 48.652C85.9989 50.1802 85.858 50.4199 85.6735 50.4864C85.523 50.5407 87.8753 50.5646 93.7654 50.5687C98.3327 50.5718 102.038 50.5467 102 50.5127C101.961 50.4787 100.722 49.551 99.2464 48.4509C92.5125 43.4318 85.6061 37.9102 80.3884 33.3743C72.9889 26.9414 68.6004 22.3382 61.556 13.6204C58.554 9.90525 53.804 3.75677 51.6095 0.745378C51.3101 0.334576 51.046 -0.000872807 51.0227 1.70602e-06C50.9994 0.000803343 50.8479 0.187365 50.6862 0.41452ZM56.5936 18.3267C56.8079 18.955 56.5386 22.4573 56.2049 23.3826C55.9211 24.1698 56.1467 24.2589 57.1192 23.7438C58.8547 22.8246 59.7502 21.8384 60.2845 20.258C60.6866 19.0685 61.0601 18.4361 61.3604 18.4361C61.5119 18.4361 61.6775 18.8864 61.6775 19.298C61.6775 19.8579 61.7606 20.3189 61.8692 20.3602C61.9238 20.381 62.252 20.2497 62.5985 20.0686C63.331 19.6855 63.684 19.6534 63.7205 19.9665C63.7526 20.2415 63.3779 20.7634 62.7853 21.2689C61.5208 22.3477 61.1902 22.9939 60.7297 25.2864C60.3881 26.9878 60.3574 27.2389 60.4793 27.3392C60.6244 27.4586 61.8602 27.4309 62.67 27.2902C63.6309 27.1233 64.2334 26.9282 64.6893 26.6367C65.1515 26.341 65.3855 26.3122 65.5064 26.536C65.6445 26.7919 65.4752 27.1996 65.092 27.534C64.6477 27.9217 63.9809 28.1761 62.7515 28.427C62.1898 28.5416 61.648 28.6889 61.5477 28.7541C61.374 28.8668 61.3671 28.8982 61.4061 29.3933C61.4288 29.6797 61.4965 30.1764 61.5566 30.4971C61.7154 31.3435 61.8202 32.5385 61.8956 34.3595C61.9611 35.9409 62.0453 36.5896 62.2315 36.9466C62.3585 37.1899 62.7047 37.5113 63.3533 37.988C64.6126 38.9135 65.7257 39.9977 65.9983 40.5644C66.1477 40.8751 66.0707 41.133 65.7946 41.2463C65.4592 41.384 64.9667 41.2264 64.7087 40.8987C64.2788 40.3523 63.5997 39.7391 63.1095 39.4544C62.3807 39.0311 61.2467 38.5381 61.0621 38.5641C60.9198 38.5843 60.9035 38.6383 60.8839 39.1577C60.8405 40.3069 61.2539 41.7348 61.9467 42.8287C62.4896 43.6857 62.9591 44.219 64.2992 45.5006C64.9227 46.0968 65.4233 46.5941 65.4116 46.6057C65.3998 46.6173 64.9105 46.5301 64.3242 46.412C63.7379 46.2939 63.1258 46.2065 62.9641 46.2178C62.6377 46.2406 62.6469 46.2083 62.7479 46.9746C62.8034 47.3956 62.7046 47.6594 62.4912 47.6594C62.2847 47.6594 61.9073 47.186 61.6227 46.57C61.0161 45.257 60.8494 44.9574 60.5282 44.6032C60.3411 44.3969 60.0427 44.1291 59.8651 44.008C59.2382 43.5804 56.8239 42.4667 56.2979 42.3625L56.067 42.3167L56.1176 42.7471C56.2753 44.0895 57.2059 46.7888 57.6146 47.0893C57.888 47.2903 58.1485 47.6759 58.1485 47.8795C58.1485 48.1436 57.9137 48.3153 57.5523 48.3153C56.5786 48.3153 55.0607 46.0849 55.0607 44.6543C55.0607 44.2223 54.8955 43.7005 54.6631 43.3985C54.559 43.2631 54.2882 43.0624 54.0614 42.9524C53.7044 42.7793 53.5634 42.7531 53.0131 42.7574C51.3211 42.7709 48.8383 43.9632 48.1786 45.079C48.079 45.2476 47.8813 45.8384 47.7394 46.3918C47.4544 47.5038 47.2915 47.9203 47.0631 48.1213C46.8442 48.3138 46.6638 48.2481 46.4955 47.9144C46.3681 47.6618 46.3485 47.4772 46.3485 46.5298C46.3485 45.0659 46.4246 44.8974 47.5944 43.7699C48.4507 42.9446 48.6681 42.6287 48.5099 42.4398C48.2777 42.1625 47.0292 42.4839 45.6293 43.1814C43.9524 44.017 43.4019 44.521 42.8079 45.7646C42.5878 46.2255 42.3515 46.7171 42.2828 46.857C42.1076 47.2136 41.6886 47.6594 41.5285 47.6594C41.2177 47.6594 41.0678 47.084 41.2463 46.5762C41.2909 46.4495 41.3082 46.2962 41.2848 46.2357C41.2469 46.138 41.2111 46.1385 40.9648 46.2405C40.8123 46.3036 40.437 46.5007 40.131 46.6785C39.4639 47.0662 39.1324 47.1546 39.0589 46.9647C38.9642 46.7202 39.3589 46.1763 40.4303 45.075C42.1434 43.3141 42.2528 43.125 42.8128 40.9548C43.0351 40.093 43.2396 39.3119 43.2671 39.2189L43.3173 39.0498L43.0316 39.1691C42.8745 39.2347 42.4688 39.4025 42.13 39.5421C40.8293 40.0779 40.1267 40.5142 39.4225 41.2238C38.8 41.8511 38.4451 41.8459 38.4451 41.2095C38.4451 40.7471 38.7689 40.1866 39.3958 39.5643C39.9375 39.0265 40.0544 38.9539 41.1542 38.472C41.8649 38.1605 41.9338 37.9168 41.7206 36.4675C41.5506 35.3111 41.4594 33.7295 41.4594 31.9382V30.273L40.3509 29.8071C39.7412 29.551 38.9886 29.1947 38.6784 29.0155C38.0418 28.6477 37.0011 27.6632 36.8048 27.2431C36.5621 26.7234 36.6975 26.3131 37.0803 26.4083C37.1799 26.4331 37.5222 26.6304 37.8409 26.8468C38.1595 27.0631 38.6988 27.3805 39.0393 27.5521C39.6331 27.8516 42.3547 28.9388 42.4007 28.8951C42.4441 28.8538 42.0407 26.6261 41.8922 26.088C41.6822 25.3264 41.2369 24.4457 40.8324 23.9919C40.3773 23.4813 39.8108 23.095 38.459 22.3736C37.8399 22.0432 37.3456 21.7608 37.3604 21.7461C37.3753 21.7313 37.8623 21.6674 38.4426 21.6039C39.9691 21.437 40.0661 21.3595 39.8751 20.4595C39.739 19.8179 39.74 19.4976 39.8786 19.3835C40.1532 19.1576 40.7991 19.7314 41.5745 20.8899C42.5343 22.324 44.5888 24.0059 45.9675 24.4862C46.7876 24.772 47.0806 24.6223 46.8555 24.0327C46.4441 22.9552 46.3744 22.6818 46.3052 21.8741C46.2188 20.8652 46.0749 20.2452 45.7875 19.6432C45.6715 19.4001 45.5563 19.0943 45.5315 18.9636C45.4338 18.4491 45.8498 18.382 46.4269 18.8192C47.0838 19.3168 47.533 20.2682 47.7805 21.6859C47.9489 22.65 48.1635 23.4291 48.3186 23.639C48.4929 23.8749 49.5775 23.9464 51.3533 23.8391C54.4088 23.6545 55.0549 23.4233 55.3523 22.4078C55.3993 22.2475 55.4657 21.444 55.4999 20.6223C55.5746 18.8289 55.6479 18.4382 55.9588 18.1789C56.2712 17.9183 56.4701 17.9647 56.5936 18.3267ZM58.9744 23.9765C58.68 24.0953 57.9537 24.6156 57.754 24.8508C57.499 25.1512 57.5097 25.3551 57.8004 25.7328C58.0941 26.1145 58.4531 26.3363 58.6678 26.2688C59.0968 26.1338 59.6338 23.9766 59.2513 23.9244C59.1907 23.916 59.0661 23.9395 58.9744 23.9765ZM43.2926 25.4411C43.2467 25.5261 43.2293 25.6961 43.2541 25.8189C43.3547 26.3173 43.7595 26.4537 44.1205 26.1109C44.3854 25.8592 44.3807 25.7088 44.1005 25.4751C43.8111 25.2337 43.4136 25.217 43.2926 25.4411ZM49.8059 25.5479C48.3454 25.7729 47.0541 26.1981 46.2751 26.7106C44.6692 27.7672 43.5566 29.6279 43.1827 31.8818C43.0125 32.9082 43.0739 34.4559 43.3245 35.4526C43.894 37.7172 44.9525 39.0158 47.0875 40.0687C48.5228 40.7766 50.0529 41.1609 51.698 41.2264C54.3614 41.3326 55.8098 40.7458 57.7115 38.7901C58.797 37.6737 59.5838 36.448 60.0643 35.1247C60.6362 33.5496 59.7857 30.2616 58.2947 28.2834C56.719 26.1927 54.9149 25.4198 51.6551 25.4392C51.0009 25.4431 50.1688 25.492 49.8059 25.5479ZM53.3259 29.5843C54.5613 29.8975 55.4836 30.6298 56.0044 31.7111C56.342 32.4117 56.458 32.8915 56.4564 33.5796C56.454 34.6662 56.0195 35.6941 55.2568 36.4179C54.7086 36.9381 54.3283 37.1643 53.5535 37.4312C53.0133 37.6173 52.8754 37.634 51.8625 37.6359C50.839 37.6379 50.7177 37.6233 50.1744 37.4334C48.34 36.7921 47.2648 35.2661 47.2688 33.3093C47.2719 31.812 47.8 30.6978 48.7747 30.1327C49.7962 29.5406 52.0716 29.2663 53.3259 29.5843ZM50.9634 30.8289C49.0299 31.2072 48.413 33.1059 49.6246 34.9491C50.0106 35.5366 50.4788 35.9632 50.9937 36.1968C51.3464 36.3569 51.4752 36.3771 51.9638 36.3491C52.6577 36.3093 53.1855 36.0858 53.9433 35.5107C54.5745 35.0318 54.8983 34.6002 54.9597 34.1556C55.0289 33.6554 54.8589 32.8592 54.5483 32.229C54.1056 31.3305 53.733 31.0605 52.6535 30.8558C52.0592 30.7431 51.4516 30.7334 50.9634 30.8289ZM58.6618 40.1806C58.3793 40.3718 57.9781 40.8388 57.8421 41.1347C57.7214 41.3974 57.8874 41.5433 58.5883 41.7903C59.5743 42.1377 59.9634 42.0495 59.8869 41.4962C59.8257 41.0535 59.55 40.3697 59.3545 40.1759C59.1391 39.9624 58.9828 39.9634 58.6618 40.1806ZM44.218 41.0693C43.872 41.4393 43.6809 42.367 43.9311 42.4621C44.2166 42.5707 45.5288 41.9476 45.6209 41.6596C45.6766 41.4859 45.5088 41.3176 45.0326 41.0696C44.5809 40.8342 44.4379 40.8342 44.218 41.0693ZM64.005 52.0502C63.9488 52.1403 63.8235 52.3617 63.7266 52.5421C63.5922 52.7922 63.5022 52.8756 63.3475 52.8933C63.1731 52.9132 63.1282 52.8774 63.0277 52.6382C62.889 52.3081 62.8168 52.2532 62.5193 52.2517C62.2301 52.2503 62.1186 52.3664 62.1186 52.6689C62.1186 53.4509 62.9904 54.048 63.6473 53.7158C64.0361 53.5192 64.265 53.2344 64.469 52.6939L64.6385 52.2447L64.4685 52.0655C64.2576 51.843 64.1364 51.839 64.005 52.0502ZM96.6802 52.3096C96.3244 53.0082 96.0948 53.081 95.8322 52.5784C95.6742 52.2759 95.4984 52.1978 95.1634 52.2811C94.9382 52.3371 94.8819 52.5374 94.985 52.9167C95.093 53.3143 95.4563 53.672 95.8621 53.7803C96.448 53.9367 96.9589 53.5671 97.2668 52.7642C97.4444 52.3007 97.4437 52.2128 97.2613 52.0319C97.0281 51.8008 96.9108 51.8568 96.6802 52.3096ZM75.7252 54.7746C75.6204 54.9068 75.5728 55.073 75.5728 55.3076C75.5728 55.7622 75.3953 57.0813 75.1652 58.3357C74.8738 59.9246 74.2281 62.7533 74.1709 62.6912C74.1426 62.6606 73.9967 61.9795 73.8465 61.1779C73.1809 57.6242 72.5612 55.3869 72.122 54.9516C71.9697 54.8007 71.9586 54.7999 71.7471 54.9237C71.5377 55.0464 71.5289 55.0725 71.5213 55.6004C71.5133 56.1587 71.5164 66.2486 71.5247 66.4768C71.5311 66.6548 71.8203 66.8987 72.0247 66.8987C72.1541 66.8987 72.2261 66.8329 72.307 66.6411C72.4007 66.4187 72.4054 66.0325 72.3407 63.8171C72.2468 60.596 72.2477 57.7612 72.3425 57.9957C72.4715 58.3148 73.1387 60.9572 73.2912 61.7527C73.3748 62.1891 73.4721 63.0296 73.5073 63.6206C73.5882 64.9788 73.7345 65.3116 74.2 65.1958C74.483 65.1254 74.6183 64.7984 74.7652 63.8304C74.8365 63.361 75.0887 62.1529 75.3257 61.1456L75.7566 59.3143L75.8302 63.2582C75.8985 66.9206 75.9131 67.2091 76.0357 67.2978C76.2205 67.4315 76.4296 67.3575 76.6218 67.0903C76.838 66.7899 76.8597 66.1374 76.756 63.0727C76.7125 61.7901 76.6409 59.4289 76.5966 57.8256C76.5524 56.2223 76.4866 54.8367 76.4504 54.7466C76.3523 54.5018 75.9287 54.5182 75.7252 54.7746ZM14.2095 54.7642C14.0425 54.8339 13.9487 54.9455 13.8629 55.1766C13.6552 55.7361 13.0184 58.1016 12.7943 59.1455C12.6748 59.7022 12.3957 60.7315 12.1739 61.433C11.9522 62.1344 11.6508 63.0936 11.5041 63.5646C11.3575 64.0356 11.2109 64.4209 11.1782 64.4209C11.0935 64.4209 11.0181 57.2723 11.0964 56.6546C11.1778 56.0121 11.0802 55.2423 10.9008 55.1123C10.8307 55.0615 10.6657 55.0199 10.5343 55.0199C10.1005 55.0199 10.0898 55.0788 10.113 57.3316C10.1245 58.445 10.1716 59.8151 10.2177 60.3763C10.2638 60.9374 10.3141 62.6099 10.3296 64.0929L10.3577 66.7894L10.5469 66.9533C10.651 67.0435 10.8278 67.1173 10.9397 67.1173C11.291 67.1173 11.4203 66.8767 11.6418 65.8108C11.7537 65.2726 12.0252 64.2068 12.2452 63.4423C12.4651 62.6779 12.8218 61.2981 13.0376 60.3763C13.437 58.6713 13.6002 58.1535 13.7385 58.1535C13.7916 58.1535 13.8158 59.4584 13.8158 62.3277C13.8158 66.9415 13.8042 66.8258 14.2659 66.8258C14.8735 66.8258 14.9322 66.6126 14.7892 64.9243C14.6358 63.1135 14.651 59.663 14.8221 57.4638C14.991 55.2922 14.9903 55.1462 14.8087 54.9475C14.5803 54.6972 14.4591 54.6602 14.2095 54.7642ZM65.2314 54.7965C65.1036 54.8738 64.9807 54.9966 64.9582 55.0695C64.6718 55.9996 64.0585 58.323 63.8784 59.16C63.7517 59.7488 63.4383 60.8864 63.1819 61.688C62.9254 62.4897 62.6289 63.4325 62.523 63.7832C62.417 64.134 62.2992 64.4209 62.2612 64.4209C62.1932 64.4209 62.1554 61.8942 62.1554 57.3645C62.1554 55.3332 62.1483 55.2222 62.0127 55.1236C61.7825 54.9563 61.4055 54.9916 61.2725 55.1928C61.1734 55.3427 61.163 55.6554 61.1944 57.5431C61.2143 58.7406 61.267 60.1139 61.3115 60.5949C61.3561 61.0759 61.4041 62.6657 61.4183 64.1277L61.4442 66.7861L61.6385 66.9517C61.8995 67.1743 62.2154 67.1672 62.3999 66.9347C62.4796 66.8343 62.5833 66.5309 62.6302 66.2606C62.7388 65.6365 63.0621 64.3609 63.4713 62.9422C63.6472 62.3325 63.8643 61.5058 63.9539 61.105C64.2972 59.5689 64.6279 58.3319 64.7198 58.2407C64.8478 58.1134 64.9119 59.9311 64.9122 63.6941C64.9124 66.1172 64.928 66.524 65.0269 66.6638C65.2638 66.9992 65.9282 66.7881 65.9503 66.3703C65.9613 66.1647 65.9735 66.3875 65.8268 64.1183C65.7166 62.4125 65.7121 61.8935 65.7898 59.8551C65.8384 58.5786 65.9214 57.0422 65.9742 56.441C66.0797 55.2402 66.0425 55.0035 65.7125 54.7743C65.5005 54.6271 65.5126 54.6266 65.2314 54.7965ZM98.1803 54.7284C98.0995 54.759 97.9778 54.8453 97.9098 54.9202C97.7636 55.0815 97.0755 57.4987 96.7168 59.1111C96.5773 59.738 96.2813 60.8202 96.059 61.516C95.8367 62.2119 95.55 63.1255 95.4218 63.5464C95.2936 63.9672 95.1629 64.3386 95.1314 64.3717C95.0189 64.4897 94.9851 63.4626 94.9904 60.0848C94.9934 58.2009 94.9961 56.3542 94.9964 55.981C94.9967 55.4358 94.9715 55.2747 94.8679 55.1612C94.6364 54.9076 94.0438 55.029 94.0197 55.3348C93.9782 55.8605 94.0594 59.4249 94.141 60.6678C94.1991 61.5496 94.2466 63.281 94.2468 64.5153L94.247 66.7596L94.4275 66.9384C94.6471 67.1561 94.9983 67.1742 95.1962 66.978C95.2734 66.9015 95.3748 66.6473 95.4213 66.4132C95.5806 65.6135 95.938 64.1907 96.2393 63.1576C96.4049 62.5898 96.7174 61.371 96.9338 60.4491C97.362 58.6248 97.4853 58.2132 97.6165 58.1698C97.68 58.1488 97.7052 58.5289 97.7129 59.6232C97.7187 60.4382 97.7435 62.3669 97.768 63.9091L97.8127 66.7131L98.0046 66.78C98.2688 66.8719 98.56 66.7851 98.7004 66.5727C98.8083 66.4095 98.8075 66.2488 98.6915 64.6244C98.5904 63.2106 98.5747 62.3697 98.6133 60.4491C98.6399 59.1264 98.6909 57.7163 98.7267 57.3155C98.9175 55.1751 98.9175 55.1795 98.7243 54.9748C98.4855 54.7217 98.3546 54.6624 98.1803 54.7284ZM17.3186 54.8777C17.1353 55.0216 17.1146 55.0758 17.1554 55.3045C17.4336 56.8669 17.4447 57.1119 17.4576 61.9957C17.4675 65.7716 17.4906 66.8459 17.5636 66.9331C17.6965 67.0919 17.98 67.0707 18.1641 66.8882C18.3214 66.7322 18.3216 66.727 18.271 64.0642L18.2204 61.3965L18.7172 61.0321C19.6273 60.3648 20.1248 59.3698 20.1932 58.0804C20.2362 57.2714 20.1449 56.7548 19.8502 56.137C19.4738 55.3482 18.7463 54.8202 17.9375 54.7489C17.5907 54.7183 17.4966 54.7379 17.3186 54.8777ZM28.564 54.9389C28.4457 55.0686 28.4119 55.3147 28.3258 56.6764C28.1403 59.6092 27.8334 62.599 27.7177 62.599C27.6907 62.599 27.6124 62.0824 27.5438 61.4512C27.475 60.8199 27.3523 59.9661 27.2709 59.5539C27.1896 59.1416 27.1229 58.5993 27.1229 58.3489C27.1229 58.0984 27.0402 57.3939 26.9391 56.7833C26.8381 56.1727 26.7553 55.5465 26.7553 55.3918C26.7553 55.0664 26.6509 54.9565 26.2858 54.8978C26.0503 54.8599 26.0158 54.8759 25.9471 55.0551C25.8556 55.2936 25.8723 55.4334 26.4261 59.0638C26.6523 60.5464 26.9372 62.2189 27.0591 62.7804C27.4013 64.3553 27.4013 64.3234 27.0575 65.5221C26.8914 66.1017 26.7553 66.6474 26.7553 66.7347C26.7553 67.0602 27.3138 67.1534 27.5949 66.8748C27.7254 66.7454 27.8366 66.4128 28.0639 65.4719C28.2278 64.7936 28.4138 63.9272 28.4773 63.5464C28.6648 62.4223 29.3978 56.1016 29.4259 55.3673C29.4384 55.0405 29.3019 54.8843 28.955 54.8285C28.7584 54.7969 28.6711 54.8216 28.564 54.9389ZM38.1953 54.8982C37.9431 54.9612 37.8177 55.0351 37.7767 55.145C37.7445 55.2314 37.7233 57.1652 37.7297 59.4424C37.7418 63.7734 37.7204 64.1676 37.4065 65.3984C37.2016 66.2019 37.031 66.5028 36.6796 66.6806C36.5184 66.762 36.3865 66.8585 36.3865 66.8949C36.3865 67.0365 36.7831 67.2631 37.031 67.2631C37.3827 67.2631 37.8524 66.7937 38.0626 66.2322C38.4113 65.3009 38.4629 64.5454 38.4982 59.8479L38.5313 55.4571H39.1781C39.7866 55.4571 39.8274 55.4668 39.8692 55.6211C39.8935 55.7112 39.9147 56.2934 39.9161 56.9146C39.9175 57.5359 39.9697 58.5853 40.032 59.2467C40.1016 59.9849 40.1613 61.6656 40.1868 63.5998C40.2151 65.7561 40.2543 66.785 40.3108 66.86C40.4489 67.0433 40.8167 67.0752 41.0092 66.9205L41.1786 66.7847L41.0981 65.5481C41.0539 64.8681 40.9845 63.3113 40.9439 62.0889C40.9032 60.8664 40.8238 59.2266 40.7674 58.445C40.7088 57.6325 40.6818 56.5841 40.7044 55.9967L40.744 54.9695L40.3848 54.9203C39.6501 54.8198 38.5541 54.8087 38.1953 54.8982ZM57.9928 54.9631C57.8921 55.1496 57.9384 58.1919 58.1138 62.9148C58.1721 64.4847 58.2203 65.9741 58.2209 66.2246C58.2222 66.7363 58.3725 66.9716 58.6982 66.9716C58.9975 66.9716 59.1176 66.7085 59.0335 66.2375C58.8921 65.446 58.7885 62.6966 58.7577 58.9187C58.73 55.5261 58.712 55.0408 58.6098 54.9288C58.4419 54.7448 58.1004 54.7639 57.9928 54.9631ZM81.1099 54.8547C80.9481 54.9636 80.8846 55.2706 80.8344 56.1859C80.6965 58.7002 80.339 62.3565 80.2084 62.5892C80.1776 62.6439 80.111 62.2668 80.0603 61.7511C80.0096 61.2355 79.8889 60.3725 79.7922 59.8335C79.6956 59.2944 79.6163 58.6549 79.6162 58.4124C79.616 58.1698 79.5333 57.4812 79.4324 56.882C79.3314 56.2829 79.2488 55.6392 79.2488 55.4517C79.2488 55.0488 79.139 54.9304 78.7546 54.9187C78.3123 54.9054 78.2991 55.052 78.5775 56.8964C79.1718 60.8336 79.3461 61.8999 79.5516 62.8541C79.8857 64.4055 79.8857 64.2734 79.5506 65.4591C79.3846 66.0465 79.2488 66.6041 79.2488 66.6983C79.2488 66.9242 79.3796 67.0444 79.6251 67.0444C80.0969 67.0444 80.1796 66.9149 80.4899 65.6891C80.9305 63.9484 81.1818 62.2407 81.6735 57.6457C81.926 55.2863 81.9355 55.0706 81.7918 54.9524C81.6571 54.8415 81.222 54.7792 81.1099 54.8547ZM84.7996 54.8654C84.2113 55.0192 83.5762 55.4993 83.3165 55.9866C83.1528 56.2938 83.1373 57.0373 83.2925 57.1347C83.5837 57.3175 83.8831 57.1285 84.2393 56.5371C84.6123 55.918 85.1651 55.6485 85.7224 55.814C86.3871 56.0114 86.6612 56.5017 86.7272 57.6113C86.7811 58.5184 86.6474 58.959 86.1564 59.4915C85.8766 59.795 85.6931 59.9228 85.4033 60.0163C84.9034 60.1776 84.7629 60.3066 84.7629 60.6043C84.7629 60.8734 84.9478 61.0098 85.4299 61.0962C85.8565 61.1726 86.3394 61.5219 86.5141 61.8802C86.7106 62.2832 86.8533 63.4507 86.8017 64.2326C86.7577 64.9001 86.49 65.7163 86.2217 66.001C85.9892 66.2477 85.6995 66.3885 85.4245 66.3885C85.1614 66.3885 85.0763 66.2383 84.8637 65.3993C84.7154 64.8144 84.4949 64.5455 84.1917 64.5801C83.9113 64.6122 83.778 65.0136 83.887 65.4978C83.9975 65.9893 84.3979 66.7585 84.6294 66.9243C84.8804 67.1042 85.7965 67.1753 86.1928 67.0457C86.9545 66.7964 87.4639 65.9294 87.6308 64.598C87.7365 63.755 87.5637 62.0083 87.3266 61.5228C87.1168 61.0932 86.737 60.6748 86.4502 60.5569L86.2276 60.4655L86.4378 60.3388C86.722 60.1675 87.1779 59.4699 87.3609 58.9263C87.4818 58.5673 87.5116 58.2848 87.5152 57.4612C87.5197 56.4856 87.5108 56.4227 87.313 56.0234C87.1993 55.7937 86.9842 55.5061 86.8351 55.3842C86.3299 54.9711 85.3504 54.7215 84.7996 54.8654ZM22.6762 54.9522C21.671 55.0675 21.2413 55.2434 21.2413 55.5396C21.2413 55.7886 21.5539 55.9086 22.1337 55.8822C22.6473 55.8588 22.6675 55.8643 22.7182 56.0401C22.747 56.1403 22.7733 56.8782 22.7768 57.6798C22.7802 58.4815 22.8385 60.1376 22.9064 61.3601C23.0107 63.2381 23.0162 63.7975 22.9423 64.9675C22.8334 66.6885 22.9085 67.0444 23.3807 67.0444C23.5247 67.0444 23.6293 66.9859 23.7139 66.8579C23.8468 66.6569 23.8412 66.0969 23.6688 62.3075C23.6296 61.4457 23.5859 59.601 23.5717 58.2082L23.5459 55.6758H24.0058C24.51 55.6758 24.6968 55.569 24.6968 55.2811C24.6968 54.967 24.4871 54.8732 23.8087 54.8837C23.4683 54.889 22.9586 54.9198 22.6762 54.9522ZM48.4622 54.9568C48.2363 55.1836 48.4738 62.7643 48.7839 65.2225C48.9286 66.3703 49.0807 66.8536 49.307 66.8854C49.6829 66.9384 49.6852 66.8193 49.3978 62.2012C49.347 61.3825 49.3516 61.098 49.4164 61.0582C49.5699 60.9642 50.1826 60.9101 50.5221 60.9605C50.843 61.0082 50.8538 61.0184 50.8968 61.3124C50.921 61.4789 50.9624 62.8121 50.9887 64.2751C51.0288 66.5048 51.0546 66.9557 51.1485 67.0626C51.2999 67.2351 51.5523 67.2233 51.7225 67.0358C51.8527 66.8923 51.8611 66.7687 51.8415 65.2686C51.83 64.3815 51.7721 62.4423 51.7129 60.9593C51.6537 59.4762 51.6053 57.7152 51.6052 57.0457C51.6052 55.5554 51.5294 55.133 51.2349 54.982C50.7515 54.7343 50.7751 54.5734 50.8349 57.707L50.889 60.5397L50.1027 60.5929C49.6702 60.6221 49.3049 60.6345 49.2909 60.6205C49.2769 60.6064 49.2412 59.357 49.2116 57.844C49.1726 55.849 49.1335 55.0731 49.0695 55.0205C48.9175 54.8955 48.5605 54.858 48.4622 54.9568ZM90.0729 54.9275C89.8028 54.9516 89.732 54.9955 89.5693 55.2392C89.4025 55.489 89.386 55.5687 89.4305 55.909C89.4583 56.1214 89.503 58.6471 89.5298 61.5215C89.5752 66.4017 89.5871 66.7564 89.7095 66.8779C89.8145 66.982 89.9914 67.0129 90.5972 67.0325C91.4282 67.0594 91.852 66.9801 92.0997 66.7513C92.3146 66.5529 92.3044 66.4194 92.0623 66.2627C91.9007 66.158 91.7262 66.1364 91.1433 66.1488L90.4239 66.1641V63.6606C90.4239 60.8459 90.373 61.0686 91.0164 61.0686C91.3221 61.0686 91.395 61.0402 91.5005 60.8808C91.5941 60.7391 91.6078 60.6453 91.556 60.4994C91.4632 60.238 91.1766 60.1468 90.7318 60.2371L90.3792 60.3087L90.3832 58.5935C90.3854 57.65 90.3603 56.6404 90.3275 56.3499L90.268 55.8215H90.7088C91.1686 55.8215 91.5214 55.7276 91.616 55.5801C91.7425 55.3829 91.6712 55.1619 91.4348 55.0191C91.1968 54.8752 90.8914 54.8547 90.0729 54.9275ZM5.23058 55.0661C4.94804 55.2959 4.919 55.7975 4.99289 59.1643C5.03046 60.873 5.04061 63.3083 5.01554 64.5761L4.96995 66.8812L5.14706 66.9766C5.38689 67.1059 6.20436 67.0861 6.60438 66.9413C7.29819 66.6902 7.8954 66.0054 8.28168 65.0183C8.43938 64.6152 8.47158 64.4159 8.46658 63.8743C8.45482 62.5959 8.02413 61.5201 7.1974 60.7042L6.71731 60.2305L6.98522 59.9583C7.36105 59.5764 7.77512 58.7583 7.90496 58.1409C8.16551 56.9023 7.64867 55.684 6.65938 55.2048C6.13363 54.9502 5.45423 54.8842 5.23058 55.0661ZM33.1726 55.0344C32.6982 55.6205 32.2407 57.3567 31.5728 61.105C30.9908 64.3718 30.7232 65.7559 30.5961 66.1594C30.4778 66.5349 30.4784 66.5535 30.6133 66.6513C30.6904 66.7072 30.8456 66.7529 30.9581 66.7529C31.237 66.7529 31.3331 66.5454 31.5671 65.4379C31.8446 64.1239 31.8717 64.0565 32.1216 64.0565C32.4032 64.0565 33.434 64.2541 33.6846 64.3562L33.8868 64.4386V65.6296C33.8868 66.7326 33.8973 66.8262 34.029 66.8961C34.2365 67.0062 34.4913 66.9885 34.6902 66.8504L34.8646 66.7294L34.8169 65.484C34.7907 64.7991 34.736 63.9936 34.6955 63.6941C34.655 63.3945 34.589 62.5091 34.5488 61.7264C34.5086 60.9437 34.4277 59.9099 34.3691 59.4289C34.3105 58.9479 34.1939 57.9477 34.11 57.2062C34.0261 56.4646 33.9333 55.6612 33.9037 55.4207L33.8501 54.9834L33.5497 54.9616C33.3674 54.9484 33.219 54.977 33.1726 55.0344ZM43.4256 55.0745C43.3623 55.1447 43.2864 55.3633 43.257 55.5605C43.1859 56.0369 43.3642 66.3797 43.447 66.5855C43.4825 66.6737 43.616 66.7994 43.7435 66.8648C44.2126 67.1052 45.3499 66.7542 45.9144 66.1946C46.635 65.4803 47.0247 63.6758 46.7138 62.4927C46.555 61.888 46.1922 61.2507 45.8241 60.9295C45.3952 60.5553 44.6835 60.1908 44.267 60.1321L43.9223 60.0835L43.8991 59.6469C43.8864 59.4067 43.9287 58.3999 43.9931 57.4093C44.0576 56.4188 44.0884 55.517 44.0616 55.4052C44 55.1483 43.8257 54.947 43.665 54.947C43.5966 54.947 43.4889 55.0043 43.4256 55.0745ZM54.2692 55.0226C54.1777 55.059 54.0701 55.1739 54.0303 55.2777C53.924 55.5547 53.9418 57.7543 54.0731 60.5864C54.1651 62.5689 54.1725 63.3737 54.1099 64.5583C53.9781 67.0526 53.9418 66.9406 54.8607 66.8781C55.368 66.8437 55.4893 66.8063 55.838 66.5768C56.3018 66.2716 56.6633 65.7692 56.9334 65.0546C57.1914 64.3726 57.2641 63.7764 57.1844 62.9962C57.0459 61.6379 56.7356 60.972 55.9761 60.4037C55.6385 60.1509 55.4934 60.09 55.1652 60.063L54.7655 60.0302L54.8038 58.8915C54.8767 56.7249 54.9176 56.0025 54.9833 55.7214C55.0629 55.381 54.9717 55.1424 54.7183 55.0279C54.5108 54.9342 54.4915 54.934 54.2692 55.0226ZM18.5199 55.9188C18.7416 56.0893 19.0228 56.3696 19.1448 56.5416C19.3652 56.8525 19.3666 56.8602 19.3666 57.8501C19.3666 58.8431 19.3658 58.8474 19.1023 59.3924C18.957 59.693 18.6904 60.1001 18.5098 60.297L18.1815 60.6551L18.0928 58.6209C17.991 56.2845 17.9839 55.6016 18.0616 55.6059C18.0919 55.6075 18.2982 55.7483 18.5199 55.9188ZM6.57902 56.0137C6.68327 56.0813 6.86501 56.3036 6.98301 56.5075C7.27945 57.0197 7.27989 57.5995 6.98456 58.4171C6.68445 59.2478 6.51417 59.552 6.19238 59.8326L5.91234 60.0768L5.86499 59.4249C5.77574 58.196 5.79375 56.0048 5.89396 55.9041C6.00461 55.793 6.31589 55.8428 6.57902 56.0137ZM33.5247 59.9026C33.6111 60.8445 33.7212 62.0251 33.7693 62.5261C33.8443 63.3068 33.8417 63.4462 33.7508 63.5013C33.6362 63.5707 32.6655 63.5102 32.3061 63.4112C32.0921 63.3522 32.0862 63.3388 32.1063 62.9565C32.1555 62.0196 32.7983 58.5782 33.096 57.6583L33.254 57.1697L33.3109 57.6798C33.3422 57.9604 33.4384 58.9606 33.5247 59.9026ZM44.7547 60.8549C45.2917 61.1209 45.6631 61.5256 45.8822 62.0831C46.108 62.6582 46.1096 63.677 45.8857 64.3963C45.6955 65.0074 45.204 65.7698 44.8488 66.0047C44.5774 66.1842 44.2532 66.2246 44.2532 66.0788C44.2532 66.0288 44.1713 64.8086 44.0711 63.3674C43.8816 60.6392 43.8818 60.6353 44.1863 60.6324C44.2506 60.6318 44.5064 60.732 44.7547 60.8549ZM55.5335 60.8898C55.7704 61.0437 56.2679 62.0328 56.4298 62.6719C56.6628 63.5918 56.3865 65.2533 55.9242 65.7114C55.729 65.905 55.0128 66.1972 54.9562 66.1064C54.9355 66.0732 54.8987 64.8395 54.8744 63.3648L54.8303 60.6836L55.0866 60.7248C55.2276 60.7474 55.4286 60.8218 55.5335 60.8898ZM6.57314 61.0086C6.82215 61.1211 7.31496 61.859 7.45759 62.3331C7.63992 62.9389 7.72733 64.0168 7.63507 64.5212C7.49707 65.2754 7.09498 65.8373 6.5005 66.1064C5.94645 66.3573 5.97821 66.4469 5.9241 64.482C5.89741 63.5135 5.87558 62.3165 5.87558 61.822V60.9228H6.12944C6.26906 60.9228 6.46874 60.9614 6.57314 61.0086ZM81.7069 69.7955C81.6733 69.9079 81.601 69.9595 81.477 69.9595C81.3734 69.9595 81.2004 70.0544 81.072 70.1816C80.8698 70.382 80.8517 70.437 80.8867 70.744C80.93 71.1256 81.1899 71.417 81.4867 71.417C81.599 71.417 81.6767 71.4734 81.7125 71.581C81.767 71.7442 81.7674 71.7442 81.7986 71.5896C81.8221 71.4735 81.9028 71.4228 82.1189 71.3886C82.489 71.3299 82.6703 71.0739 82.6602 70.6242C82.6544 70.366 82.6117 70.2637 82.4539 70.1291C82.3445 70.0358 82.173 69.9595 82.0729 69.9595C81.9531 69.9595 81.8678 69.9034 81.8235 69.7955L81.756 69.6315L81.7069 69.7955ZM5.92256 69.9048C5.95322 69.955 6.09231 70.1541 6.23171 70.3473L6.48521 70.6988L6.18039 71.1272C6.01277 71.3629 5.87558 71.5736 5.87558 71.5956C5.87558 71.7172 6.01857 71.5872 6.27442 71.2332C6.43315 71.0136 6.57211 70.834 6.58336 70.834C6.5999 70.834 6.88023 71.2167 7.13983 71.5936C7.16792 71.6344 7.21284 71.6462 7.23953 71.6197C7.26621 71.5932 7.14843 71.3741 6.97772 71.1329L6.66732 70.6943L6.9214 70.3451C7.25952 69.8805 7.29503 69.8137 7.20387 69.8137C7.1613 69.8137 7.01874 69.9771 6.88707 70.1768C6.75532 70.3765 6.62556 70.5404 6.59865 70.5412C6.57181 70.5419 6.42838 70.3785 6.27994 70.1781C6.1315 69.9777 5.97784 69.8137 5.93851 69.8137C5.8991 69.8137 5.89197 69.8547 5.92256 69.9048ZM7.87004 70.6317C7.69351 71.0837 7.53294 71.4945 7.51324 71.5445C7.49346 71.5947 7.51067 71.6356 7.55147 71.6356C7.59228 71.6356 7.66028 71.5372 7.70256 71.417C7.77792 71.2028 7.78975 71.1984 8.28182 71.1984C8.77985 71.1984 8.785 71.2004 8.88028 71.4352C8.93314 71.5654 8.99122 71.6358 9.00931 71.5914C9.06165 71.463 8.40703 69.8523 8.29351 69.83C8.22448 69.8165 8.08611 70.0784 7.87004 70.6317ZM9.50432 70.7247C9.50329 71.3459 9.51755 71.5215 9.54556 71.2348C9.58512 70.8308 9.60291 70.7959 9.77995 70.7755C9.94301 70.7567 10.0141 70.819 10.2578 71.1939C10.5185 71.595 10.6544 71.7272 10.6544 71.58C10.6544 71.5494 10.5386 71.354 10.3971 71.1456C10.2555 70.9373 10.1398 70.7305 10.1398 70.686C10.1398 70.6416 10.2333 70.4681 10.3478 70.3005C10.6492 69.8593 10.6715 69.8137 10.5859 69.8137C10.5435 69.8137 10.388 69.9941 10.2404 70.2145C10.021 70.542 9.93412 70.6154 9.76539 70.6154C9.56615 70.6154 9.55799 70.6007 9.5324 70.1963C9.51785 69.9659 9.5052 70.2036 9.50432 70.7247ZM11.2753 70.6909C11.0849 71.1732 10.9507 71.5892 10.9769 71.6152C11.0031 71.6412 11.0643 71.558 11.1129 71.4304C11.2004 71.2008 11.2065 71.1984 11.7036 71.1984C12.1957 71.1984 12.2075 71.2028 12.2829 71.417C12.3251 71.5372 12.3932 71.6356 12.434 71.6356C12.4748 71.6356 12.487 71.5783 12.4611 71.5081C12.0611 70.4243 11.7925 69.8137 11.7158 69.8137C11.6632 69.8137 11.4678 70.203 11.2753 70.6909ZM13.0112 69.9554C12.7147 70.2493 12.7148 71.145 13.0113 71.458C13.2487 71.7084 13.7497 71.7078 14.0029 71.4567C14.1856 71.2756 14.2446 71.0526 14.1099 71.0526C14.0694 71.0526 14.0363 71.0967 14.0363 71.1506C14.0363 71.3218 13.7764 71.4899 13.5115 71.4899C13.0863 71.4899 12.98 71.3573 12.9474 70.7861C12.9119 70.1625 13.0542 69.9303 13.4718 69.9303C13.7438 69.9303 14.0363 70.1212 14.0363 70.2987C14.0363 70.3526 14.0694 70.3967 14.1099 70.3967C14.2446 70.3967 14.1856 70.1737 14.0029 69.9926C13.7688 69.7605 13.2282 69.7403 13.0112 69.9554ZM14.7757 69.9554C14.4791 70.2493 14.4793 71.145 14.7758 71.458C15.0132 71.7084 15.5142 71.7078 15.7674 71.4567C15.9501 71.2756 16.0091 71.0526 15.8743 71.0526C15.8339 71.0526 15.8008 71.0967 15.8008 71.1506C15.8008 71.3218 15.5409 71.4899 15.276 71.4899C14.8508 71.4899 14.7445 71.3573 14.7119 70.7861C14.6764 70.1625 14.8187 69.9303 15.2363 69.9303C15.5083 69.9303 15.8008 70.1212 15.8008 70.2987C15.8008 70.3526 15.8339 70.3967 15.8743 70.3967C16.0091 70.3967 15.9501 70.1737 15.7674 69.9926C15.5333 69.7605 14.9927 69.7403 14.7757 69.9554ZM16.389 70.7247C16.389 71.2834 16.4174 71.6356 16.4625 71.6356C16.5034 71.6356 16.536 71.4413 16.536 71.1984C16.536 70.7698 16.5401 70.7611 16.7382 70.7618C16.9044 70.7623 16.9909 70.8401 17.2242 71.199C17.3803 71.4392 17.5374 71.6356 17.5734 71.6356C17.6801 71.6356 17.6534 71.5759 17.3439 71.1243L17.049 70.6937L17.3071 70.2937C17.5753 69.8781 17.6027 69.8135 17.5102 69.8141C17.4798 69.8143 17.3392 69.9945 17.1977 70.2145C16.9882 70.5402 16.9028 70.6147 16.7382 70.615C16.5421 70.6154 16.536 70.6033 16.536 70.2145C16.536 69.9941 16.5029 69.8137 16.4625 69.8137C16.4174 69.8137 16.389 70.1659 16.389 70.7247ZM18.1869 69.9926C18.027 70.1511 18.0064 70.2345 18.0064 70.7247C18.0064 71.2148 18.027 71.2983 18.1869 71.4567C18.4073 71.6753 18.8647 71.7008 19.1047 71.5081C19.4301 71.2468 19.4648 70.3072 19.1612 69.9777C18.9428 69.7407 18.4331 69.7485 18.1869 69.9926ZM19.8444 70.7247C19.8444 71.2834 19.8729 71.6356 19.918 71.6356C19.9627 71.6356 19.9915 71.3077 19.9915 70.7975V69.9595H20.4283C20.6685 69.9595 20.8855 69.9267 20.9105 69.8866C20.9392 69.8405 20.752 69.8137 20.4002 69.8137H19.8444V70.7247ZM21.3902 69.9576C21.1954 70.1508 21.1442 70.3884 21.183 70.9203C21.2226 71.4625 21.3867 71.6356 21.8615 71.6356C22.0996 71.6356 22.2127 71.592 22.3497 71.4475C22.5049 71.2838 22.5279 71.1904 22.5279 70.7247C22.5279 70.2589 22.5049 70.1656 22.3497 70.0018C22.1208 69.7602 21.613 69.7368 21.3902 69.9576ZM23.741 70.7247C23.741 71.2834 23.7695 71.6356 23.8145 71.6356C23.8593 71.6356 23.8881 71.3077 23.8881 70.7975V69.9595H24.3292C24.5742 69.9595 24.7703 69.9271 24.7703 69.8866C24.7703 69.845 24.5497 69.8137 24.2557 69.8137H23.741V70.7247ZM25.2449 69.9926C25.085 70.1511 25.0644 70.2345 25.0644 70.7247C25.0644 71.2148 25.085 71.2983 25.2449 71.4567C25.4889 71.6987 25.9335 71.7024 26.2121 71.4649C26.3976 71.3068 26.4122 71.2534 26.4122 70.7356C26.4122 70.2501 26.3897 70.1531 26.2401 69.9953C25.999 69.7409 25.5001 69.7395 25.2449 69.9926ZM27.0535 69.9554C26.757 70.2493 26.7572 71.145 27.0537 71.458C27.2911 71.7084 27.7921 71.7078 28.0453 71.4567C28.228 71.2756 28.287 71.0526 28.1522 71.0526C28.1118 71.0526 28.0787 71.0967 28.0787 71.1506C28.0787 71.3218 27.8187 71.4899 27.5539 71.4899C27.1287 71.4899 27.0224 71.3573 26.9898 70.7861C26.9543 70.1625 27.0966 69.9303 27.5141 69.9303C27.7862 69.9303 28.0787 70.1212 28.0787 70.2987C28.0787 70.3526 28.1118 70.3967 28.1522 70.3967C28.287 70.3967 28.228 70.1737 28.0453 69.9926C27.8112 69.7605 27.2706 69.7403 27.0535 69.9554ZM28.4634 69.8589C29.1607 71.0514 29.1944 71.1316 29.0742 71.3134C29.0101 71.4104 28.8921 71.4899 28.8122 71.4899C28.7323 71.4899 28.6669 71.5227 28.6669 71.5627C28.6669 71.6649 28.9085 71.6536 29.056 71.5445C29.1739 71.4573 29.9288 69.8773 29.8777 69.8247C29.8139 69.7588 29.7118 69.916 29.5105 70.3906C29.3902 70.6742 29.2751 70.9064 29.2547 70.9066C29.2342 70.9067 29.0853 70.6715 28.9238 70.384C28.7623 70.0964 28.5842 69.8462 28.528 69.828C28.4718 69.8097 28.4427 69.8236 28.4634 69.8589ZM30.4117 70.4991C30.3688 71.2124 30.2809 71.4899 30.0979 71.4899C30.0238 71.4899 29.9902 71.5695 29.9902 71.7449C29.9902 71.8852 30.0233 72 30.0638 72C30.1042 72 30.1373 71.918 30.1373 71.8178C30.1373 71.637 30.1422 71.6356 30.799 71.6356C31.4049 71.6356 31.4606 71.6475 31.4606 71.7771C31.4606 71.8549 31.4937 71.9388 31.5342 71.9636C31.5779 71.9904 31.6077 71.9036 31.6077 71.7492C31.6077 71.6066 31.5746 71.4899 31.5342 71.4899C31.4894 71.4899 31.4606 71.1619 31.4606 70.6518V69.8137H30.9568H30.453L30.4117 70.4991ZM32.4568 70.0506C32.1219 70.8503 31.895 71.5042 31.9253 71.5821C31.9446 71.6315 32.0001 71.5654 32.0486 71.4352C32.1362 71.1998 32.1397 71.1984 32.637 71.1984C33.1267 71.1984 33.1388 71.203 33.2141 71.417C33.2564 71.5372 33.3256 71.6356 33.3677 71.6356C33.4099 71.6356 33.3586 71.4143 33.2536 71.1437C33.1486 70.8731 32.9918 70.4633 32.905 70.2328C32.8183 70.0024 32.7042 69.8138 32.6516 69.8138C32.599 69.8137 32.5113 69.9203 32.4568 70.0506ZM33.8133 70.7247C33.8133 71.2834 33.8417 71.6356 33.8868 71.6356C33.9273 71.6356 33.9603 71.4762 33.9603 71.2813V70.9269L34.38 70.8781C34.8828 70.8195 35.0631 70.6799 35.0631 70.349C35.0631 69.956 34.8579 69.8137 34.2912 69.8137H33.8133V70.7247ZM35.7417 69.8625C35.3197 70.0307 35.3385 71.4281 35.7649 71.5904C35.9182 71.6487 36.3402 71.6487 36.4935 71.5904C36.5968 71.5511 36.8276 71.2073 36.8276 71.0927C36.8276 70.9832 36.7036 71.0775 36.5921 71.2717C36.4822 71.4632 36.4265 71.4899 36.1368 71.4899C35.879 71.4899 35.7816 71.4544 35.6923 71.3279C35.5417 71.1148 35.5379 70.3399 35.6864 70.1298C35.9101 69.8131 36.4584 69.862 36.6198 70.2131C36.7245 70.441 36.855 70.456 36.7894 70.2328C36.7104 69.9635 36.474 69.8131 36.1394 69.8195C35.9721 69.8226 35.793 69.842 35.7417 69.8625ZM37.1217 69.8866C37.1217 69.9267 37.2375 69.9595 37.379 69.9595H37.6363V70.7568C37.6363 71.2097 37.6681 71.5736 37.7099 71.5992C37.7573 71.6282 37.7834 71.3448 37.7834 70.8018V69.9595H38.0775C38.2392 69.9595 38.3716 69.9267 38.3716 69.8866C38.3716 69.8437 38.1142 69.8137 37.7466 69.8137C37.379 69.8137 37.1217 69.8437 37.1217 69.8866ZM38.8127 70.7247V71.6356H39.2439C39.5688 71.6356 39.7229 71.5984 39.8688 71.4846C40.0861 71.3152 40.1254 71.02 39.9605 70.7965C39.8733 70.6782 39.8738 70.635 39.9639 70.4987C40.0924 70.3042 40.0272 69.9848 39.8384 69.8847C39.7648 69.8456 39.5039 69.8137 39.2586 69.8137H38.8127V70.7247ZM40.5772 70.7247V71.6356H41.1286C41.4471 71.6356 41.68 71.6049 41.68 71.5627C41.68 71.5216 41.4717 71.4899 41.2021 71.4899H40.7242V71.1255V70.7611H41.1653C41.4104 70.7611 41.6064 70.7288 41.6064 70.6882C41.6064 70.6477 41.4104 70.6154 41.1653 70.6154H40.7242V70.2874V69.9595H41.2021C41.4717 69.9595 41.68 69.9277 41.68 69.8866C41.68 69.8445 41.4471 69.8137 41.1286 69.8137H40.5772V70.7247ZM42.1211 70.6839C42.1211 71.1855 42.1523 71.5732 42.1946 71.5992C42.2406 71.6273 42.2681 71.4785 42.2681 71.2027V70.7611H42.8195H43.3709V71.2027C43.3709 71.4785 43.3985 71.6273 43.4445 71.5992C43.4865 71.5735 43.518 71.199 43.518 70.7247C43.518 70.2503 43.4865 69.8759 43.4445 69.8502C43.3988 69.8222 43.3709 69.9587 43.3709 70.2102V70.6154H42.8195H42.2681V70.2145C42.2681 69.9941 42.235 69.8137 42.1946 69.8137C42.1497 69.8137 42.1211 70.1524 42.1211 70.6839ZM44.0326 70.7247C44.0326 71.2834 44.0611 71.6356 44.1061 71.6356C44.147 71.6356 44.1797 71.4413 44.1797 71.1984V70.7611H44.6943H45.2089V71.1576C45.2089 71.3757 45.242 71.5744 45.2825 71.5992C45.33 71.6283 45.356 71.3206 45.356 70.729C45.356 70.1674 45.3276 69.8137 45.2825 69.8137C45.242 69.8137 45.2089 69.9941 45.2089 70.2145V70.6154H44.6943H44.1797V70.2145C44.1797 69.9941 44.1466 69.8137 44.1061 69.8137C44.0611 69.8137 44.0326 70.1659 44.0326 70.7247ZM46.093 69.9576C45.8982 70.1508 45.847 70.3884 45.8858 70.9203C45.9254 71.4625 46.0896 71.6356 46.5644 71.6356C46.8024 71.6356 46.9156 71.592 47.0525 71.4475C47.2077 71.2838 47.2308 71.1904 47.2308 70.7247C47.2308 70.2589 47.2077 70.1656 47.0525 70.0018C46.8236 69.7602 46.3158 69.7368 46.093 69.9576ZM47.7086 70.7247C47.7086 71.2834 47.7371 71.6356 47.7822 71.6356C47.8269 71.6356 47.8557 71.3077 47.8557 70.7975V69.9595H48.3336C48.6032 69.9595 48.8114 69.9277 48.8114 69.8866C48.8114 69.8445 48.5786 69.8137 48.26 69.8137H47.7086V70.7247ZM49.3429 69.8625C48.921 70.0307 48.9397 71.4281 49.3661 71.5904C49.647 71.6972 50.0355 71.6358 50.2041 71.458C50.508 71.1373 50.5003 70.2447 50.191 69.9592C50.0396 69.8193 49.582 69.7671 49.3429 69.8625ZM51.4582 69.8848C51.4582 69.9286 51.6092 70.2283 51.7937 70.5507C52.1149 71.1117 52.1243 71.1444 52.0126 71.3134C51.9484 71.4104 51.8305 71.4899 51.7506 71.4899C51.6706 71.4899 51.6052 71.5227 51.6052 71.5627C51.6052 71.6649 51.8469 71.6536 51.9943 71.5445C52.1123 71.4573 52.8672 69.8773 52.8161 69.8247C52.7499 69.7564 52.6428 69.9237 52.4522 70.3929C52.3375 70.6756 52.2226 70.9069 52.1971 70.9069C52.1717 70.9069 52.0261 70.678 51.8738 70.3984C51.6039 69.9032 51.4582 69.7231 51.4582 69.8848ZM53.1491 70.7247C53.1491 71.2834 53.1776 71.6356 53.2227 71.6356C53.2635 71.6356 53.2962 71.4413 53.2962 71.1984V70.7611H53.8108H54.3255V71.1984C54.3255 71.4413 54.3581 71.6356 54.399 71.6356C54.444 71.6356 54.4725 71.2834 54.4725 70.7247C54.4725 70.1659 54.444 69.8137 54.399 69.8137C54.3585 69.8137 54.3255 69.9941 54.3255 70.2145V70.6154H53.8108H53.2962V70.2145C53.2962 69.9941 53.2631 69.8137 53.2227 69.8137C53.1776 69.8137 53.1491 70.1659 53.1491 70.7247ZM55.0607 70.7247C55.0607 71.2257 55.0865 71.6356 55.1181 71.6356C55.1496 71.6356 55.4225 71.2852 55.7246 70.857L56.2737 70.0784L56.2946 70.857C56.3242 71.959 56.4575 71.8506 56.4575 70.7247C56.4575 70.1826 56.4286 69.8137 56.386 69.8137C56.3466 69.8137 56.0654 70.1621 55.7611 70.588L55.2077 71.3623V70.588C55.2077 70.1204 55.1786 69.8137 55.1342 69.8137C55.0891 69.8137 55.0607 70.1659 55.0607 70.7247ZM56.9883 70.7065L57.009 71.5992L57.4546 71.6205C57.8179 71.638 57.9366 71.6134 58.0979 71.4877C58.3215 71.3133 58.3594 71.0247 58.1839 70.8325C58.0859 70.7251 58.0852 70.6854 58.1781 70.5079C58.2906 70.2929 58.2678 70.1474 58.0892 69.9413C58.0038 69.8428 57.8635 69.8137 57.4732 69.8137H56.9676L56.9883 70.7065ZM58.8102 70.7247V71.6356H59.3616C59.6802 71.6356 59.913 71.6049 59.913 71.5627C59.913 71.5211 59.6911 71.4899 59.3943 71.4899H58.8756L58.8981 71.1437L58.9205 70.7975L59.38 70.7758C59.9879 70.7471 59.9728 70.6154 59.3616 70.6154H58.8837V70.2874V69.9595H59.3984C59.6924 69.9595 59.913 69.9282 59.913 69.8866C59.913 69.8445 59.6802 69.8137 59.3616 69.8137H58.8102V70.7247ZM60.3541 70.6839C60.3541 71.1855 60.3853 71.5732 60.4276 71.5992C60.4729 71.6269 60.5012 71.5063 60.5012 71.2859V70.9276L60.9607 70.8813C61.3016 70.8469 61.4534 70.7951 61.5488 70.6807C61.7288 70.4648 61.7091 70.2028 61.497 69.9926C61.3422 69.8391 61.2483 69.8137 60.8353 69.8137H60.3541V70.6839ZM62.2308 69.9574C61.9314 70.2852 61.9543 71.2546 62.2673 71.5058C62.4886 71.6834 62.9331 71.673 63.1747 71.4846C63.3632 71.3376 63.4426 71.0526 63.2949 71.0526C63.2545 71.0526 63.2214 71.0995 63.2214 71.1568C63.2214 71.481 62.5539 71.6197 62.3051 71.3471C62.1382 71.1643 62.0772 70.6326 62.1857 70.3068C62.3435 69.8327 62.9692 69.7708 63.2025 70.2061C63.3016 70.3908 63.3296 70.4082 63.353 70.2991C63.3688 70.2254 63.3068 70.0861 63.2152 69.9894C62.9956 69.7576 62.43 69.7392 62.2308 69.9574ZM63.8986 70.7107C63.8892 71.2754 63.9103 71.6276 63.9518 71.6021C63.9896 71.5789 64.243 71.2491 64.5147 70.869C64.7865 70.489 65.0368 70.1781 65.0709 70.1781C65.105 70.1781 65.1329 70.5126 65.1329 70.9214C65.1329 71.4335 65.1566 71.6413 65.209 71.5894C65.3072 71.4921 65.2707 69.8701 65.1697 69.8405C65.1293 69.8287 64.8664 70.1457 64.5856 70.5451C64.3047 70.9445 64.0495 71.2712 64.0184 71.2712C63.9873 71.2712 63.951 70.9351 63.9379 70.5243L63.9141 69.7773L63.8986 70.7107ZM65.6476 69.8866C65.6476 69.9267 65.7799 69.9595 65.9417 69.9595H66.2358V70.8018C66.2358 71.3448 66.2619 71.6282 66.3093 71.5992C66.351 71.5736 66.3828 71.2097 66.3828 70.7568V69.9595H66.6401C66.7816 69.9595 66.8974 69.9267 66.8974 69.8866C66.8974 69.8437 66.6401 69.8137 66.2725 69.8137C65.9049 69.8137 65.6476 69.8437 65.6476 69.8866ZM67.3386 70.7247V71.6356H67.89C68.2085 71.6356 68.4414 71.6049 68.4414 71.5627C68.4414 71.5216 68.2331 71.4899 67.9635 71.4899H67.4856V71.1255V70.7611H67.9267C68.1718 70.7611 68.3678 70.7288 68.3678 70.6882C68.3678 70.6477 68.1718 70.6154 67.9267 70.6154H67.4856V70.2874V69.9595H67.9635C68.2331 69.9595 68.4414 69.9277 68.4414 69.8866C68.4414 69.8445 68.2085 69.8137 67.89 69.8137H67.3386V70.7247ZM68.7354 69.8866C68.7354 69.9267 68.8678 69.9595 69.0295 69.9595H69.3236V70.7975C69.3236 71.3077 69.3524 71.6356 69.3971 71.6356C69.4419 71.6356 69.4706 71.3077 69.4706 70.7975V69.9595H69.7647C69.9265 69.9595 70.0588 69.9267 70.0588 69.8866C70.0588 69.8434 69.7892 69.8137 69.3971 69.8137C69.005 69.8137 68.7354 69.8434 68.7354 69.8866ZM70.8905 69.9413C70.8653 70.0114 70.7161 70.3926 70.559 70.7884C70.4018 71.1842 70.2883 71.545 70.3066 71.5901C70.3249 71.6352 70.3832 71.5654 70.436 71.4352C70.5313 71.2004 70.5365 71.1984 71.0345 71.1984C71.5266 71.1984 71.5384 71.2028 71.6138 71.417C71.656 71.5372 71.724 71.6356 71.7648 71.6356C71.8056 71.6356 71.8237 71.5947 71.8049 71.5445C71.1726 69.855 71.0187 69.585 70.8905 69.9413ZM72.9261 70.7247C72.9261 71.2257 72.9529 71.6356 72.9855 71.6356C73.0182 71.6356 73.2911 71.2884 73.592 70.864L74.1392 70.0924L74.1601 70.864C74.1897 71.9604 74.323 71.8465 74.323 70.7247C74.323 70.2021 74.2934 69.8137 74.2536 69.8137C74.2154 69.8137 73.9424 70.1562 73.647 70.5749L73.1099 71.3361L73.089 70.5749C73.0592 69.4868 72.9261 69.6092 72.9261 70.7247ZM74.9111 70.729C74.9111 71.3206 74.9372 71.6283 74.9847 71.5992C75.0251 71.5744 75.0598 71.2527 75.0618 70.8843L75.0654 70.2145L75.3201 70.7065C75.4603 70.977 75.6071 71.1984 75.6464 71.1984C75.6858 71.1984 75.8425 70.9606 75.9946 70.67L76.2713 70.1417L76.3088 70.9069C76.3302 71.3436 76.3708 71.6232 76.4033 71.5581C76.4865 71.3918 76.433 69.8668 76.343 69.8373C76.3016 69.8237 76.1331 70.0819 75.9684 70.411L75.6691 71.0095L75.3453 70.4126C75.1671 70.0844 74.9966 69.8153 74.9663 69.8147C74.936 69.8142 74.9111 70.2256 74.9111 70.729ZM78.3666 70.7247C78.3666 71.2834 78.3951 71.6356 78.4401 71.6356C78.481 71.6356 78.5136 71.4413 78.5136 71.1984V70.7611H79.0283H79.5429V71.1984C79.5429 71.4413 79.5756 71.6356 79.6164 71.6356C79.6615 71.6356 79.69 71.2834 79.69 70.7247C79.69 70.1659 79.6615 69.8137 79.6164 69.8137C79.576 69.8137 79.5429 69.9941 79.5429 70.2145V70.6154H79.0283H78.5136V70.2145C78.5136 69.9941 78.4806 69.8137 78.4401 69.8137C78.3951 69.8137 78.3666 70.1659 78.3666 70.7247ZM84.5423 70.7247C84.5423 71.2834 84.5708 71.6356 84.6158 71.6356C84.6567 71.6356 84.6893 71.4413 84.6893 71.1984C84.6893 70.7698 84.6934 70.7611 84.8915 70.7618C85.0578 70.7623 85.1442 70.8401 85.3775 71.199C85.5336 71.4392 85.6908 71.6356 85.7267 71.6356C85.8335 71.6356 85.8066 71.5759 85.4957 71.1221L85.1993 70.6894L85.459 70.3072C85.6018 70.097 85.7186 69.8999 85.7186 69.8693C85.7186 69.7247 85.5859 69.8494 85.351 70.2145C85.1416 70.5402 85.0561 70.6147 84.8915 70.615C84.6955 70.6154 84.6893 70.6033 84.6893 70.2145C84.6893 69.9941 84.6563 69.8137 84.6158 69.8137C84.5708 69.8137 84.5423 70.1659 84.5423 70.7247ZM86.6412 70.0506C86.3064 70.8503 86.0795 71.5042 86.1098 71.5821C86.1291 71.6315 86.1845 71.5654 86.2331 71.4352C86.3207 71.1998 86.3241 71.1984 86.8214 71.1984C87.3112 71.1984 87.3233 71.203 87.3986 71.417C87.4408 71.5372 87.51 71.6356 87.5522 71.6356C87.5944 71.6356 87.543 71.4143 87.438 71.1437C87.3331 70.8731 87.1762 70.4633 87.0895 70.2328C87.0027 70.0024 86.8887 69.8138 86.8361 69.8138C86.7834 69.8137 86.6958 69.9203 86.6412 70.0506ZM87.814 69.8866C87.839 69.9267 87.9732 69.9595 88.1124 69.9595H88.3654V70.7975C88.3654 71.3077 88.3941 71.6356 88.4389 71.6356C88.4837 71.6356 88.5124 71.3077 88.5124 70.7975V69.9595H88.8065C88.9682 69.9595 89.1006 69.9267 89.1006 69.8866C89.1006 69.8434 88.8296 69.8137 88.4345 69.8137C88.0092 69.8137 87.7849 69.84 87.814 69.8866ZM89.6626 70.6843C89.2916 71.6301 89.29 71.6356 89.3874 71.6356C89.4239 71.6356 89.4884 71.5372 89.5307 71.417C89.6057 71.2037 89.6194 71.1984 90.0957 71.1984C90.5705 71.1984 90.586 71.2043 90.667 71.417C90.744 71.6194 90.8651 71.7157 90.8651 71.5747C90.8651 71.3933 90.1766 69.8137 90.0975 69.8137C90.046 69.8137 89.8504 70.2052 89.6626 70.6843ZM91.2327 70.6839C91.2327 71.1855 91.2638 71.5732 91.3062 71.5992C91.3521 71.6273 91.3797 71.4785 91.3797 71.2027V70.7611H91.9276H92.4755L92.5016 71.2166C92.516 71.4671 92.5278 71.2457 92.5279 70.7247C92.5281 70.2036 92.5162 69.9659 92.5017 70.1963L92.4752 70.6154H91.9274H91.3797V70.2145C91.3797 69.9941 91.3466 69.8137 91.3062 69.8137C91.2613 69.8137 91.2327 70.1524 91.2327 70.6839ZM93.3816 69.8625C92.9818 70.0219 92.9709 71.3538 93.3676 71.5643C93.4416 71.6035 93.6223 71.6356 93.7691 71.6356C94.128 71.6356 94.2892 71.538 94.3863 71.2619C94.5573 70.7755 94.4402 70.0281 94.1706 69.8851C94.0312 69.8112 93.5452 69.7972 93.3816 69.8625ZM94.9822 70.7247V71.6356H95.4134C95.7383 71.6356 95.8924 71.5984 96.0383 71.4846C96.2581 71.3131 96.2993 70.984 96.1229 70.8091C96.0281 70.7151 96.0274 70.6745 96.1171 70.5033C96.2273 70.2927 96.2035 70.1465 96.0257 69.9413C95.942 69.8447 95.8019 69.8137 95.4487 69.8137H94.9822V70.7247ZM96.9128 70.5947C96.7445 71.027 96.5852 71.4379 96.5587 71.5081C96.5321 71.5783 96.5438 71.6356 96.5846 71.6356C96.6254 71.6356 96.6934 71.5372 96.7356 71.417C96.811 71.2028 96.8228 71.1984 97.3149 71.1984C97.8129 71.1984 97.8181 71.2004 97.9134 71.4352C97.9662 71.5654 98.024 71.6366 98.0417 71.5934C98.0939 71.466 97.4355 69.8521 97.3222 69.8295C97.2518 69.8155 97.1204 70.0611 96.9128 70.5947ZM18.9198 69.9702C19.1529 70.0755 19.2852 70.4561 19.2368 70.882C19.1884 71.3075 19.0156 71.4899 18.6609 71.4899C18.2845 71.4899 18.1535 71.2963 18.1535 70.7401C18.1535 70.2591 18.2372 70.0533 18.4707 69.96C18.6872 69.8735 18.7069 69.874 18.9198 69.9702ZM22.0784 69.9689C22.3257 70.0806 22.4434 70.3969 22.4009 70.8356C22.3557 71.3018 22.1893 71.4899 21.8223 71.4899C21.4459 71.4899 21.3148 71.2963 21.3148 70.7401C21.3148 70.2591 21.3986 70.0533 21.6321 69.96C21.8482 69.8737 21.8684 69.8741 22.0784 69.9689ZM25.9778 69.9702C26.2109 70.0755 26.3432 70.4561 26.2947 70.882C26.2464 71.3075 26.0736 71.4899 25.7189 71.4899C25.3424 71.4899 25.2114 71.2963 25.2114 70.7401C25.2114 70.2591 25.2952 70.0533 25.5287 69.96C25.7451 69.8735 25.7648 69.874 25.9778 69.9702ZM46.7812 69.9689C47.0285 70.0806 47.1462 70.3969 47.1037 70.8356C47.06 71.2857 46.8897 71.4899 46.5577 71.4899C46.1691 71.4899 46.0177 71.2841 46.0177 70.7563C46.0177 70.2597 46.0996 70.0539 46.3349 69.96C46.5511 69.8737 46.5712 69.8741 46.7812 69.9689ZM49.8988 69.9333C50.3325 70.0485 50.4319 71.1694 50.0319 71.4341C49.871 71.5406 49.4731 71.4899 49.3261 71.3441C49.2114 71.2304 49.179 71.1012 49.179 70.7563C49.179 70.2597 49.261 70.0539 49.4963 69.96C49.698 69.8795 49.6963 69.8795 49.8988 69.9333ZM94.1735 70.0762C94.2522 70.1527 94.2837 70.3406 94.2837 70.7331C94.2837 71.1933 94.2604 71.2999 94.141 71.3865C93.9594 71.5181 93.5809 71.5196 93.4012 71.3894C93.2303 71.2656 93.1524 70.4351 93.2881 70.1839C93.4494 69.8851 93.918 69.8281 94.1735 70.0762ZM31.3136 70.7247V71.4899H30.8376H30.3615L30.4315 71.3073C30.47 71.207 30.5236 70.8626 30.5505 70.5421L30.5996 69.9595H30.9566H31.3136V70.7247ZM34.8279 70.0469C34.8764 70.095 34.9161 70.2434 34.9161 70.3767C34.9161 70.6565 34.7347 70.7611 34.2496 70.7611H33.9603V70.3603V69.9595H34.35C34.5643 69.9595 34.7793 69.9988 34.8279 70.0469ZM39.8552 70.1414C39.9902 70.4352 39.7713 70.6154 39.2792 70.6154H38.8862V70.2874V69.9595H39.3289C39.7295 69.9595 39.7795 69.9767 39.8552 70.1414ZM58.0882 70.1414C58.2233 70.4352 58.0043 70.6154 57.5122 70.6154H57.1192V70.2874V69.9595H57.5619C57.9626 69.9595 58.0126 69.9767 58.0882 70.1414ZM61.4149 70.074C61.7362 70.3925 61.4092 70.7868 60.8564 70.7473L60.5379 70.7247L60.5157 70.3421L60.4934 69.9595H60.8964C61.1648 69.9595 61.338 69.9977 61.4149 70.074ZM96.0247 70.1414C96.1598 70.4352 95.9408 70.6154 95.4487 70.6154H95.0557V70.2874V69.9595H95.4984C95.8991 69.9595 95.9491 69.9767 96.0247 70.1414ZM8.51665 70.5425C8.60061 70.7629 8.66927 70.9679 8.66927 70.998C8.66935 71.028 8.48386 71.0526 8.25712 71.0526C7.89378 71.0526 7.85107 71.0375 7.89665 70.9251C7.9251 70.8549 8.01656 70.624 8.09979 70.4117C8.18301 70.1995 8.27653 70.052 8.30763 70.0838C8.33865 70.1156 8.43276 70.322 8.51665 70.5425ZM11.8926 70.4149C11.9729 70.6254 12.0616 70.8549 12.0896 70.9251C12.1344 71.0374 12.0913 71.0526 11.7283 71.0526C11.5016 71.0526 11.3161 71.0238 11.3161 70.9886C11.3161 70.9534 11.3696 70.7977 11.4351 70.6425C11.5005 70.4872 11.5824 70.2865 11.6171 70.1963C11.6517 70.1062 11.695 70.0323 11.7133 70.0323C11.7316 70.0323 11.8123 70.2045 11.8926 70.4149ZM32.8395 70.4542C33.0683 71.0391 33.0637 71.0526 32.637 71.0526C32.3983 71.0526 32.2694 71.0216 32.2694 70.9644C32.2694 70.845 32.5898 70.0323 32.637 70.0323C32.6576 70.0323 32.7487 70.2222 32.8395 70.4542ZM71.2645 70.5368C71.3697 70.7943 71.4557 71.0156 71.4557 71.0287C71.4557 71.0419 71.2737 71.0526 71.0513 71.0526C70.8289 71.0526 70.647 71.028 70.647 70.998C70.647 70.9363 70.9328 70.1774 70.9913 70.0836C71.0435 69.9998 71.0487 70.0083 71.2645 70.5368ZM81.675 70.6518C81.675 71.264 81.6729 71.2712 81.4912 71.2712C81.121 71.2712 80.8941 70.7896 81.0611 70.3582C81.1027 70.2507 81.4614 70.0434 81.6199 70.0352C81.6502 70.0337 81.675 70.3111 81.675 70.6518ZM82.4119 70.3061C82.4918 70.4068 82.5573 70.5847 82.5573 70.7014C82.5573 70.9664 82.2641 71.2712 82.0092 71.2712C81.8246 71.2712 81.8221 71.2634 81.8221 70.7004C81.8221 70.3864 81.8394 70.1124 81.8606 70.0914C81.9465 70.0062 82.2756 70.1344 82.4119 70.3061ZM87.024 70.4542C87.2528 71.0391 87.2481 71.0526 86.8214 71.0526C86.5828 71.0526 86.4538 71.0216 86.4538 70.9644C86.4538 70.845 86.7743 70.0323 86.8214 70.0323C86.8421 70.0323 86.9332 70.2222 87.024 70.4542ZM90.3381 70.5672C90.4258 70.8012 90.4975 71.0062 90.4975 71.0227C90.4975 71.0391 90.3155 71.0526 90.0931 71.0526C89.8707 71.0526 89.6887 71.0366 89.6887 71.017C89.6887 70.8819 90.0862 70.0346 90.1273 70.0821C90.1557 70.1148 90.2505 70.3332 90.3381 70.5672ZM97.5431 70.534C97.6307 70.7497 97.7024 70.9547 97.7024 70.9894C97.7024 71.0242 97.5169 71.0526 97.2902 71.0526C96.9272 71.0526 96.8841 71.0374 96.9289 70.9251C96.9569 70.8549 97.0468 70.6224 97.1285 70.4082C97.2102 70.194 97.301 70.0464 97.3304 70.0802C97.3597 70.114 97.4554 70.3182 97.5431 70.534ZM39.8273 70.8486C39.967 70.9871 39.9344 71.329 39.7733 71.4144C39.6951 71.4559 39.4635 71.4899 39.2586 71.4899H38.8862V71.1255V70.7611H39.3126C39.5471 70.7611 39.7787 70.8005 39.8273 70.8486ZM58.0603 70.8486C58.184 70.9712 58.1701 71.2395 58.033 71.3754C57.9563 71.4513 57.7831 71.4899 57.5184 71.4899H57.1192V71.1255V70.7611H57.5457C57.7802 70.7611 58.0118 70.8005 58.0603 70.8486ZM95.9968 70.8486C96.1205 70.9712 96.1066 71.2395 95.9695 71.3754C95.8928 71.4513 95.7196 71.4899 95.4549 71.4899H95.0557V71.1255V70.7611H95.4821C95.7167 70.7611 95.9483 70.8005 95.9968 70.8486ZM76.913 71.5036C76.9585 71.6387 77.1168 71.6611 77.1168 71.5324C77.1168 71.469 77.0643 71.417 77.0004 71.417C76.9363 71.417 76.897 71.4559 76.913 71.5036ZM80.2046 71.5263C80.2046 71.5864 80.2542 71.6356 80.3149 71.6356C80.3755 71.6356 80.4252 71.5864 80.4252 71.5263C80.4252 71.4662 80.3755 71.417 80.3149 71.417C80.2542 71.417 80.2046 71.4662 80.2046 71.5263ZM83.1454 71.5263C83.1454 71.5931 83.181 71.636 83.2245 71.6216C83.2679 71.6073 83.3035 71.5644 83.3035 71.5263C83.3035 71.4882 83.2679 71.4453 83.2245 71.431C83.181 71.4166 83.1454 71.4595 83.1454 71.5263Z" fill="white"/>
</svg>
