<svg width="112" height="79" viewBox="0 0 112 79" fill="none" xmlns="http://www.w3.org/2000/svg">
<path fill-rule="evenodd" clip-rule="evenodd" d="M55.6554 0.454821C54.9024 1.51143 49.6222 8.45023 48.0317 10.4732C39.3157 21.5594 33.8458 27.6214 26.9969 33.785C20.385 39.7355 11.0353 47.2873 1.98557 53.9869C0.912047 54.7816 0.0185471 55.4453 6.03351e-05 55.4616C-0.0184264 55.478 4.21375 55.4885 9.40489 55.4851C15.4815 55.481 18.7688 55.4516 18.6341 55.4026C18.4615 55.3399 18.2383 54.9504 17.3636 53.1851C16.3212 51.0814 16.1003 50.5338 16.2942 50.5338C16.455 50.5338 16.7516 50.9077 17.6351 52.2244C18.1033 52.9219 18.5766 53.5513 18.6871 53.623C18.8749 53.7449 18.8988 53.7436 19.056 53.6029C19.2895 53.3938 19.5698 52.8215 19.8643 51.9521C20.1075 51.2342 20.1129 51.1866 20.0583 50.2539C20.0275 49.7262 19.9145 48.5208 19.8073 47.5752C19.7001 46.6297 19.6118 45.6312 19.6114 45.3563C19.6105 44.9191 19.6294 44.8565 19.763 44.8565C20.0511 44.8565 20.1892 45.435 20.7048 48.8011C20.8182 49.5413 20.9485 50.243 20.9946 50.3603L21.0782 50.5738L21.5638 50.054C22.2855 49.2814 22.8201 48.5462 22.9967 48.0835C23.2197 47.4992 23.4083 46.0699 23.4627 44.554C23.4883 43.8379 23.5372 43.2349 23.5712 43.2141C23.6053 43.1933 23.7251 43.2108 23.8374 43.2531C24.1008 43.3523 24.1322 43.5268 24.199 45.2615L24.2522 46.6431L24.7277 46.2307C24.9892 46.0038 25.6662 45.3373 26.232 44.7496C27.1808 43.7643 27.2683 43.6474 27.3565 43.2493C27.7879 41.2995 28.0155 40.0704 28.0581 39.4591C28.1102 38.7122 28.2213 38.4596 28.4975 38.4596C28.7428 38.4596 28.7504 38.7381 28.5401 40.0391C28.2657 41.7363 28.1945 42.6176 28.3315 42.6176C28.3888 42.6176 28.7294 42.4076 29.0886 42.1508C29.4478 41.894 30.018 41.5006 30.3558 41.2765C30.6935 41.0524 31.1112 40.7099 31.2842 40.5153C31.6313 40.1246 32.5657 38.6041 33.3377 37.1738C33.9611 36.0188 34.1 35.8286 34.2275 35.9545C34.382 36.1071 34.1336 36.6891 33.2923 38.1453C32.5434 39.4414 32.4555 39.6635 32.6007 39.8907C32.6831 40.0196 32.9075 39.9727 33.8992 39.6191C35.0622 39.2045 36.1596 38.9862 36.1596 39.1694C36.1596 39.2465 35.6178 39.487 34.989 39.6892C34.0173 40.0015 31.3659 41.483 30.0737 42.4357C29.3309 42.9834 29.0915 43.2894 29.3023 43.4219C29.3664 43.4622 30.0783 43.4883 30.8843 43.48C32.3723 43.4646 32.6075 43.5052 32.6075 43.7771C32.6075 43.9981 32.3353 44.0488 30.7048 44.1314C29.7292 44.1809 28.802 44.2699 28.5263 44.3406C27.7273 44.5456 26.9948 45.1061 25.7645 46.4537C25.0261 47.2626 24.7813 47.6062 24.8763 47.7004C24.901 47.7247 25.1703 47.7788 25.4747 47.8204C26.5541 47.9678 27.8676 48.4219 28.1921 48.7599C28.4324 49.0102 28.5464 49.3706 28.4115 49.4532C28.3608 49.4842 28.1801 49.4138 28.0097 49.2969C27.8393 49.1799 27.4327 48.9878 27.1062 48.87C26.5918 48.6844 26.3887 48.6557 25.5842 48.6553C24.5328 48.6546 24.2062 48.758 23.4331 49.3361C22.85 49.7722 21.147 51.9435 21.2539 52.1147C21.2782 52.1537 21.7841 52.1693 22.3781 52.1493C23.5411 52.1103 24.3734 52.2256 25.2363 52.5454C25.7114 52.7214 26.3915 53.2944 26.3915 53.5187C26.3915 53.6971 26.2957 53.6875 25.8439 53.4635C25.6345 53.3597 25.1543 53.1708 24.7769 53.0438C24.2173 52.8556 23.9641 52.8146 23.4045 52.8217C22.1692 52.8373 20.7561 53.3407 20.0563 54.0143C19.6939 54.3632 19.2898 55.0666 19.2882 55.3514C19.2874 55.4845 21.107 55.4914 56.3755 55.4914H93.4636L93.3823 55.1915C93.1088 54.1823 92.2683 53.4921 90.7704 53.0469C89.7486 52.7431 88.8453 52.7428 87.9064 53.0457C87.529 53.1675 87.0612 53.3538 86.8669 53.4596C86.2821 53.7785 86.1596 53.7111 86.4758 53.2443C86.7218 52.8811 87.6753 52.4146 88.5118 52.2482C88.9528 52.1605 89.5032 52.1254 90.2475 52.1375C91.6358 52.16 91.5647 52.1699 91.4559 51.9684C91.2374 51.5642 89.8697 49.8599 89.4931 49.5227C89.2642 49.3177 88.8408 49.0386 88.5522 48.9023C88.0594 48.6698 87.9709 48.6547 87.0991 48.6553C86.2946 48.6557 86.0914 48.6844 85.577 48.87C85.2506 48.9878 84.8405 49.1824 84.6658 49.3022C84.4337 49.4616 84.3242 49.4964 84.2589 49.4318C84.1321 49.3061 84.315 48.9015 84.6097 48.656C84.9502 48.3722 86.3287 47.9547 87.5229 47.7738C87.7459 47.74 87.8256 47.6892 87.8256 47.5812C87.8256 47.2682 85.6775 45.069 84.9718 44.6594C84.4219 44.3402 83.7793 44.2245 82.0621 44.1352C81.1694 44.0887 80.3788 44.0328 80.3052 44.0108C80.1112 43.9529 80.0505 43.7278 80.1912 43.5884C80.2904 43.4902 80.5969 43.4672 81.8693 43.4627C83.3934 43.4573 83.4264 43.4537 83.4504 43.2871C83.5249 42.7699 79.601 40.3602 77.4118 39.5787C77.0344 39.4439 76.6725 39.281 76.6074 39.2165C76.5034 39.1135 76.5181 39.0994 76.7284 39.0999C77.0937 39.1008 78.1663 39.3749 79.0855 39.7025C79.5399 39.8645 79.9668 39.976 80.0341 39.9504C80.2955 39.851 80.1652 39.4224 79.5608 38.3937C78.7391 36.9953 78.4612 36.4264 78.4612 36.1431C78.4612 35.8881 78.5474 35.8335 78.6851 36.0008C78.7304 36.0558 79.0854 36.6765 79.474 37.3801C80.2649 38.8123 81.0504 40.0903 81.3939 40.5044C81.5195 40.6558 82.0463 41.0684 82.5645 41.4215C83.0827 41.7745 83.6832 42.1881 83.8989 42.3405C84.1147 42.4929 84.329 42.6176 84.3751 42.6176C84.4905 42.6176 84.3941 41.3505 84.1866 40.1404C83.9825 38.9499 83.9987 38.5099 84.2479 38.4747C84.4967 38.4397 84.6 38.6787 84.6358 39.3727C84.6525 39.6957 84.8191 40.6928 85.006 41.5886C85.1929 42.4844 85.3636 43.3202 85.3853 43.4461C85.4134 43.6092 85.8487 44.1015 86.9033 45.1629C87.7166 45.9814 88.4064 46.6268 88.4363 46.5971C88.4662 46.5675 88.5138 45.8545 88.5422 45.0128C88.5921 43.5236 88.5988 43.4781 88.7869 43.3272C88.8933 43.2419 89.0202 43.1851 89.0689 43.201C89.1183 43.2172 89.1662 43.4578 89.1769 43.7434C89.2447 45.5495 89.5035 47.6429 89.7236 48.1647C89.9157 48.6201 91.444 50.5338 91.6156 50.5338C91.7191 50.5338 91.8319 49.9768 92.1822 47.7351C92.3574 46.6137 92.5483 45.5378 92.6064 45.3442C92.728 44.9395 92.9507 44.7458 93.075 44.9365C93.1612 45.0687 93.1568 45.1285 92.8693 47.7897C92.5865 50.4061 92.5772 51.2232 92.822 51.9331C93.0591 52.6208 93.4982 53.5041 93.6754 53.6497C93.8958 53.831 94.1732 53.5446 95.0912 52.1877C95.9842 50.8677 96.3101 50.4798 96.4527 50.5671C96.5753 50.6422 96.3693 51.1276 95.2572 53.3821C94.4302 55.0588 94.2754 55.3219 94.0729 55.3948C93.9076 55.4544 96.4905 55.4806 102.958 55.4851C107.973 55.4885 112.042 55.4609 112 55.4237C111.958 55.3864 110.597 54.3684 108.976 53.1614C101.582 47.6544 93.9988 41.5959 88.2696 36.619C80.1447 29.5607 75.3259 24.51 67.591 14.9446C64.2946 10.8683 59.0789 4.12201 56.6692 0.817846C56.3405 0.367104 56.0505 -0.000957664 56.0249 1.87188e-06C55.9993 0.000881446 55.833 0.205581 55.6554 0.454821ZM62.142 20.1085C62.3773 20.7979 62.0816 24.6406 61.7152 25.6559C61.4035 26.5196 61.6513 26.6174 62.7192 26.0523C64.6247 25.0436 65.608 23.9615 66.1947 22.2275C66.6363 20.9224 67.0464 20.2285 67.3761 20.2285C67.5424 20.2285 67.7243 20.7225 67.7243 21.1742C67.7243 21.7886 67.8156 22.2943 67.9348 22.3397C67.9948 22.3625 68.3551 22.2184 68.7356 22.0197C69.54 21.5994 69.9275 21.5641 69.9677 21.9076C70.0029 22.2094 69.5914 22.782 68.9407 23.3367C67.5523 24.5204 67.1892 25.2295 66.6836 27.7448C66.3085 29.6116 66.2748 29.8871 66.4087 29.9972C66.568 30.1281 67.9249 30.0978 68.8141 29.9434C69.8693 29.7602 70.5308 29.5463 71.0314 29.2263C71.5389 28.9019 71.7958 28.8703 71.9286 29.1159C72.0802 29.3967 71.8943 29.844 71.4736 30.2109C70.9857 30.6363 70.2535 30.9154 68.9036 31.1907C68.2868 31.3165 67.6919 31.478 67.5817 31.5496C67.3911 31.6733 67.3835 31.7077 67.4263 32.251C67.4512 32.5653 67.5256 33.1102 67.5916 33.462C67.7659 34.3908 67.881 35.7019 67.9638 37.7C68.0357 39.4352 68.1282 40.147 68.3327 40.5386C68.4721 40.8056 68.8522 41.1582 69.5644 41.6813C70.9471 42.6968 72.1694 43.8864 72.4687 44.5081C72.6327 44.849 72.5482 45.132 72.2451 45.2563C71.8767 45.4075 71.336 45.2345 71.0527 44.8749C70.5806 44.2754 69.8349 43.6026 69.2967 43.2902C68.4965 42.8258 67.2512 42.2848 67.0485 42.3134C66.8923 42.3355 66.8745 42.3948 66.8529 42.9646C66.8053 44.2256 67.2591 45.7923 68.0199 46.9926C68.616 47.933 69.1316 48.5181 70.603 49.9242C71.2877 50.5785 71.8373 51.1241 71.8245 51.1368C71.8116 51.1495 71.2743 51.0538 70.6305 50.9243C69.9867 50.7947 69.3147 50.6988 69.1371 50.7112C68.7786 50.7362 68.7887 50.7007 68.8996 51.5416C68.9606 52.0035 68.8521 52.2929 68.6178 52.2929C68.391 52.2929 67.9767 51.7735 67.6642 51.0977C66.9981 49.657 66.815 49.3282 66.4624 48.9397C66.2569 48.7133 65.9292 48.4194 65.7343 48.2865C65.0458 47.8174 62.3949 46.5954 61.8173 46.481L61.5638 46.4308L61.6193 46.9031C61.7925 48.3759 62.8143 51.3377 63.2631 51.6675C63.5633 51.888 63.8494 52.3111 63.8494 52.5344C63.8494 52.8242 63.5915 53.0126 63.1947 53.0126C62.1256 53.0126 60.4588 50.5654 60.4588 48.9957C60.4588 48.5216 60.2774 47.9491 60.0223 47.6178C59.9079 47.4693 59.6106 47.249 59.3615 47.1283C58.9696 46.9384 58.8147 46.9096 58.2104 46.9144C56.3526 46.9292 53.6264 48.2374 52.902 49.4617C52.7926 49.6467 52.5756 50.2949 52.4198 50.9021C52.1068 52.1222 51.928 52.5792 51.6772 52.7997C51.4367 53.011 51.2387 52.9389 51.0539 52.5728C50.914 52.2956 50.8925 52.093 50.8925 51.0535C50.8925 49.4473 50.976 49.2624 52.2605 48.0253C53.2007 47.1198 53.4395 46.7732 53.2658 46.5659C53.0108 46.2616 51.6399 46.6142 50.1028 47.3795C48.2615 48.2964 47.657 48.8495 47.0048 50.2139C46.7631 50.7197 46.5036 51.259 46.4281 51.4126C46.2358 51.8038 45.7757 52.2929 45.5999 52.2929C45.2586 52.2929 45.094 51.6616 45.2901 51.1045C45.339 50.9654 45.3581 50.7973 45.3323 50.7309C45.2908 50.6237 45.2514 50.6242 44.981 50.7361C44.8135 50.8053 44.4015 51.0216 44.0654 51.2167C43.3329 51.642 42.9689 51.739 42.8882 51.5307C42.7842 51.2624 43.2177 50.6656 44.394 49.4573C46.2752 47.5252 46.3953 47.3177 47.0101 44.9365C47.2542 43.9909 47.4787 43.1338 47.509 43.0318L47.5641 42.8463L47.2504 42.9772C47.0779 43.0492 46.6324 43.2333 46.2604 43.3864C44.8322 43.9743 44.0607 44.4531 43.2875 45.2317C42.604 45.9199 42.2142 45.9143 42.2142 45.216C42.2142 44.7086 42.5698 44.0936 43.2581 43.4108C43.853 42.8208 43.9813 42.7411 45.1889 42.2123C45.9693 41.8705 46.0449 41.6031 45.8109 40.013C45.6242 38.7441 45.5241 37.0088 45.5241 35.0433V33.2162L44.3069 32.7051C43.6374 32.424 42.811 32.0331 42.4703 31.8364C41.7714 31.4329 40.6286 30.3527 40.4132 29.8917C40.1467 29.3215 40.2953 28.8713 40.7156 28.9758C40.825 29.003 41.2008 29.2195 41.5508 29.4569C41.9007 29.6942 42.4928 30.0425 42.8666 30.2308C43.5187 30.5594 46.5071 31.7523 46.5576 31.7043C46.6053 31.659 46.1623 29.2147 45.9993 28.6244C45.7687 27.7887 45.2797 26.8224 44.8356 26.3245C44.3358 25.7642 43.7138 25.3404 42.2295 24.5488C41.5497 24.1863 41.0069 23.8764 41.0232 23.8603C41.0395 23.8441 41.5743 23.7739 42.2115 23.7043C43.8876 23.5212 43.9942 23.4361 43.7844 22.4486C43.6349 21.7446 43.6361 21.3932 43.7883 21.268C44.0898 21.0201 44.799 21.6497 45.6505 22.9208C46.7044 24.4944 48.9603 26.3398 50.4741 26.8668C51.3747 27.1804 51.6964 27.0161 51.4492 26.3692C50.9974 25.1869 50.9209 24.887 50.8449 24.0007C50.7501 22.8938 50.5921 22.2135 50.2765 21.553C50.1491 21.2863 50.0226 20.9507 49.9953 20.8073C49.8881 20.2428 50.3449 20.1691 50.9785 20.6488C51.6998 21.1948 52.1931 22.2387 52.4649 23.7942C52.6498 24.8521 52.8854 25.7069 53.0558 25.9372C53.2472 26.196 54.4381 26.2746 56.3879 26.1568C59.743 25.9542 60.4525 25.7005 60.779 24.5863C60.8306 24.4104 60.9035 23.5289 60.941 22.6273C61.0231 20.6595 61.1036 20.2308 61.4449 19.9463C61.788 19.6604 62.0064 19.7113 62.142 20.1085ZM64.7563 26.3075C64.4329 26.4378 63.6354 27.0088 63.4162 27.2669C63.1362 27.5965 63.1479 27.8201 63.4671 28.2346C63.7896 28.6534 64.1838 28.8968 64.4195 28.8227C64.8906 28.6746 65.4802 26.3077 65.0603 26.2503C64.9937 26.2412 64.8568 26.267 64.7563 26.3075ZM47.537 27.9145C47.4866 28.0078 47.4675 28.1944 47.4947 28.3291C47.6051 28.8759 48.0496 29.0256 48.446 28.6494C48.737 28.3733 48.7318 28.2083 48.4241 27.9518C48.1063 27.687 47.6698 27.6686 47.537 27.9145ZM54.6889 28.0317C53.0851 28.2786 51.6672 28.7451 50.8118 29.3075C49.0486 30.4668 47.8268 32.5083 47.4162 34.9815C47.2294 36.1076 47.2968 37.8058 47.5721 38.8994C48.1973 41.3841 49.3596 42.809 51.7039 43.9642C53.2799 44.741 54.9601 45.1626 56.7664 45.2345C59.691 45.351 61.2813 44.7072 63.3695 42.5613C64.5615 41.3364 65.4253 39.9916 65.953 38.5396C66.581 36.8114 65.6471 33.2037 64.0099 31.0332C62.2797 28.7392 60.2987 27.8912 56.7193 27.9125C56.001 27.9167 55.0873 27.9704 54.6889 28.0317ZM58.5539 32.4605C59.9105 32.8042 60.9232 33.6077 61.4951 34.7941C61.8657 35.5629 61.9931 36.0893 61.9914 36.8443C61.9887 38.0365 61.5116 39.1644 60.6742 39.9585C60.0722 40.5293 59.6546 40.7775 58.8038 41.0704C58.2107 41.2746 58.0593 41.2929 56.9471 41.295C55.8232 41.2971 55.69 41.2811 55.0934 41.0728C53.0792 40.3691 51.8986 38.6947 51.903 36.5478C51.9063 34.9048 52.4863 33.6823 53.5565 33.0623C54.6782 32.4126 57.1767 32.1117 58.5539 32.4605ZM55.9598 33.8262C53.8368 34.2412 53.1594 36.3246 54.4897 38.347C54.9136 38.9915 55.4277 39.4596 55.993 39.716C56.3804 39.8916 56.5217 39.9138 57.0583 39.883C57.8203 39.8394 58.3998 39.5941 59.2319 38.9631C59.9249 38.4377 60.2804 37.9641 60.3479 37.4763C60.4239 36.9275 60.2372 36.0538 59.8962 35.3624C59.41 34.3766 59.0009 34.0803 57.8157 33.8556C57.163 33.732 56.4958 33.7214 55.9598 33.8262ZM64.413 44.0871C64.1028 44.2969 63.6622 44.8092 63.5129 45.1339C63.3803 45.4222 63.5627 45.5823 64.3323 45.8532C65.4149 46.2344 65.8422 46.1377 65.7582 45.5305C65.691 45.0448 65.3882 44.2945 65.1735 44.0819C64.9371 43.8477 64.7654 43.8488 64.413 44.0871ZM48.5531 45.0621C48.1732 45.4682 47.9633 46.486 48.2381 46.5904C48.5516 46.7096 49.9924 46.0259 50.0936 45.7098C50.1547 45.5192 49.9705 45.3346 49.4475 45.0624C48.9515 44.8042 48.7945 44.8042 48.5531 45.0621ZM70.28 57.1106C70.2183 57.2095 70.0808 57.4524 69.9744 57.6503C69.8267 57.9248 69.7279 58.0162 69.558 58.0357C69.3666 58.0575 69.3172 58.0182 69.2069 57.7558C69.0546 57.3937 68.9753 57.3334 68.6486 57.3317C68.3311 57.3302 68.2087 57.4575 68.2087 57.7895C68.2087 58.6475 69.1659 59.3027 69.8873 58.9382C70.3141 58.7225 70.5655 58.41 70.7895 57.8169L70.9756 57.3241L70.789 57.1274C70.5574 56.8833 70.4243 56.8789 70.28 57.1106ZM106.159 57.3953C105.768 58.1618 105.516 58.2416 105.228 57.6902C105.054 57.3583 104.861 57.2726 104.493 57.364C104.246 57.4255 104.184 57.6452 104.297 58.0613C104.416 58.4976 104.815 58.8901 105.26 59.009C105.904 59.1805 106.465 58.775 106.803 57.8941C106.998 57.3855 106.997 57.289 106.797 57.0906C106.541 56.837 106.412 56.8985 106.159 57.3953ZM83.1493 60.0999C83.0342 60.2449 82.9819 60.4273 82.9819 60.6847C82.9819 61.1835 82.787 62.6309 82.5344 64.0073C82.2144 65.7507 81.5054 68.8543 81.4426 68.7862C81.4115 68.7526 81.2513 68.0053 81.0864 67.1257C80.3555 63.2266 79.6751 60.7718 79.1928 60.2941C79.0256 60.1285 79.0134 60.1276 78.7812 60.2635C78.5512 60.3981 78.5416 60.4267 78.5332 61.006C78.5244 61.6186 78.5278 72.6895 78.537 72.9398C78.544 73.1351 78.8615 73.4027 79.086 73.4027C79.228 73.4027 79.3071 73.3305 79.3959 73.12C79.4988 72.8761 79.5039 72.4524 79.433 70.0215C79.3299 66.4873 79.3308 63.3768 79.4349 63.6342C79.5766 63.9843 80.3092 66.8835 80.4766 67.7565C80.5684 68.2353 80.6752 69.1575 80.7139 69.8059C80.8028 71.2962 80.9634 71.6613 81.4745 71.5343C81.7852 71.457 81.9338 71.0982 82.0951 70.0362C82.1734 69.5211 82.4503 68.1955 82.7106 67.0903L83.1838 65.081L83.2645 69.4083C83.3395 73.4268 83.3555 73.7433 83.4902 73.8407C83.6931 73.9873 83.9227 73.9062 84.1338 73.6129C84.3711 73.2834 84.395 72.5674 84.2811 69.2047C84.2334 67.7974 84.1547 65.2067 84.1061 63.4475C84.0576 61.6884 83.9853 60.1681 83.9456 60.0692C83.8378 59.8006 83.3727 59.8186 83.1493 60.0999ZM15.6026 60.0885C15.4192 60.165 15.3162 60.2874 15.222 60.541C14.9939 61.1549 14.2947 63.7503 14.0486 64.8958C13.9174 65.5066 13.6109 66.636 13.3674 67.4056C13.124 68.1752 12.7931 69.2277 12.632 69.7445C12.471 70.2613 12.31 70.684 12.2741 70.684C12.1811 70.684 12.0983 62.8405 12.1843 62.1627C12.2737 61.4577 12.1665 60.6131 11.9695 60.4704C11.8925 60.4147 11.7114 60.369 11.567 60.369C11.0907 60.369 11.079 60.4337 11.1045 62.9055C11.1171 64.1272 11.1688 65.6305 11.2194 66.2462C11.27 66.8619 11.3253 68.697 11.3423 70.3242L11.3732 73.2828L11.5809 73.4627C11.6952 73.5616 11.8893 73.6426 12.0123 73.6426C12.398 73.6426 12.54 73.3786 12.7832 72.209C12.906 71.6185 13.2041 70.4491 13.4457 69.6103C13.6872 68.7716 14.0788 67.2577 14.3158 66.2462C14.7543 64.3754 14.9336 63.8074 15.0854 63.8074C15.1437 63.8074 15.1703 65.2391 15.1703 68.3873C15.1703 73.4496 15.1576 73.3227 15.6645 73.3227C16.3317 73.3227 16.3961 73.0888 16.2391 71.2364C16.0707 69.2495 16.0874 65.4635 16.2753 63.0505C16.4607 60.6678 16.4599 60.5077 16.2606 60.2896C16.0098 60.015 15.8767 59.9744 15.6026 60.0885ZM71.6266 60.1239C71.4863 60.2087 71.3513 60.3435 71.3266 60.4235C71.0122 61.444 70.3388 63.9933 70.141 64.9117C70.0019 65.5577 69.6578 66.8059 69.3762 67.6855C69.0946 68.565 68.769 69.5996 68.6527 69.9844C68.5363 70.3692 68.4069 70.684 68.3652 70.684C68.2906 70.684 68.249 67.9117 68.249 62.9416C68.249 60.7128 68.2413 60.591 68.0923 60.4828C67.8397 60.2993 67.4257 60.338 67.2796 60.5588C67.1708 60.7233 67.1594 61.0664 67.1938 63.1375C67.2157 64.4514 67.2736 65.9583 67.3224 66.4861C67.3714 67.0138 67.4242 68.7582 67.4397 70.3623L67.4682 73.2792L67.6814 73.4608C67.9681 73.7051 68.3149 73.6974 68.5175 73.4422C68.6051 73.332 68.7189 72.9992 68.7705 72.7026C68.8896 72.0179 69.2447 70.6182 69.694 69.0615C69.8871 68.3927 70.1255 67.4856 70.2239 67.0458C70.6009 65.3604 70.964 64.0031 71.0648 63.903C71.2054 63.7633 71.2758 65.7578 71.2761 69.8866C71.2763 72.5452 71.2935 72.9916 71.402 73.145C71.6622 73.5131 72.3918 73.2814 72.4161 72.823C72.4281 72.5974 72.4415 72.8419 72.2804 70.352C72.1594 68.4804 72.1544 67.9109 72.2398 65.6743C72.2931 64.2737 72.3843 62.5879 72.4423 61.9283C72.5582 60.6108 72.5173 60.351 72.1549 60.0996C71.9221 59.938 71.9354 59.9375 71.6266 60.1239ZM107.806 60.0492C107.717 60.0828 107.583 60.1775 107.509 60.2596C107.348 60.4367 106.593 63.0888 106.199 64.858C106.046 65.5459 105.721 66.7333 105.477 67.4968C105.232 68.2602 104.918 69.2627 104.777 69.7245C104.636 70.1863 104.493 70.5937 104.458 70.6301C104.334 70.7595 104.297 69.6326 104.303 65.9263C104.306 63.8593 104.309 61.8331 104.31 61.4236C104.31 60.8254 104.282 60.6486 104.169 60.5241C103.915 60.2459 103.264 60.379 103.237 60.7145C103.192 61.2914 103.281 65.2023 103.371 66.566C103.434 67.5336 103.486 69.4333 103.487 70.7876L103.487 73.2501L103.685 73.4463C103.926 73.6852 104.312 73.705 104.529 73.4898C104.614 73.4058 104.725 73.1269 104.776 72.8701C104.951 71.9926 105.344 70.4315 105.675 69.2979C105.856 68.6749 106.2 67.3376 106.437 66.3261C106.907 64.3244 107.043 63.8728 107.187 63.8252C107.256 63.8022 107.284 64.2192 107.293 65.4199C107.299 66.3141 107.326 68.4303 107.353 70.1225L107.402 73.1991L107.613 73.2725C107.903 73.3734 108.223 73.2781 108.377 73.045C108.495 72.866 108.495 72.6896 108.367 70.9074C108.256 69.356 108.239 68.4334 108.281 66.3261C108.31 64.8748 108.367 63.3276 108.406 62.8878C108.615 60.5393 108.615 60.5442 108.403 60.3196C108.141 60.0419 107.997 59.9768 107.806 60.0492ZM19.0165 60.213C18.8152 60.3709 18.7925 60.4304 18.8373 60.6813C19.1428 62.3956 19.155 62.6645 19.1691 68.0231C19.18 72.1661 19.2054 73.3448 19.2855 73.4405C19.4315 73.6147 19.7427 73.5914 19.9448 73.3912C20.1176 73.2201 20.1178 73.2143 20.0623 70.2927L20.0067 67.3656L20.5522 66.9658C21.5515 66.2336 22.0978 65.1418 22.1729 63.7271C22.2201 62.8395 22.1199 62.2726 21.7963 61.5947C21.383 60.7292 20.5842 60.1499 19.6961 60.0717C19.3152 60.0381 19.212 60.0596 19.0165 60.213ZM31.3644 60.2802C31.2344 60.4224 31.1974 60.6925 31.1029 62.1866C30.8992 65.4045 30.5621 68.685 30.4352 68.685C30.4055 68.685 30.3195 68.1182 30.2441 67.4256C30.1687 66.733 30.0339 65.7962 29.9445 65.3438C29.8552 64.8915 29.7821 64.2965 29.7821 64.0217C29.7821 63.7468 29.6912 62.9738 29.5802 62.3038C29.4692 61.6339 29.3784 60.9469 29.3784 60.7771C29.3784 60.42 29.2638 60.2995 28.8628 60.2351C28.6042 60.1935 28.5664 60.2111 28.4909 60.4077C28.3905 60.6694 28.4088 60.8227 29.0169 64.8061C29.2652 66.4329 29.5781 68.268 29.712 68.8841C30.0877 70.6121 30.0877 70.5771 29.7102 71.8923C29.5278 72.5283 29.3784 73.127 29.3784 73.2228C29.3784 73.58 29.9916 73.6822 30.3003 73.3765C30.4435 73.2346 30.5657 72.8696 30.8153 71.8372C30.9952 71.093 31.1995 70.1423 31.2692 69.7245C31.4751 68.4912 32.2799 61.556 32.3108 60.7503C32.3245 60.3916 32.1746 60.2203 31.7937 60.159C31.5779 60.1243 31.482 60.1514 31.3644 60.2802ZM41.94 60.2356C41.663 60.3047 41.5253 60.3857 41.4803 60.5063C41.4449 60.6011 41.4217 62.7229 41.4287 65.2215C41.442 69.9736 41.4185 70.4062 41.0738 71.7565C40.8488 72.6382 40.6615 72.9684 40.2757 73.1634C40.0986 73.2528 39.9538 73.3587 39.9538 73.3986C39.9538 73.5539 40.3893 73.8025 40.6615 73.8025C41.0477 73.8025 41.5634 73.2875 41.7943 72.6715C42.1771 71.6496 42.2337 70.8206 42.2726 65.6665L42.3089 60.8488H43.0191C43.6872 60.8488 43.7321 60.8594 43.7779 61.0287C43.8046 61.1276 43.8279 61.7663 43.8294 62.448C43.831 63.1297 43.8883 64.2811 43.9567 65.0068C44.0331 65.8168 44.0986 67.6609 44.1267 69.7831C44.1578 72.1491 44.2008 73.278 44.2628 73.3603C44.4144 73.5614 44.8183 73.5964 45.0298 73.4267L45.2157 73.2777L45.1274 71.9209C45.0788 71.1747 45.0026 69.4666 44.958 68.1253C44.9133 66.7839 44.8262 64.9848 44.7642 64.1272C44.6998 63.2357 44.6702 62.0853 44.695 61.4408L44.7385 60.3138L44.3441 60.2598C43.5373 60.1495 42.3339 60.1374 41.94 60.2356ZM63.6784 60.3067C63.5678 60.5113 63.6186 63.8494 63.8112 69.0315C63.8753 70.754 63.9281 72.3882 63.9289 72.6631C63.9302 73.2246 64.0953 73.4827 64.453 73.4827C64.7816 73.4827 64.9134 73.1941 64.8211 72.6772C64.6658 71.8088 64.5521 68.7921 64.5183 64.6469C64.4878 60.9244 64.4681 60.392 64.3559 60.2691C64.1715 60.0672 63.7965 60.0881 63.6784 60.3067ZM89.0618 60.1878C88.8842 60.3073 88.8145 60.6442 88.7593 61.6484C88.608 64.4071 88.2154 68.4189 88.0719 68.6743C88.0382 68.7343 87.965 68.3205 87.9093 67.7547C87.8536 67.1889 87.7212 66.242 87.615 65.6506C87.5089 65.0592 87.4218 64.3575 87.4217 64.0914C87.4215 63.8252 87.3307 63.0696 87.2198 62.4122C87.109 61.7548 87.0183 61.0486 87.0183 60.8428C87.0183 60.4008 86.8977 60.2708 86.4756 60.258C85.9899 60.2434 85.9755 60.4043 86.2812 62.4279C86.9337 66.7479 87.1252 67.9179 87.3508 68.9649C87.7176 70.6672 87.7176 70.5222 87.3497 71.8232C87.1674 72.4676 87.0183 73.0795 87.0183 73.1828C87.0183 73.4307 87.1619 73.5626 87.4315 73.5626C87.9495 73.5626 88.0404 73.4205 88.381 72.0756C88.8649 70.1656 89.1408 68.2918 89.6808 63.2501C89.958 60.6614 89.9684 60.4247 89.8107 60.295C89.6628 60.1734 89.1849 60.105 89.0618 60.1878ZM93.1133 60.1996C92.4673 60.3683 91.7699 60.8951 91.4848 61.4298C91.305 61.7668 91.288 62.5826 91.4584 62.6895C91.7782 62.89 92.1069 62.6827 92.4981 62.0338C92.9076 61.3545 93.5146 61.0588 94.1265 61.2404C94.8564 61.457 95.1574 61.9949 95.2299 63.2124C95.2891 64.2076 95.1423 64.6911 94.6032 65.2754C94.2959 65.6084 94.0944 65.7487 93.7762 65.8512C93.2272 66.0282 93.073 66.1697 93.073 66.4964C93.073 66.7917 93.2761 66.9413 93.8054 67.0361C94.2738 67.1199 94.8041 67.5032 94.9959 67.8963C95.2117 68.3385 95.3684 69.6195 95.3117 70.4774C95.2634 71.2099 94.9694 72.1053 94.6749 72.4177C94.4195 72.6885 94.1014 72.843 93.7994 72.843C93.5106 72.843 93.4171 72.6782 93.1836 71.7575C93.0209 71.1158 92.7787 70.8208 92.4458 70.8587C92.1379 70.8939 91.9915 71.3344 92.1112 71.8657C92.2326 72.4049 92.6722 73.2489 92.9264 73.4309C93.202 73.6282 94.2079 73.7062 94.643 73.564C95.4795 73.2905 96.0388 72.3392 96.2221 70.8783C96.3381 69.9534 96.1484 68.0369 95.888 67.5042C95.6576 67.0328 95.2407 66.5737 94.9257 66.4444L94.6813 66.3441L94.9121 66.2051C95.2241 66.0172 95.7248 65.2517 95.9257 64.6553C96.0584 64.2613 96.0911 63.9514 96.0952 63.0477C96.1 61.9772 96.0903 61.9083 95.8731 61.4701C95.7482 61.2181 95.5121 60.9025 95.3484 60.7688C94.7936 60.3155 93.7181 60.0417 93.1133 60.1996ZM24.8994 60.2947C23.7956 60.4213 23.3238 60.6143 23.3238 60.9393C23.3238 61.2124 23.6671 61.3441 24.3037 61.3152C24.8677 61.2895 24.8899 61.2955 24.9455 61.4885C24.9771 61.5984 25.006 62.408 25.0098 63.2876C25.0135 64.1672 25.0775 65.9843 25.1521 67.3257C25.2666 69.3863 25.2727 70 25.1915 71.2837C25.072 73.1721 25.1545 73.5626 25.6729 73.5626C25.8311 73.5626 25.9459 73.4984 26.0388 73.358C26.1847 73.1374 26.1786 72.523 25.9893 68.3652C25.9462 67.4196 25.8982 65.3955 25.8826 63.8673L25.8543 61.0887H26.3593C26.9129 61.0887 27.118 60.9715 27.118 60.6556C27.118 60.311 26.8878 60.2081 26.1429 60.2196C25.7691 60.2254 25.2095 60.2592 24.8994 60.2947ZM53.2134 60.2998C52.9653 60.5487 53.2261 68.8664 53.5666 71.5636C53.7256 72.823 53.8925 73.3532 54.141 73.3882C54.5537 73.4463 54.5563 73.3156 54.2408 68.2486C54.1849 67.3503 54.19 67.0381 54.2612 66.9945C54.4297 66.8913 55.1025 66.8319 55.4753 66.8872C55.8276 66.9396 55.8395 66.9507 55.8867 67.2734C55.9133 67.4561 55.9587 68.9189 55.9876 70.5241C56.0316 72.9705 56.06 73.4653 56.1631 73.5826C56.3293 73.7719 56.6065 73.7589 56.7933 73.5532C56.9364 73.3957 56.9455 73.2601 56.924 71.6141C56.9113 70.6408 56.8478 68.5131 56.7828 66.8859C56.7178 65.2587 56.6646 63.3264 56.6645 62.5919C56.6645 60.9566 56.5813 60.4931 56.2579 60.3275C55.7271 60.0556 55.753 59.8792 55.8188 63.3173L55.8782 66.4255L55.0148 66.4838C54.5399 66.5159 54.1387 66.5296 54.1234 66.5141C54.108 66.4987 54.0688 65.1278 54.0363 63.4677C53.9934 61.2787 53.9505 60.4275 53.8802 60.3697C53.7134 60.2325 53.3214 60.1914 53.2134 60.2998ZM98.9035 60.2677C98.607 60.2941 98.5292 60.3422 98.3506 60.6096C98.1675 60.8837 98.1493 60.9712 98.1982 61.3445C98.2288 61.5776 98.2778 64.3488 98.3072 67.5028C98.3571 72.8575 98.3702 73.2466 98.5046 73.3799C98.6199 73.4942 98.8141 73.528 99.4793 73.5495C100.392 73.579 100.857 73.492 101.129 73.241C101.365 73.0233 101.354 72.8768 101.088 72.7049C100.911 72.5901 100.719 72.5663 100.079 72.5799L99.289 72.5967V69.8498C99.289 66.7614 99.2331 67.0058 99.9396 67.0058C100.275 67.0058 100.355 66.9747 100.471 66.7997C100.574 66.6443 100.589 66.5414 100.532 66.3813C100.43 66.0945 100.116 65.9944 99.6271 66.0935L99.2399 66.1721L99.2443 64.2901C99.2467 63.2549 99.2192 62.1471 99.1832 61.8283L99.1178 61.2486H99.6018C100.107 61.2486 100.494 61.1456 100.598 60.9837C100.737 60.7673 100.659 60.5249 100.399 60.3681C100.138 60.2103 99.8024 60.1877 98.9035 60.2677ZM5.74339 60.4198C5.43315 60.6719 5.40126 61.2223 5.48239 64.9163C5.52364 66.7912 5.53478 69.4633 5.50726 70.8543L5.45721 73.3835L5.65168 73.4883C5.91501 73.63 6.81263 73.6084 7.25187 73.4495C8.0137 73.1739 8.66946 72.4226 9.09361 71.3395C9.26677 70.8972 9.30213 70.6786 9.29664 70.0843C9.28372 68.6816 8.81081 67.5012 7.90303 66.606L7.37587 66.0863L7.67004 65.7876C8.08273 65.3686 8.53739 64.4709 8.67995 63.7935C8.96605 62.4344 8.39854 61.0977 7.31226 60.572C6.73497 60.2926 5.98896 60.2202 5.74339 60.4198ZM36.4248 60.385C35.9039 61.0281 35.4016 62.9331 34.6682 67.0458C34.0291 70.6301 33.7353 72.1488 33.5957 72.5916C33.4658 73.0036 33.4665 73.024 33.6146 73.1313C33.6993 73.1926 33.8697 73.2428 33.9932 73.2428C34.2994 73.2428 34.405 73.0151 34.6619 71.7999C34.9667 70.3582 34.9964 70.2842 35.2708 70.2842C35.58 70.2842 36.7118 70.5011 36.987 70.6131L37.2091 70.7035V72.0103C37.2091 73.2205 37.2206 73.3232 37.3652 73.3999C37.593 73.5207 37.8728 73.5013 38.0912 73.3498L38.2827 73.217L38.2303 71.8505C38.2015 71.099 38.1415 70.2152 38.0971 69.8866C38.0526 69.5578 37.9801 68.5863 37.9359 67.7276C37.8918 66.8688 37.803 65.7344 37.7386 65.2067C37.6743 64.6789 37.5463 63.5815 37.4541 62.7679C37.362 61.9543 37.2601 61.0727 37.2276 60.8088L37.1687 60.329L36.8388 60.305C36.6387 60.2906 36.4758 60.322 36.4248 60.385ZM47.6831 60.429C47.6135 60.506 47.5302 60.7459 47.4979 60.9622C47.4198 61.485 47.6156 72.8332 47.7065 73.059C47.7455 73.1559 47.8921 73.2938 48.0321 73.3655C48.5472 73.6293 49.7959 73.2441 50.4158 72.6302C51.2071 71.8464 51.6349 69.8665 51.2936 68.5684C51.1192 67.9049 50.7209 67.2056 50.3166 66.8532C49.8457 66.4426 49.0642 66.0427 48.6069 65.9783L48.2285 65.925L48.2029 65.4459C48.189 65.1824 48.2354 64.0776 48.3062 62.9908C48.377 61.904 48.4108 60.9144 48.3813 60.7919C48.3137 60.5099 48.1224 60.2891 47.9459 60.2891C47.8708 60.2891 47.7526 60.352 47.6831 60.429ZM59.5897 60.372C59.4892 60.412 59.3711 60.538 59.3274 60.6519C59.2107 60.9559 59.2302 63.3693 59.3744 66.4767C59.4754 68.652 59.4836 69.5351 59.4148 70.8348C59.27 73.5716 59.2303 73.4487 60.2392 73.3802C60.7962 73.3423 60.9294 73.3013 61.3123 73.0495C61.8215 72.7146 62.2186 72.1634 62.5152 71.3794C62.7984 70.6311 62.8782 69.9769 62.7908 69.1209C62.6387 67.6305 62.2979 66.8999 61.464 66.2762C61.0932 65.9989 60.9339 65.9321 60.5736 65.9025L60.1346 65.8664L60.1767 64.617C60.2568 62.2399 60.3017 61.4472 60.3738 61.1388C60.4612 60.7652 60.3611 60.5034 60.0828 60.3778C59.855 60.2751 59.8339 60.2748 59.5897 60.372ZM20.3356 61.3553C20.579 61.5424 20.8878 61.85 21.0218 62.0387C21.2638 62.3798 21.2652 62.3883 21.2652 63.4744C21.2652 64.5639 21.2644 64.5687 20.9751 65.1667C20.8156 65.4965 20.5228 65.9432 20.3245 66.1593L19.964 66.5521L19.8666 64.3201C19.7548 61.7566 19.747 61.0074 19.8323 61.012C19.8657 61.0137 20.0921 61.1682 20.3356 61.3553ZM7.22402 61.4594C7.33849 61.5337 7.53805 61.7775 7.66762 62.0013C7.99312 62.5632 7.9936 63.1995 7.66932 64.0965C7.33979 65.008 7.15282 65.3417 6.79947 65.6497L6.49198 65.9176L6.43999 65.2023C6.34198 63.854 6.36176 61.4497 6.4718 61.3393C6.59329 61.2173 6.93509 61.2719 7.22402 61.4594ZM36.8115 65.7264C36.9063 66.7599 37.0272 68.0553 37.08 68.605C37.1624 69.4616 37.1595 69.6146 37.0597 69.6751C36.9339 69.7512 35.868 69.6848 35.4734 69.5762C35.2384 69.5115 35.2319 69.4967 35.254 69.0773C35.308 68.0493 36.0139 64.2733 36.3407 63.2639L36.5142 62.7279L36.5767 63.2876C36.611 63.5955 36.7167 64.6929 36.8115 65.7264ZM49.1424 66.7714C49.732 67.0632 50.1399 67.5072 50.3804 68.1189C50.6284 68.7499 50.6302 69.8679 50.3843 70.6571C50.1755 71.3276 49.6358 72.1641 49.2458 72.4218C48.9477 72.6188 48.5917 72.6631 48.5917 72.5031C48.5917 72.4482 48.5018 71.1094 48.3918 69.5281C48.1837 66.5347 48.1839 66.5304 48.5183 66.5272C48.5889 66.5266 48.8698 66.6365 49.1424 66.7714ZM60.978 66.8097C61.2381 66.9785 61.7843 68.0638 61.9621 68.765C62.218 69.7743 61.9145 71.5973 61.407 72.1001C61.1926 72.3124 60.4062 72.633 60.3441 72.5334C60.3214 72.497 60.2809 71.1433 60.2543 69.5252L60.2058 66.5834L60.4873 66.6285C60.642 66.6534 60.8628 66.735 60.978 66.8097ZM7.21756 66.94C7.49099 67.0634 8.03211 67.8731 8.18872 68.3932C8.38893 69.0579 8.48492 70.2406 8.3836 70.7941C8.23207 71.6217 7.79057 72.2382 7.1378 72.5335C6.52944 72.8087 6.56431 72.907 6.5049 70.751C6.47559 69.6884 6.45161 68.3751 6.45161 67.8324V66.8459H6.73037C6.88367 66.8459 7.10293 66.8882 7.21756 66.94ZM89.7174 76.5812C89.6805 76.7046 89.6011 76.7611 89.4649 76.7611C89.3512 76.7611 89.1612 76.8652 89.0202 77.0048C88.7982 77.2247 88.7784 77.285 88.8167 77.6219C88.8644 78.0406 89.1497 78.3603 89.4756 78.3603C89.5989 78.3603 89.6842 78.4222 89.7235 78.5402C89.7834 78.7193 89.7838 78.7193 89.8181 78.5497C89.8438 78.4223 89.9325 78.3667 90.1697 78.3291C90.5762 78.2648 90.7753 77.9838 90.7641 77.4904C90.7578 77.2071 90.7109 77.0948 90.5376 76.9472C90.4175 76.8448 90.2292 76.7611 90.1193 76.7611C89.9877 76.7611 89.8941 76.6996 89.8454 76.5812L89.7713 76.4013L89.7174 76.5812ZM6.5032 76.7011C6.53686 76.7561 6.6896 76.9746 6.84266 77.1866L7.12101 77.5723L6.78631 78.0424C6.60225 78.3009 6.45161 78.5322 6.45161 78.5563C6.45161 78.6897 6.60863 78.5471 6.88956 78.1586C7.06386 77.9177 7.21643 77.7206 7.22879 77.7206C7.24695 77.7206 7.55477 78.1405 7.83982 78.5541C7.87066 78.5988 7.91998 78.6118 7.94928 78.5827C7.97859 78.5537 7.84926 78.3133 7.66181 78.0486L7.32098 77.5673L7.59997 77.1842C7.97124 76.6745 8.01023 76.6012 7.91013 76.6012C7.86339 76.6012 7.70686 76.7804 7.56227 76.9995C7.41761 77.2186 7.27512 77.3985 7.24558 77.3993C7.21611 77.4001 7.05861 77.2209 6.89562 77.001C6.73263 76.7811 6.56391 76.6012 6.52072 76.6012C6.47745 76.6012 6.46962 76.6462 6.5032 76.7011ZM8.64161 77.4986C8.44778 77.9946 8.27147 78.4453 8.24983 78.5002C8.22812 78.5553 8.24701 78.6002 8.29181 78.6002C8.33662 78.6002 8.41129 78.4922 8.45771 78.3603C8.54046 78.1253 8.55345 78.1204 9.09377 78.1204C9.64062 78.1204 9.64627 78.1227 9.75089 78.3803C9.80894 78.5232 9.87271 78.6003 9.89257 78.5517C9.95005 78.4108 9.23125 76.6435 9.1066 76.6191C9.0308 76.6042 8.87887 76.8916 8.64161 77.4986ZM10.4361 77.6007C10.435 78.2823 10.4506 78.475 10.4814 78.1604C10.5248 77.7171 10.5444 77.6788 10.7388 77.6564C10.9178 77.6359 10.9959 77.7041 11.2635 78.1155C11.5498 78.5556 11.6989 78.7007 11.6989 78.5392C11.6989 78.5056 11.5718 78.2911 11.4164 78.0625C11.261 77.834 11.1338 77.6071 11.1338 77.5583C11.1338 77.5095 11.2366 77.3191 11.3623 77.1353C11.6932 76.6511 11.7177 76.6012 11.6238 76.6012C11.5772 76.6012 11.4065 76.7991 11.2444 77.0409C11.0035 77.4003 10.9081 77.4807 10.7228 77.4807C10.504 77.4807 10.495 77.4647 10.467 77.021C10.451 76.7681 10.4371 77.029 10.4361 77.6007ZM12.3807 77.5636C12.1717 78.0928 12.0243 78.5493 12.053 78.5778C12.0818 78.6063 12.1491 78.515 12.2024 78.375C12.2984 78.1231 12.3052 78.1204 12.851 78.1204C13.3913 78.1204 13.4043 78.1253 13.4871 78.3603C13.5335 78.4922 13.6082 78.6002 13.653 78.6002C13.6978 78.6002 13.7112 78.5373 13.6828 78.4603C13.2435 77.2712 12.9486 76.6012 12.8644 76.6012C12.8067 76.6012 12.592 77.0282 12.3807 77.5636ZM14.2868 76.7566C13.9612 77.0791 13.9614 78.0619 14.2869 78.4053C14.5476 78.6801 15.0977 78.6794 15.3757 78.4039C15.5763 78.2052 15.6411 77.9605 15.4932 77.9605C15.4488 77.9605 15.4124 78.0089 15.4124 78.068C15.4124 78.2559 15.127 78.4403 14.8362 78.4403C14.3693 78.4403 14.2525 78.2948 14.2168 77.6681C14.1778 76.9839 14.334 76.7291 14.7925 76.7291C15.0912 76.7291 15.4124 76.9385 15.4124 77.1333C15.4124 77.1925 15.4488 77.2409 15.4932 77.2409C15.6411 77.2409 15.5763 76.9962 15.3757 76.7975C15.1187 76.5428 14.5251 76.5206 14.2868 76.7566ZM16.2242 76.7566C15.8987 77.0791 15.8988 78.0619 16.2244 78.4053C16.4851 78.6801 17.0352 78.6794 17.3132 78.4039C17.5138 78.2052 17.5786 77.9605 17.4306 77.9605C17.3862 77.9605 17.3499 78.0089 17.3499 78.068C17.3499 78.2559 17.0645 78.4403 16.7737 78.4403C16.3067 78.4403 16.19 78.2948 16.1543 77.6681C16.1153 76.9839 16.2715 76.7291 16.73 76.7291C17.0287 76.7291 17.3499 76.9385 17.3499 77.1333C17.3499 77.1925 17.3862 77.2409 17.4306 77.2409C17.5786 77.2409 17.5138 76.9962 17.3132 76.7975C17.0561 76.5428 16.4626 76.5206 16.2242 76.7566ZM17.9957 77.6007C17.9957 78.2137 18.027 78.6002 18.0765 78.6002C18.1214 78.6002 18.1572 78.3869 18.1572 78.1204C18.1572 77.6502 18.1616 77.6407 18.3792 77.6414C18.5617 77.6419 18.6567 77.7273 18.9128 78.1211C19.0842 78.3846 19.2568 78.6002 19.2963 78.6002C19.4135 78.6002 19.3841 78.5347 19.0442 78.0391L18.7204 77.5667L19.0039 77.1278C19.2984 76.6719 19.3284 76.6009 19.2269 76.6016C19.1935 76.6018 19.0392 76.7995 18.8838 77.0409C18.6538 77.3983 18.56 77.48 18.3792 77.4803C18.1639 77.4807 18.1572 77.4675 18.1572 77.0409C18.1572 76.7991 18.1209 76.6012 18.0765 76.6012C18.027 76.6012 17.9957 76.9876 17.9957 77.6007ZM19.97 76.7975C19.7944 76.9713 19.7718 77.0629 19.7718 77.6007C19.7718 78.1385 19.7944 78.2301 19.97 78.4039C20.212 78.6437 20.7142 78.6718 20.9778 78.4603C21.335 78.1736 21.3731 77.1426 21.0398 76.7811C20.7999 76.521 20.2403 76.5296 19.97 76.7975ZM21.79 77.6007C21.79 78.2137 21.8212 78.6002 21.8707 78.6002C21.9199 78.6002 21.9514 78.2404 21.9514 77.6806V76.7611H22.431C22.6948 76.7611 22.9331 76.7251 22.9605 76.6811C22.9921 76.6305 22.7865 76.6012 22.4002 76.6012H21.79V77.6007ZM23.4873 76.7591C23.2734 76.971 23.2172 77.2317 23.2598 77.8154C23.3032 78.4103 23.4835 78.6002 24.0048 78.6002C24.2662 78.6002 24.3905 78.5524 24.5409 78.3938C24.7113 78.2141 24.7365 78.1117 24.7365 77.6007C24.7365 77.0896 24.7113 76.9872 24.5409 76.8075C24.2895 76.5425 23.7319 76.5168 23.4873 76.7591ZM26.0686 77.6007C26.0686 78.2137 26.0998 78.6002 26.1493 78.6002C26.1985 78.6002 26.23 78.2404 26.23 77.6806V76.7611H26.7144C26.9835 76.7611 27.1988 76.7256 27.1988 76.6811C27.1988 76.6355 26.9566 76.6012 26.6337 76.6012H26.0686V77.6007ZM27.7199 76.7975C27.5443 76.9713 27.5217 77.0629 27.5217 77.6007C27.5217 78.1385 27.5443 78.2301 27.7199 78.4039C27.9878 78.6694 28.476 78.6735 28.7819 78.4129C28.9856 78.2394 29.0017 78.1808 29.0017 77.6127C29.0017 77.08 28.977 76.9735 28.8127 76.8004C28.548 76.5213 28.0001 76.5198 27.7199 76.7975ZM29.7059 76.7566C29.3803 77.0791 29.3804 78.0619 29.706 78.4053C29.9667 78.6801 30.5168 78.6794 30.7948 78.4039C30.9954 78.2052 31.0602 77.9605 30.9123 77.9605C30.8679 77.9605 30.8315 78.0089 30.8315 78.068C30.8315 78.2559 30.5461 78.4403 30.2553 78.4403C29.7884 78.4403 29.6716 78.2948 29.6359 77.6681C29.5969 76.9839 29.7531 76.7291 30.2116 76.7291C30.5103 76.7291 30.8315 76.9385 30.8315 77.1333C30.8315 77.1925 30.8679 77.2409 30.9123 77.2409C31.0602 77.2409 30.9954 76.9962 30.7948 76.7975C30.5378 76.5428 29.9442 76.5206 29.7059 76.7566ZM31.2539 76.6507C32.0196 77.9592 32.0566 78.0472 31.9247 78.2466C31.8542 78.3531 31.7247 78.4403 31.6369 78.4403C31.5492 78.4403 31.4774 78.4762 31.4774 78.5202C31.4774 78.6323 31.7427 78.6199 31.9046 78.5002C32.0341 78.4045 32.863 76.671 32.8069 76.6132C32.7368 76.5409 32.6247 76.7133 32.4037 77.2341C32.2716 77.5453 32.1452 77.8001 32.1228 77.8003C32.1003 77.8004 31.9369 77.5424 31.7595 77.2269C31.5821 76.9113 31.3865 76.6368 31.3249 76.6168C31.2632 76.5968 31.2312 76.612 31.2539 76.6507ZM33.3933 77.3532C33.3461 78.1359 33.2497 78.4403 33.0487 78.4403C32.9674 78.4403 32.9305 78.5277 32.9305 78.7201C32.9305 78.8741 32.9668 79 33.0112 79C33.0556 79 33.0919 78.91 33.0919 78.8001C33.0919 78.6017 33.0973 78.6002 33.8185 78.6002C34.4838 78.6002 34.545 78.6132 34.545 78.7554C34.545 78.8408 34.5813 78.9328 34.6258 78.96C34.6738 78.9894 34.7065 78.8942 34.7065 78.7249C34.7065 78.5684 34.6702 78.4403 34.6258 78.4403C34.5766 78.4403 34.545 78.0804 34.545 77.5207V76.6012H33.9918H33.4386L33.3933 77.3532ZM35.6388 76.861C35.2711 77.7385 35.022 78.456 35.0552 78.5414C35.0765 78.5957 35.1373 78.5232 35.1906 78.3803C35.2868 78.1219 35.2906 78.1204 35.8367 78.1204C36.3744 78.1204 36.3877 78.1255 36.4704 78.3603C36.5168 78.4922 36.5928 78.6002 36.639 78.6002C36.6854 78.6002 36.629 78.3574 36.5137 78.0605C36.3985 77.7636 36.2263 77.3139 36.131 77.061C36.0357 76.8082 35.9105 76.6012 35.8527 76.6012C35.7949 76.6012 35.6987 76.7181 35.6388 76.861ZM37.1283 77.6007C37.1283 78.2137 37.1596 78.6002 37.2091 78.6002C37.2535 78.6002 37.2898 78.4252 37.2898 78.2114V77.8226L37.7506 77.769C38.3027 77.7047 38.5007 77.5515 38.5007 77.1885C38.5007 76.7573 38.2753 76.6012 37.6531 76.6012H37.1283V77.6007ZM39.2457 76.6546C38.7824 76.8393 38.803 78.3725 39.2713 78.5505C39.4396 78.6145 39.903 78.6145 40.0713 78.5505C40.1847 78.5074 40.4382 78.1302 40.4382 78.0045C40.4382 77.8844 40.302 77.9878 40.1796 78.2009C40.0588 78.411 39.9977 78.4403 39.6796 78.4403C39.3965 78.4403 39.2896 78.4013 39.1915 78.2625C39.0262 78.0288 39.022 77.1785 39.185 76.948C39.4307 76.6005 40.0328 76.6542 40.21 77.0393C40.3249 77.2894 40.4682 77.3059 40.3962 77.0609C40.3095 76.7655 40.0499 76.6005 39.6825 76.6075C39.4987 76.6109 39.3022 76.6322 39.2457 76.6546ZM40.7611 76.6811C40.7611 76.7251 40.8882 76.7611 41.0436 76.7611H41.3262V77.6359C41.3262 78.1329 41.3611 78.5321 41.4069 78.5602C41.459 78.592 41.4876 78.2811 41.4876 77.6854V76.7611H41.8106C41.9882 76.7611 42.1335 76.7251 42.1335 76.6811C42.1335 76.6341 41.8509 76.6012 41.4473 76.6012C41.0436 76.6012 40.7611 76.6341 40.7611 76.6811ZM42.6178 77.6007V78.6002H43.0913C43.4481 78.6002 43.6173 78.5593 43.7775 78.4344C44.0161 78.2486 44.0592 77.9247 43.8782 77.6794C43.7824 77.5497 43.783 77.5023 43.8819 77.3527C44.0231 77.1393 43.9514 76.7889 43.7441 76.679C43.6633 76.6362 43.3768 76.6012 43.1075 76.6012H42.6178V77.6007ZM44.5553 77.6007V78.6002H45.1608C45.5106 78.6002 45.7662 78.5665 45.7662 78.5202C45.7662 78.4751 45.5375 78.4403 45.2415 78.4403H44.7168V78.0405V77.6407H45.2011C45.4702 77.6407 45.6855 77.6052 45.6855 77.5607C45.6855 77.5162 45.4702 77.4807 45.2011 77.4807H44.7168V77.1209V76.7611H45.2415C45.5375 76.7611 45.7662 76.7262 45.7662 76.6811C45.7662 76.6349 45.5106 76.6012 45.1608 76.6012H44.5553V77.6007ZM46.2506 77.556C46.2506 78.1063 46.2848 78.5317 46.3313 78.5602C46.3818 78.5911 46.4121 78.4278 46.4121 78.1251V77.6407H47.0175H47.623V78.1251C47.623 78.4278 47.6533 78.5911 47.7037 78.5602C47.7499 78.532 47.7844 78.1211 47.7844 77.6007C47.7844 77.0802 47.7499 76.6694 47.7037 76.6411C47.6536 76.6104 47.623 76.7603 47.623 77.0362V77.4807H47.0175H46.4121V77.0409C46.4121 76.7991 46.3757 76.6012 46.3313 76.6012C46.282 76.6012 46.2506 76.9727 46.2506 77.556ZM48.3495 77.6007C48.3495 78.2137 48.3808 78.6002 48.4303 78.6002C48.4752 78.6002 48.511 78.3869 48.511 78.1204V77.6407H49.0761H49.6412V78.0757C49.6412 78.3151 49.6775 78.533 49.7219 78.5602C49.7741 78.5921 49.8027 78.2545 49.8027 77.6054C49.8027 76.9892 49.7715 76.6012 49.7219 76.6012C49.6775 76.6012 49.6412 76.7991 49.6412 77.0409V77.4807H49.0761H48.511V77.0409C48.511 76.7991 48.4747 76.6012 48.4303 76.6012C48.3808 76.6012 48.3495 76.9876 48.3495 77.6007ZM50.612 76.7591C50.398 76.971 50.3418 77.2317 50.3845 77.8154C50.4279 78.4103 50.6082 78.6002 51.1295 78.6002C51.3909 78.6002 51.5151 78.5524 51.6655 78.3938C51.8359 78.2141 51.8612 78.1117 51.8612 77.6007C51.8612 77.0896 51.8359 76.9872 51.6655 76.8075C51.4141 76.5425 50.8566 76.5168 50.612 76.7591ZM52.386 77.6007C52.386 78.2137 52.4172 78.6002 52.4667 78.6002C52.5158 78.6002 52.5474 78.2404 52.5474 77.6806V76.7611H53.0721C53.3682 76.7611 53.5969 76.7262 53.5969 76.6811C53.5969 76.6349 53.3412 76.6012 52.9914 76.6012H52.386V77.6007ZM54.1805 76.6546C53.7172 76.8393 53.7377 78.3725 54.206 78.5505C54.5144 78.6678 54.9409 78.6004 55.126 78.4053C55.4598 78.0534 55.4513 77.0741 55.1117 76.7608C54.9454 76.6073 54.443 76.5501 54.1805 76.6546ZM56.5031 76.6792C56.5031 76.7273 56.6689 77.0561 56.8715 77.4098C57.2242 78.0254 57.2345 78.0613 57.1119 78.2466C57.0414 78.3531 56.9119 78.4403 56.8241 78.4403C56.7364 78.4403 56.6645 78.4762 56.6645 78.5202C56.6645 78.6323 56.9299 78.6199 57.0918 78.5002C57.2213 78.4045 58.0502 76.671 57.9941 76.6132C57.9215 76.5383 57.8039 76.7218 57.5946 77.2367C57.4686 77.5468 57.3425 77.8006 57.3145 77.8006C57.2866 77.8006 57.1267 77.5495 56.9594 77.2427C56.6631 76.6993 56.5031 76.5017 56.5031 76.6792ZM58.3598 77.6007C58.3598 78.2137 58.3911 78.6002 58.4406 78.6002C58.4855 78.6002 58.5213 78.3869 58.5213 78.1204V77.6407H59.0864H59.6515V78.1204C59.6515 78.3869 59.6873 78.6002 59.7322 78.6002C59.7817 78.6002 59.8129 78.2137 59.8129 77.6007C59.8129 76.9876 59.7817 76.6012 59.7322 76.6012C59.6878 76.6012 59.6515 76.7991 59.6515 77.0409V77.4807H59.0864H58.5213V77.0409C58.5213 76.7991 58.485 76.6012 58.4406 76.6012C58.3911 76.6012 58.3598 76.9876 58.3598 77.6007ZM60.4588 77.6007C60.4588 78.1504 60.4871 78.6002 60.5218 78.6002C60.5565 78.6002 60.8561 78.2157 61.1878 77.7459L61.7908 76.8916L61.8137 77.7459C61.8462 78.955 61.9926 78.8361 61.9926 77.6007C61.9926 77.0059 61.9608 76.6012 61.9141 76.6012C61.8708 76.6012 61.562 76.9835 61.2279 77.4508L60.6202 78.3003V77.4508C60.6202 76.9376 60.5883 76.6012 60.5395 76.6012C60.49 76.6012 60.4588 76.9876 60.4588 77.6007ZM62.5754 77.5807L62.5981 78.5602L63.0874 78.5836C63.4863 78.6028 63.6167 78.5758 63.7937 78.4379C64.0393 78.2465 64.081 77.9299 63.8882 77.7189C63.7806 77.6012 63.7798 77.5576 63.8818 77.3629C64.0054 77.1269 63.9804 76.9673 63.7842 76.7411C63.6905 76.6331 63.5364 76.6012 63.1078 76.6012H62.5527L62.5754 77.5807ZM64.5759 77.6007V78.6002H65.1814C65.5312 78.6002 65.7868 78.5665 65.7868 78.5202C65.7868 78.4745 65.5432 78.4403 65.2173 78.4403H64.6478L64.6724 78.0605L64.697 77.6806L65.2016 77.6568C65.8691 77.6253 65.8525 77.4807 65.1814 77.4807H64.6566V77.1209V76.7611H65.2217C65.5446 76.7611 65.7868 76.7268 65.7868 76.6811C65.7868 76.6349 65.5312 76.6012 65.1814 76.6012H64.5759V77.6007ZM66.2712 77.556C66.2712 78.1063 66.3054 78.5317 66.3519 78.5602C66.4016 78.5906 66.4327 78.4583 66.4327 78.2165V77.8234L66.9372 77.7725C67.3115 77.7348 67.4782 77.678 67.583 77.5524C67.7807 77.3155 67.759 77.0281 67.5261 76.7975C67.3561 76.629 67.253 76.6012 66.7996 76.6012H66.2712V77.556ZM68.3319 76.7588C68.0031 77.1185 68.0282 78.1822 68.372 78.4578C68.6149 78.6526 69.103 78.6412 69.3683 78.4344C69.5753 78.2732 69.6624 77.9605 69.5003 77.9605C69.4559 77.9605 69.4196 78.0119 69.4196 78.0748C69.4196 78.4305 68.6867 78.5827 68.4135 78.2836C68.2302 78.083 68.1632 77.4997 68.2823 77.1422C68.4556 76.622 69.1426 76.5541 69.3989 77.0317C69.5077 77.2344 69.5384 77.2534 69.5641 77.1338C69.5815 77.0529 69.5134 76.9 69.4128 76.7939C69.1716 76.5396 68.5506 76.5194 68.3319 76.7588ZM70.1632 77.5854C70.1529 78.2049 70.176 78.5914 70.2216 78.5634C70.2631 78.538 70.5413 78.1761 70.8397 77.7591C71.1381 77.3421 71.4129 77.001 71.4504 77.001C71.4879 77.001 71.5185 77.368 71.5185 77.8166C71.5185 78.3784 71.5445 78.6064 71.602 78.5495C71.7099 78.4427 71.6698 76.663 71.5589 76.6306C71.5145 76.6176 71.2259 76.9655 70.9175 77.4037C70.6091 77.8418 70.3289 78.2004 70.2947 78.2004C70.2605 78.2004 70.2207 77.8316 70.2064 77.3808L70.1802 76.5612L70.1632 77.5854ZM72.0836 76.6811C72.0836 76.7251 72.2289 76.7611 72.4065 76.7611H72.7295V77.6854C72.7295 78.2811 72.7581 78.592 72.8102 78.5602C72.856 78.5321 72.8909 78.1329 72.8909 77.6359V76.7611H73.1735C73.3289 76.7611 73.456 76.7251 73.456 76.6811C73.456 76.6341 73.1735 76.6012 72.7698 76.6012C72.3662 76.6012 72.0836 76.6341 72.0836 76.6811ZM73.9404 77.6007V78.6002H74.5458C74.8956 78.6002 75.1513 78.5665 75.1513 78.5202C75.1513 78.4751 74.9226 78.4403 74.6266 78.4403H74.1018V78.0405V77.6407H74.5862C74.8553 77.6407 75.0706 77.6052 75.0706 77.5607C75.0706 77.5162 74.8553 77.4807 74.5862 77.4807H74.1018V77.1209V76.7611H74.6266C74.9226 76.7611 75.1513 76.7262 75.1513 76.6811C75.1513 76.6349 74.8956 76.6012 74.5458 76.6012H73.9404V77.6007ZM75.4742 76.6811C75.4742 76.7251 75.6195 76.7611 75.7971 76.7611H76.12V77.6806C76.12 78.2404 76.1516 78.6002 76.2008 78.6002C76.2499 78.6002 76.2815 78.2404 76.2815 77.6806V76.7611H76.6044C76.782 76.7611 76.9273 76.7251 76.9273 76.6811C76.9273 76.6337 76.6313 76.6012 76.2008 76.6012C75.7702 76.6012 75.4742 76.6337 75.4742 76.6811ZM77.8406 76.7411C77.8129 76.8181 77.649 77.2364 77.4765 77.6706C77.3039 78.1049 77.1793 78.5007 77.1994 78.5502C77.2196 78.5997 77.2835 78.5232 77.3415 78.3803C77.4462 78.1227 77.4518 78.1204 77.9987 78.1204C78.539 78.1204 78.552 78.1253 78.6347 78.3603C78.6811 78.4922 78.7558 78.6002 78.8006 78.6002C78.8454 78.6002 78.8652 78.5553 78.8446 78.5002C78.1504 76.6464 77.9813 76.3502 77.8406 76.7411ZM80.0757 77.6007C80.0757 78.1504 80.1051 78.6002 80.1409 78.6002C80.1769 78.6002 80.4765 78.2192 80.807 77.7536L81.4077 76.9069L81.4307 77.7536C81.4632 78.9566 81.6096 78.8315 81.6096 77.6007C81.6096 77.0273 81.5771 76.6012 81.5333 76.6012C81.4915 76.6012 81.1917 76.977 80.8673 77.4364L80.2775 78.2716L80.2546 77.4364C80.2218 76.2424 80.0757 76.3767 80.0757 77.6007ZM82.2554 77.6054C82.2554 78.2545 82.284 78.5921 82.3361 78.5602C82.3805 78.533 82.4186 78.1801 82.4208 77.7759L82.4248 77.0409L82.7045 77.5807C82.8583 77.8776 83.0196 78.1204 83.0627 78.1204C83.106 78.1204 83.2781 77.8595 83.4451 77.5407L83.7489 76.961L83.7901 77.8006C83.8136 78.2798 83.8582 78.5865 83.8938 78.5151C83.9851 78.3326 83.9265 76.6595 83.8276 76.627C83.7822 76.6121 83.5971 76.8954 83.4163 77.2565L83.0877 77.9133L82.7321 77.2583C82.5365 76.8981 82.3492 76.6029 82.3159 76.6023C82.2827 76.6016 82.2554 77.0531 82.2554 77.6054ZM86.0496 77.6007C86.0496 78.2137 86.0808 78.6002 86.1303 78.6002C86.1752 78.6002 86.2111 78.3869 86.2111 78.1204V77.6407H86.7762H87.3413V78.1204C87.3413 78.3869 87.3771 78.6002 87.422 78.6002C87.4715 78.6002 87.5027 78.2137 87.5027 77.6007C87.5027 76.9876 87.4715 76.6012 87.422 76.6012C87.3776 76.6012 87.3413 76.7991 87.3413 77.0409V77.4807H86.7762H86.2111V77.0409C86.2111 76.7991 86.1747 76.6012 86.1303 76.6012C86.0808 76.6012 86.0496 76.9876 86.0496 77.6007ZM92.8308 77.6007C92.8308 78.2137 92.862 78.6002 92.9115 78.6002C92.9564 78.6002 92.9922 78.3869 92.9922 78.1204C92.9922 77.6502 92.9967 77.6407 93.2142 77.6414C93.3968 77.6419 93.4917 77.7273 93.7478 78.1211C93.9192 78.3846 94.0918 78.6002 94.1313 78.6002C94.2486 78.6002 94.2191 78.5347 93.8777 78.0367L93.5522 77.562L93.8373 77.1426C93.9941 76.912 94.1224 76.6957 94.1224 76.6622C94.1224 76.5035 93.9766 76.6403 93.7188 77.0409C93.4888 77.3983 93.395 77.48 93.2142 77.4803C92.9989 77.4807 92.9922 77.4675 92.9922 77.0409C92.9922 76.7991 92.9559 76.6012 92.9115 76.6012C92.862 76.6012 92.8308 76.9876 92.8308 77.6007ZM95.1355 76.861C94.7678 77.7385 94.5186 78.456 94.5519 78.5414C94.5731 78.5957 94.634 78.5232 94.6873 78.3803C94.7835 78.1219 94.7873 78.1204 95.3334 78.1204C95.8711 78.1204 95.8844 78.1255 95.9671 78.3603C96.0135 78.4922 96.0894 78.6002 96.1357 78.6002C96.182 78.6002 96.1257 78.3574 96.0104 78.0605C95.8951 77.7636 95.7229 77.3139 95.6277 77.061C95.5324 76.8082 95.4072 76.6012 95.3494 76.6012C95.2916 76.6012 95.1954 76.7181 95.1355 76.861ZM96.4232 76.6811C96.4506 76.7251 96.598 76.7611 96.7509 76.7611H97.0286V77.6806C97.0286 78.2404 97.0602 78.6002 97.1094 78.6002C97.1585 78.6002 97.1901 78.2404 97.1901 77.6806V76.7611H97.513C97.6906 76.7611 97.8359 76.7251 97.8359 76.6811C97.8359 76.6337 97.5384 76.6012 97.1046 76.6012C96.6376 76.6012 96.3913 76.63 96.4232 76.6811ZM98.453 77.5564C98.0457 78.5941 98.044 78.6002 98.1509 78.6002C98.191 78.6002 98.2618 78.4922 98.3082 78.3603C98.3906 78.1263 98.4056 78.1204 98.9286 78.1204C99.4499 78.1204 99.467 78.127 99.5559 78.3603C99.6405 78.5824 99.7734 78.6881 99.7734 78.5333C99.7734 78.3343 99.0175 76.6012 98.9306 76.6012C98.8741 76.6012 98.6593 77.0307 98.453 77.5564ZM100.177 77.556C100.177 78.1063 100.211 78.5317 100.258 78.5602C100.308 78.5911 100.338 78.4278 100.338 78.1251V77.6407H100.94H101.542L101.57 78.1404C101.586 78.4153 101.599 78.1724 101.599 77.6007C101.599 77.029 101.586 76.7681 101.57 77.021L101.541 77.4807H100.94H100.338V77.0409C100.338 76.7991 100.302 76.6012 100.258 76.6012C100.208 76.6012 100.177 76.9727 100.177 77.556ZM102.537 76.6546C102.098 76.8296 102.086 78.291 102.521 78.5219C102.603 78.5649 102.801 78.6002 102.962 78.6002C103.356 78.6002 103.533 78.4931 103.64 78.1901C103.828 77.6565 103.699 76.8364 103.403 76.6794C103.25 76.5984 102.716 76.5831 102.537 76.6546ZM104.294 77.6007V78.6002H104.768C105.124 78.6002 105.294 78.5593 105.454 78.4344C105.695 78.2464 105.74 77.8852 105.547 77.6933C105.443 77.5902 105.442 77.5457 105.54 77.3578C105.661 77.1267 105.635 76.9663 105.44 76.7411C105.348 76.6351 105.194 76.6012 104.806 76.6012H104.294V77.6007ZM106.414 77.4581C106.229 77.9324 106.054 78.3833 106.025 78.4603C105.996 78.5373 106.009 78.6002 106.054 78.6002C106.098 78.6002 106.173 78.4922 106.22 78.3603C106.302 78.1253 106.315 78.1204 106.856 78.1204C107.402 78.1204 107.408 78.1227 107.513 78.3803C107.571 78.5232 107.634 78.6013 107.654 78.5538C107.711 78.414 106.988 76.6433 106.864 76.6185C106.786 76.6032 106.642 76.8726 106.414 77.4581ZM20.7747 76.7728C21.0306 76.8884 21.1759 77.306 21.1227 77.7733C21.0696 78.2402 20.8799 78.4403 20.4904 78.4403C20.0771 78.4403 19.9332 78.2279 19.9332 77.6176C19.9332 77.0899 20.0252 76.864 20.2816 76.7616C20.5192 76.6668 20.5409 76.6673 20.7747 76.7728ZM24.2429 76.7715C24.5145 76.894 24.6437 77.2411 24.597 77.7224C24.5474 78.2339 24.3647 78.4403 23.9617 78.4403C23.5484 78.4403 23.4045 78.2279 23.4045 77.6176C23.4045 77.0899 23.4965 76.864 23.7529 76.7616C23.9902 76.667 24.0123 76.6674 24.2429 76.7715ZM28.5246 76.7728C28.7805 76.8884 28.9259 77.306 28.8727 77.7733C28.8195 78.2402 28.6298 78.4403 28.2403 78.4403C27.827 78.4403 27.6831 78.2279 27.6831 77.6176C27.6831 77.0899 27.7751 76.864 28.0315 76.7616C28.2691 76.6668 28.2908 76.6673 28.5246 76.7728ZM51.3676 76.7715C51.6391 76.894 51.7684 77.2411 51.7217 77.7224C51.6738 78.2162 51.4867 78.4403 51.1222 78.4403C50.6955 78.4403 50.5292 78.2145 50.5292 77.6354C50.5292 77.0905 50.6192 76.8647 50.8775 76.7616C51.1149 76.667 51.137 76.6674 51.3676 76.7715ZM54.7908 76.7324C55.2671 76.8587 55.3762 78.0886 54.937 78.3791C54.7603 78.4959 54.3234 78.4403 54.162 78.2803C54.036 78.1556 54.0005 78.0138 54.0005 77.6354C54.0005 77.0905 54.0905 76.8647 54.3489 76.7616C54.5704 76.6733 54.5685 76.6734 54.7908 76.7324ZM103.406 76.8892C103.493 76.9731 103.527 77.1793 103.527 77.6099C103.527 78.1149 103.502 78.2318 103.371 78.3268C103.171 78.4712 102.755 78.4729 102.558 78.33C102.371 78.1941 102.285 77.283 102.434 77.0073C102.611 76.6794 103.126 76.6169 103.406 76.8892ZM34.3836 77.6007V78.4403H33.8609H33.3381L33.415 78.24C33.4572 78.1299 33.5161 77.752 33.5457 77.4004L33.5995 76.7611H33.9916H34.3836V77.6007ZM38.2424 76.857C38.2957 76.9098 38.3392 77.0726 38.3392 77.2189C38.3392 77.5258 38.14 77.6407 37.6074 77.6407H37.2898V77.2009V76.7611H37.7176C37.953 76.7611 38.1891 76.8043 38.2424 76.857ZM43.7626 76.9607C43.9109 77.2831 43.6705 77.4807 43.1301 77.4807H42.6986V77.1209V76.7611H43.1846C43.6246 76.7611 43.6795 76.78 43.7626 76.9607ZM63.7832 76.9607C63.9315 77.2831 63.691 77.4807 63.1507 77.4807H62.7192V77.1209V76.7611H63.2052C63.6452 76.7611 63.7001 76.78 63.7832 76.9607ZM67.436 76.8867C67.7888 77.2362 67.4297 77.6688 66.8227 77.6255L66.473 77.6007L66.4486 77.1809L66.4242 76.7611H66.8667C67.1613 76.7611 67.3515 76.8031 67.436 76.8867ZM105.439 76.9607C105.587 77.2831 105.347 77.4807 104.806 77.4807H104.375V77.1209V76.7611H104.861C105.301 76.7611 105.356 76.78 105.439 76.9607ZM9.35161 77.4008C9.4438 77.6427 9.5192 77.8676 9.5192 77.9005C9.51929 77.9335 9.31561 77.9605 9.06664 77.9605C8.66768 77.9605 8.62078 77.9439 8.67083 77.8206C8.70207 77.7436 8.8025 77.4902 8.89388 77.2573C8.98527 77.0245 9.08795 76.8626 9.1221 76.8975C9.15617 76.9324 9.2595 77.1589 9.35161 77.4008ZM13.0586 77.2608C13.1467 77.4918 13.2441 77.7436 13.2748 77.8206C13.3241 77.9438 13.2767 77.9605 12.8781 77.9605C12.6292 77.9605 12.4255 77.9289 12.4255 77.8903C12.4255 77.8517 12.4843 77.6808 12.5562 77.5105C12.628 77.3402 12.718 77.1199 12.756 77.021C12.794 76.922 12.8416 76.841 12.8617 76.841C12.8818 76.841 12.9704 77.0299 13.0586 77.2608ZM36.0591 77.3039C36.3103 77.9456 36.3052 77.9605 35.8367 77.9605C35.5746 77.9605 35.433 77.9265 35.433 77.8637C35.433 77.7327 35.7849 76.841 35.8367 76.841C35.8594 76.841 35.9594 77.0493 36.0591 77.3039ZM78.2513 77.3945C78.3667 77.677 78.4612 77.9199 78.4612 77.9343C78.4612 77.9487 78.2614 77.9605 78.0172 77.9605C77.7729 77.9605 77.5731 77.9335 77.5732 77.9005C77.5732 77.8329 77.887 77.0003 77.9513 76.8973C78.0086 76.8053 78.0142 76.8147 78.2513 77.3945ZM89.6824 77.5207C89.6824 78.1924 89.68 78.2004 89.4806 78.2004C89.074 78.2004 88.8249 77.6719 89.0083 77.1985C89.0539 77.0806 89.4478 76.8532 89.6218 76.8442C89.6551 76.8425 89.6824 77.1469 89.6824 77.5207ZM90.4915 77.1414C90.5793 77.2519 90.6511 77.4471 90.6511 77.5751C90.6511 77.8659 90.3293 78.2004 90.0493 78.2004C89.8467 78.2004 89.8438 78.1918 89.8438 77.5741C89.8438 77.2295 89.8629 76.9288 89.8861 76.9058C89.9804 76.8123 90.3418 76.953 90.4915 77.1414ZM95.5558 77.3039C95.807 77.9456 95.8019 77.9605 95.3334 77.9605C95.0713 77.9605 94.9297 77.9265 94.9297 77.8637C94.9297 77.7327 95.2816 76.841 95.3334 76.841C95.356 76.841 95.4561 77.0493 95.5558 77.3039ZM99.1948 77.4279C99.291 77.6846 99.3698 77.9096 99.3698 77.9276C99.3698 77.9457 99.17 77.9605 98.9258 77.9605C98.6815 77.9605 98.4818 77.9429 98.4818 77.9214C98.4818 77.7732 98.9182 76.8435 98.9634 76.8957C98.9944 76.9316 99.0986 77.1711 99.1948 77.4279ZM107.106 77.3914C107.202 77.6282 107.281 77.8531 107.281 77.8912C107.281 77.9293 107.077 77.9605 106.828 77.9605C106.43 77.9605 106.383 77.9438 106.432 77.8206C106.463 77.7436 106.561 77.4884 106.651 77.2534C106.741 77.0184 106.84 76.8565 106.873 76.8936C106.905 76.9307 107.01 77.1547 107.106 77.3914ZM43.7319 77.7366C43.8854 77.8886 43.8496 78.2637 43.6726 78.3575C43.5867 78.403 43.3324 78.4403 43.1075 78.4403H42.6986V78.0405V77.6407H43.1668C43.4243 77.6407 43.6786 77.6838 43.7319 77.7366ZM63.7525 77.7366C63.8884 77.8712 63.8731 78.1655 63.7225 78.3147C63.6383 78.398 63.4481 78.4403 63.1574 78.4403H62.7192V78.0405V77.6407H63.1874C63.4449 77.6407 63.6992 77.6838 63.7525 77.7366ZM105.408 77.7366C105.544 77.8712 105.529 78.1655 105.378 78.3147C105.294 78.398 105.104 78.4403 104.813 78.4403H104.375V78.0405V77.6407H104.843C105.101 77.6407 105.355 77.6838 105.408 77.7366ZM84.4535 78.4553C84.5034 78.6036 84.6772 78.6281 84.6772 78.4869C84.6772 78.4173 84.6197 78.3603 84.5494 78.3603C84.4791 78.3603 84.4359 78.403 84.4535 78.4553ZM88.0678 78.4803C88.0678 78.5462 88.1223 78.6002 88.1889 78.6002C88.2555 78.6002 88.31 78.5462 88.31 78.4803C88.31 78.4143 88.2555 78.3603 88.1889 78.3603C88.1223 78.3603 88.0678 78.4143 88.0678 78.4803ZM91.2969 78.4803C91.2969 78.5536 91.336 78.6006 91.3837 78.5848C91.4314 78.5691 91.4705 78.5221 91.4705 78.4803C91.4705 78.4384 91.4314 78.3914 91.3837 78.3757C91.336 78.3599 91.2969 78.4069 91.2969 78.4803Z" fill="#1A5F4C"/>
</svg>
